<?xml version="1.0" encoding="UTF-8"?>
<svg id="Layer_1" xmlns="http://www.w3.org/2000/svg" version="1.1" viewBox="0 0 252 144">
  <!-- Generator: Adobe Illustrator 29.8.1, SVG Export Plug-In . SVG Version: 2.1.1 Build 2)  -->
  <defs>
    <style>
      .st0 {
        fill: none;
      }
    </style>
  </defs>
  <g>
    <g>
      <path d="M140.7,71.99h-3.72l-12.15,17.29-12.15-17.29h-3.72c-.19,0-.35.16-.35.35v35.11c0,.19.16.35.35.35h3.09c.19,0,.35-.16.35-.35v-29.31l11.33,16.12h2.22l11.33-16.12v29.31c0,.19.16.35.35.35h3.09c.19,0,.35-.16.35-.35v-35.11c0-.19-.16-.35-.35-.35h-.02Z"/>
      <path d="M157.24,84.74h-4.15l-7.92,22.65.29.41h2.94l2.25-6.44h9.01l2.25,6.44h2.94l.29-.41-7.92-22.65h.02ZM155.17,98.27h-3.45l3.45-9.95,3.45,9.95h-3.45Z"/>
      <path d="M167.91,84.98c-.19,0-.35.16-.35.35v22.13c0,.19.16.35.35.35h2.69c.19,0,.35-.16.35-.35v-8.2h5.12l5.3,8.55h3.15l.39-.54-4.97-8.01h3.69c2.91-7.79,0-14.27,0-14.27h-15.72ZM170.94,96.06v-7.89h10.15s1.11,3.65,0,7.89h-10.15Z"/>
      <rect x="188.71" y="84.98" width="3.38" height="22.82" rx=".35" ry=".35"/>
      <path d="M210.82,107.8h3.03c.19,0,.35-.16.35-.35v-22.13c0-.19-.16-.35-.35-.35h-2.69c-.19,0-.35.16-.35.35v16.45l-10.78-16.79h-3.19c-.19,0-.35.16-.35.35v22.13c0,.19.16.35.35.35h2.69c.19,0,.35-.16.35-.35v-16.27l10.67,16.62h.26"/>
      <path d="M221.89,97.72h9.79c.19,0,.35-.16.35-.35v-2.42c0-.19-.16-.35-.35-.35h-9.79v-6.4h11.74c.19,0,.35-.16.35-.35v-2.54c0-.19-.16-.35-.35-.35h-14.77c-.19,0-.35.16-.35.35v22.13c0,.19.16.35.35.35h14.77c.19,0,.35-.16.35-.35v-2.54c0-.19-.16-.35-.35-.35h-11.74v-6.85.02Z"/>
    </g>
    <g>
      <polygon points="28.94 93.41 35.08 93.41 41.21 93.41 35.08 75.72 28.94 93.41"/>
      <path d="M35.08,97h-7.38l-3.74,10.8h-3.41l-.42-.59,12.54-35.81h4.86l6.78,19.35v-34.67l-26.3,14.97v43.33s11.22,5.36,26.3,6.92v-19.06l-1.82-5.25h-7.41Z"/>
      <path d="M66.58,88.17h-10.15v7.89h10.15c1.11-4.24,0-7.89,0-7.89Z"/>
      <path d="M45.17,93.29l4.87,13.92-.42.59h-3.41l-1.04-2.99v11.88s12.94-1.58,25.88-8.48V22.7l-25.88,14.08s0,56.51,0,56.51ZM53.05,85.32c0-.19.16-.35.35-.35h15.71s2.91,6.48,0,14.27h-3.69l4.97,8.01-.39.54h-3.15l-5.3-8.55h-5.12v8.2c0,.19-.16.35-.35.35h-2.69c-.19,0-.35-.16-.35-.35v-22.13h0Z"/>
      <path d="M71.93,47.35v68.97c15.83,1.27,26.24-.56,26.24-.56V32.28l-26.24,15.07ZM92.04,88.26v4.04c0,.19-.16.35-.35.35h-2.69c-.19,0-.35-.16-.35-.35v-4.32h-11.02v16.78h11.02v-4.4c0-.19.16-.35.35-.35h2.69c.19,0,.35.16.35.35v6.75c-8.74,2.05-16.4.35-17.78,0v-21.49c1.38-.34,9.05-2.05,17.78,0v2.63h0Z"/>
    </g>
  </g>
  <rect class="st0" width="252" height="144"/>
</svg>