<?xml version="1.0" encoding="UTF-8"?>
<svg id="Layer_1" xmlns="http://www.w3.org/2000/svg" version="1.1" viewBox="0 0 252 144">
  <!-- Generator: Adobe Illustrator 29.8.1, SVG Export Plug-In . SVG Version: 2.1.1 Build 2)  -->
  <defs>
    <style>
      .st0 {
        fill: none;
      }

      .st1 {
        fill-rule: evenodd;
      }
    </style>
  </defs>
  <g>
    <g>
      <g>
        <path class="st1" d="M231.89,127.96c-.87,0-1.57.71-1.57,1.57s.7,1.57,1.57,1.57,1.57-.7,1.57-1.57-.69-1.57-1.57-1.57h0ZM231.89,130.91c-.76,0-1.37-.61-1.37-1.38s.61-1.37,1.37-1.37,1.38.61,1.38,1.37-.61,1.38-1.38,1.38h0Z"/>
        <path class="st1" d="M232.72,129.12c0-.15-.07-.31-.2-.38-.13-.08-.28-.09-.43-.09h-.76v1.76h.22v-.82h.39l.51.82h.25l-.53-.82h0c.31,0,.56-.13.56-.48h-.01ZM231.86,129.43h-.33v-.63h.5c.22,0,.46.03.46.31,0,.36-.38.32-.63.32h0Z"/>
      </g>
      <g>
        <path d="M22.46,111.31h7.42c3.66,0,6.1,2.12,6.1,5.13,0,1.82-.92,3.23-2.39,4.07,2.12.71,3.24,2.44,3.24,4.91,0,3.28-2.58,5.7-6.43,5.7h-7.95v-19.81h0ZM29.99,119.59c1.93-.03,3.26-1.19,3.26-2.77s-1.14-2.93-3.42-2.93h-4.57v5.73l4.74-.03s-.01,0-.01,0ZM30.33,128.41c2.28,0,3.64-1.33,3.64-3.17s-1.49-3.15-3.47-3.15h-5.24v6.32s5.07,0,5.07,0Z"/>
        <path d="M39.03,111.31h3.32l8.97,14.37v-14.37h2.82v19.81h-2.82l-9.49-14.92v14.92h-2.79v-19.81h-.01Z"/>
        <path d="M56.31,128.3l1.76-1.79c1.41,1.41,3.17,2.31,5.4,2.33,2.39,0,4.07-1.14,4.07-3.12,0-4.8-10.85-2.66-10.85-9.55,0-2.93,2.39-5.18,6.46-5.18,2.14,0,4.86.87,6.59,3.2l-1.98,1.55c-.98-1.36-2.77-2.14-4.48-2.17-2.36-.03-3.88,1.09-3.88,2.58,0,4.34,10.88,2.28,10.88,9.44,0,3.58-2.85,5.83-6.84,5.83-2.55-.03-5.05-.87-7.14-3.12h.01Z"/>
        <path d="M72.64,111.31h12.79v2.69h-10.02v5.81h8.43v2.69h-8.43v8.63h-2.77s0-19.82,0-19.82Z"/>
        <path d="M96.59,111.31h2.79v17.01h9.98v2.79h-12.78v-19.81h.01,0Z"/>
        <path d="M109.7,121.22c0-5.62,4.56-10.17,10.2-10.17s10.17,4.56,10.17,10.17-4.56,10.23-10.17,10.23-10.2-4.59-10.2-10.23ZM119.91,128.57c4.02,0,7.33-3.26,7.33-7.38s-3.31-7.3-7.33-7.3-7.35,3.26-7.35,7.3,3.31,7.38,7.35,7.38Z"/>
        <path d="M128.11,121.22c0-5.62,4.56-10.17,10.2-10.17,3.28,0,6.21,1.55,8.09,3.96l-2.5,1.52c-1.3-1.6-3.34-2.63-5.59-2.63-4.04,0-7.35,3.26-7.35,7.3s3.31,7.38,7.35,7.38c3.83,0,6.46-2.47,6.76-6.16h-7.41v-2.58h10.45c.08.43.11.9.11,1.38,0,6.02-4.02,10.23-9.9,10.23s-10.2-4.59-10.2-10.23h0Z"/>
        <path d="M151.33,111.31h2.79v19.81h-2.79v-19.81Z"/>
        <path d="M156.68,128.3l1.76-1.79c1.41,1.41,3.17,2.31,5.4,2.33,2.39,0,4.07-1.14,4.07-3.12,0-4.8-10.85-2.66-10.85-9.55,0-2.93,2.39-5.18,6.46-5.18,2.14,0,4.86.87,6.59,3.2l-1.98,1.55c-.98-1.36-2.77-2.14-4.48-2.17-2.36-.03-3.88,1.09-3.88,2.58,0,4.34,10.88,2.28,10.88,9.44,0,3.58-2.85,5.83-6.84,5.83-2.55-.03-5.05-.87-7.14-3.12h0Z"/>
        <path d="M178,114h-6.05v-2.69h14.9v2.69h-6.05v17.12h-2.79v-17.12h0Z"/>
        <path d="M189.75,111.31h2.79v19.81h-2.79v-19.81Z"/>
        <path d="M195.11,121.22c0-5.62,4.56-10.17,10.2-10.17,3.23,0,6.13,1.49,8,3.85l-2.31,1.71c-1.36-1.65-3.42-2.71-5.7-2.71-4.04,0-7.35,3.26-7.35,7.3s3.31,7.38,7.35,7.38c2.33,0,4.42-1.09,5.75-2.82l2.44,1.52c-1.84,2.52-4.83,4.18-8.19,4.18-5.64,0-10.2-4.59-10.2-10.23h0Z"/>
        <path d="M215.58,128.3l1.76-1.79c1.41,1.41,3.17,2.31,5.4,2.33,2.39,0,4.07-1.14,4.07-3.12,0-4.8-10.85-2.66-10.85-9.55,0-2.93,2.39-5.18,6.46-5.18,2.14,0,4.86.87,6.59,3.2l-1.98,1.55c-.98-1.36-2.77-2.14-4.48-2.17-2.36-.03-3.88,1.09-3.88,2.58,0,4.34,10.88,2.28,10.88,9.44,0,3.58-2.85,5.83-6.84,5.83-2.55-.03-5.05-.87-7.14-3.12h0Z"/>
      </g>
    </g>
    <path d="M157.66,12.56c-13,0-24.52,6.32-31.66,16.05-7.14-9.73-18.66-16.05-31.66-16.05-21.68,0-39.26,17.58-39.26,39.26s17.58,39.26,39.26,39.26c13,0,24.52-6.32,31.66-16.05,7.14,9.73,18.66,16.05,31.66,16.05,21.68,0,39.26-17.58,39.26-39.26s-17.58-39.26-39.26-39.26ZM145.12,72.71v-14.68h-35.81c-2.44,5.87-8.22,10-14.97,10-8.95,0-16.21-7.26-16.21-16.21s7.26-16.21,16.21-16.21c6.75,0,12.54,4.13,14.97,10h35.81v-14.68l34.44,20.9-34.44,20.9v-.02Z"/>
  </g>
  <rect class="st0" width="252" height="144"/>
</svg>