<?xml version="1.0" encoding="UTF-8"?>
<svg id="Layer_1" xmlns="http://www.w3.org/2000/svg" version="1.1" viewBox="0 0 252 144">
  <!-- Generator: Adobe Illustrator 29.8.1, SVG Export Plug-In . SVG Version: 2.1.1 Build 2)  -->
  <defs>
    <style>
      .st0 {
        fill: none;
      }
    </style>
  </defs>
  <g>
    <g>
      <g>
        <path d="M98.05,67.18v-6.92h-23.04v6.92h23.04ZM92.16,60.77v2.69h-16.64v-2.69h16.64ZM75.52,66.66v-2.69h16.64v2.69h-16.64Z"/>
        <path d="M98.05,69.49h-23.04v18.16h13.06v-11.25h9.98v-6.92ZM75.52,70h16.64v2.69h-13.69v14.45h-2.95v-17.14ZM88.07,75.89h-6.09v11.25h-3v-13.94h13.18v2.69h-4.09Z"/>
      </g>
      <g>
        <polygon points="111.64 81.13 108.34 73.5 105.43 81.13 111.64 81.13"/>
        <path d="M111.37,60.26h-8.33l4.4,10.77h-6.2l-5.19,16.23h29.88l-10.05-27h-4.51ZM108.2,71.54l-.29-.71-4.11-10.07h3.72l9.02,23.45h-15.25l4.19-12.68h2.72ZM96.76,86.75l4.86-15.2h3.32l-4.36,13.19h16.71l-9.21-23.96h3.49l9.67,25.98h-24.47Z"/>
      </g>
      <path d="M141.46,60.27c-1.24,0-2.34-.02-3.35-.02-3,0-5.23.21-8.03,1.91-2.12,1.28-3.92,3.16-4.92,5.43-.98,2.22-1.2,4.71-1.03,7.13.15,2.16.59,4.31,1.5,6.27.91,1.96,2.31,3.72,4.12,4.89,1.87,1.21,4.07,1.72,6.28,1.8h-.02c12.12.37,13.5-1.27,13.5-1.27v-15.89h-11.4c1.39-2.15,4.14-3.1,4.14-3.1h7.26v-7.14h-8.05ZM126.09,80.76c-.81-1.74-1.3-3.79-1.45-6.09-.18-2.67.15-4.99.99-6.89.91-2.06,2.59-3.91,4.72-5.2,2.56-1.55,4.63-1.83,7.77-1.83.48,0,.98,0,1.5.01.58,0,1.2.01,1.85.01h2.16v2.92h-2.45c-.48,0-.94,0-1.37,0-2.87-.03-4.76-.05-7.24,1.41-1.7,1-3.04,2.44-3.77,4.05-.67,1.47-.93,3.25-.79,5.28.12,1.74.51,3.3,1.14,4.63.74,1.55,1.84,2.82,3.17,3.65,1.46.92,3.24,1.4,5.12,1.4.52,0,1.05-.04,1.58-.11,1.17-.16,3.22-.91,4.6-2.02v3.96c-.18.08-.49.2-1.06.38l-.08.03c-1.31.44-2.7.62-3.99.74-.61.06-1.22.09-1.8.09-2.62,0-4.85-.58-6.63-1.73-1.64-1.06-3.01-2.68-3.93-4.68ZM143.59,77.41h-6.38v-2.87h6.38v2.87ZM141.33,80.19c-.6-.27-1.18-.62-1.73-1.04-.47-.36-.85-.78-1.16-1.23h5.15v.18c-.4.46-.84.89-1.28,1.3-.33.3-.64.57-.98.8ZM143.59,71.02v3.01h-6.38v-3.01h6.38ZM137.03,66.9h-.09l-.08.03c-.2.07-4.88,1.72-5.25,5.71-.28,3.02.6,5.48,2.47,6.92,1.54,1.19,3.21,1.79,4.96,1.79.26,0,.52-.01.78-.04,1.21-.12,2-.77,2.84-1.54.31-.29.63-.59.93-.91v2.43c-1.25,1.19-3.49,2.04-4.67,2.2-2.3.32-4.61-.12-6.35-1.21-1.25-.78-2.28-1.97-2.98-3.44-.61-1.27-.98-2.77-1.09-4.45-.14-1.95.11-3.65.75-5.04.69-1.51,1.95-2.87,3.57-3.82,2.36-1.39,4.2-1.37,6.98-1.34.43,0,.89,0,1.38,0h2.45v2.68h-6.59Z"/>
      <g>
        <path d="M151.54,64.11v23.15h12.81v-23.15h-12.81ZM152.06,64.62h2.95v22.13h-2.95v-22.13ZM155.51,86.75v-22.13h3.21v22.13h-3.21Z"/>
        <path d="M151.54,54.63v7.41h12.81v-7.41h-12.81ZM152.06,55.15h2.95v6.39h-2.95v-6.39ZM155.51,61.54v-6.39h3.21v6.39h-3.21Z"/>
      </g>
      <g>
        <path d="M183.73,60.69c-.71,0-1.4.05-2.08.16.12.02.23.05.34.07-.79-.14-1.59-.23-2.42-.23-7.45,0-13.49,6.04-13.49,13.49s6.04,13.49,13.49,13.49c.83,0,1.63-.09,2.42-.23-.11.02-.23.05-.34.07.68.1,1.37.16,2.08.16,7.45,0,13.49-6.04,13.49-13.49s-6.04-13.49-13.49-13.49ZM166.6,74.18c0-7.16,5.82-12.98,12.98-12.98s12.98,5.82,12.98,12.98-5.82,12.98-12.98,12.98-12.98-5.82-12.98-12.98Z"/>
        <path d="M179.58,63.43c-5.94,0-10.75,4.81-10.75,10.75s4.81,10.75,10.75,10.75,10.75-4.81,10.75-10.75-4.81-10.75-10.75-10.75ZM179.58,84.42c-5.65,0-10.24-4.59-10.24-10.24s4.59-10.24,10.24-10.24,10.24,4.59,10.24,10.24-4.59,10.24-10.24,10.24Z"/>
        <path d="M182.69,67.16s0,0,0,0c-.01,0-.03,0-.04-.01-.18-.08-.36-.14-.54-.21-.06-.02-.12-.05-.18-.07-.19-.06-.38-.11-.57-.15-.06-.02-.13-.04-.19-.05-.19-.04-.39-.07-.59-.1-.06,0-.13-.02-.19-.03-.27-.03-.53-.04-.81-.04-.33,0-.65.03-.96.07-.09.01-.18.03-.27.04-.24.04-.48.09-.71.15-.08.02-.15.04-.23.06-.3.09-.59.19-.87.31-.05.02-.1.05-.15.07-.23.11-.46.22-.67.35-.08.05-.15.09-.23.14-.21.13-.42.28-.62.43-.04.03-.09.06-.13.1-.23.19-.45.39-.66.61-.05.05-.1.11-.15.17-.16.17-.31.35-.45.54-.05.07-.1.14-.15.21-.17.25-.34.5-.48.76,0,0,0,0,0,0,0,0,0,0,0,0-.59,1.09-.93,2.34-.93,3.66s.34,2.57.93,3.66c0,0,0,0,0,0,0,0,0,0,0,0,.14.27.31.52.48.76.05.07.1.14.15.21.14.19.29.37.45.54.05.06.1.11.15.17.21.22.43.42.66.61.04.04.09.07.13.1.2.15.4.3.61.43.08.05.15.09.23.14.22.13.44.24.67.35.05.02.1.05.15.07.28.12.57.22.87.31.08.02.15.04.23.06.23.06.47.11.71.15.09.01.18.03.27.04.32.04.64.07.96.07.27,0,.54-.02.81-.04.07,0,.13-.02.19-.03.2-.03.4-.05.59-.1.06-.01.13-.03.19-.05.19-.05.38-.09.57-.15.06-.02.12-.05.18-.07.18-.06.36-.13.54-.21.01,0,.03,0,.04-.01,0,0,0,0,0,0,2.69-1.19,4.57-3.88,4.57-7.02s-1.88-5.82-4.57-7.02ZM182.1,80.88c-2.36-1.31-3.97-3.81-3.97-6.7s1.61-5.39,3.97-6.7c2.71,1.02,4.65,3.64,4.65,6.7s-1.94,5.68-4.65,6.7Z"/>
      </g>
      <g>
        <path d="M221.19,64.11v16.87h-9.22v-20.69h-12.81v26.97h34.83v-23.15h-12.81ZM211.46,81.49h5.37v2.2h-13.69v-22.88h3.21v20.69h5.12ZM199.68,86.75v-25.94h2.95v23.4h14.21v2.55h-17.15ZM221.71,64.62h2.95v22.13h-2.95v-22.13ZM225.16,86.75v-22.13h3.21v22.13h-3.21Z"/>
        <path d="M228.37,54.63h-7.18v7.41h12.81v-7.41h-5.63ZM221.71,55.15h2.95v6.39h-2.95v-6.39ZM225.16,61.54v-6.39h3.21v6.39h-3.21Z"/>
      </g>
    </g>
    <path d="M58.7,87.41h-15.06c7.7-2.28,13.32-9.41,13.32-17.85,0-10.28-8.34-18.62-18.62-18.62s-18.62,8.34-18.62,18.62c0,8.44,5.62,15.57,13.32,17.85h-15.06v2.02h1.78c-.63.31-1.07.96-1.07,1.71,0,1.05.85,1.9,1.9,1.9s1.9-.85,1.9-1.9c0-.75-.44-1.4-1.07-1.71h2.73c-.63.31-1.07.96-1.07,1.71,0,1.05.85,1.9,1.9,1.9s1.9-.85,1.9-1.9c0-.75-.44-1.4-1.07-1.71h2.73c-.63.31-1.07.96-1.07,1.71,0,1.05.85,1.9,1.9,1.9s1.9-.85,1.9-1.9c0-.75-.44-1.4-1.07-1.71h2.73c-.63.31-1.07.96-1.07,1.71,0,1.05.85,1.9,1.9,1.9s1.9-.85,1.9-1.9c0-.75-.44-1.4-1.07-1.71h7.41c-.63.31-1.07.96-1.07,1.71,0,1.05.85,1.9,1.9,1.9s1.9-.85,1.9-1.9c0-.75-.44-1.4-1.07-1.71h2.73c-.63.31-1.07.96-1.07,1.71,0,1.05.85,1.9,1.9,1.9s1.9-.85,1.9-1.9c0-.75-.44-1.4-1.07-1.71h2.73c-.63.31-1.07.96-1.07,1.71,0,1.05.85,1.9,1.9,1.9s1.9-.85,1.9-1.9c0-.75-.44-1.4-1.07-1.71h2.73c-.63.31-1.07.96-1.07,1.71,0,1.05.85,1.9,1.9,1.9s1.9-.85,1.9-1.9c0-.75-.44-1.4-1.07-1.71h1.78v-2.02ZM45.47,86.02c-.2-.09-.41-.17-.61-.25,1.67-1.97,2.95-3.9,3.9-5.78,1.11.27,2.25.61,3.4.99-1.79,2.16-4.08,3.9-6.69,5.03ZM32.89,85.61c-1.66-1.94-2.94-3.84-3.89-5.68,1.36-.33,2.93-.63,4.69-.85.48,1.88,1.14,3.81,2.01,5.78-1.08.19-2.02.46-2.81.74ZM26.85,73.83c1.66-.29,3.61-.56,5.82-.75.15,1.76.42,3.6.88,5.5-1.8.22-3.41.54-4.8.88-.96-1.95-1.57-3.84-1.91-5.63ZM28.25,79.59c-1.67.44-2.99.89-3.85,1.23-1.36-1.68-2.42-3.62-3.11-5.72.78-.23,2.53-.71,5.05-1.17.34,1.8.95,3.7,1.9,5.67ZM26.74,66.92c1.68.29,3.66.57,5.89.76-.1,1.54-.11,3.18,0,4.89-2.22.19-4.2.47-5.87.76-.38-2.33-.33-4.49-.02-6.41ZM27.5,63.72c.34-1.06.75-2.05,1.18-2.95,1.39.34,3.02.66,4.84.89-.38,1.64-.7,3.49-.86,5.52-2.21-.19-4.18-.47-5.84-.76.18-.96.41-1.87.68-2.7ZM26.32,66.32c-2.87-.53-4.75-1.08-5.33-1.26.56-2.15,1.51-4.14,2.76-5.9.77.32,2.3.91,4.43,1.46-.43.9-.82,1.87-1.16,2.91-.28.86-.52,1.79-.7,2.78ZM35.71,55.16c-.56,1.22-1.39,3.28-2.06,5.99-1.78-.22-3.36-.53-4.73-.86,1.64-3.25,3.59-5.37,4.05-5.85.78.27,1.7.54,2.75.72ZM44.29,54.47c.5.53,2.43,2.66,4.05,5.89-1.63.38-3.22.65-4.76.83-.67-2.71-1.5-4.78-2.06-6.01.89-.15,1.82-.39,2.77-.71ZM49.71,63.7c.28.85.52,1.79.7,2.78-2.01.34-3.97.57-5.85.72-.16-2.02-.47-3.87-.85-5.51,1.57-.18,3.19-.46,4.87-.86.42.88.81,1.84,1.14,2.86ZM49.08,60.71c1.34-.33,2.7-.74,4.09-1.24,1.21,1.76,2.1,3.75,2.62,5.89-1.65.42-3.28.76-4.87,1.04-.18-1.03-.43-1.99-.72-2.87-.32-1-.71-1.94-1.12-2.81ZM50.47,73.27c-2.02-.34-3.99-.57-5.88-.73.11-1.69.1-3.3,0-4.83,1.9-.15,3.87-.39,5.9-.73.29,1.89.34,4-.02,6.28ZM48.49,79.4c-1.66-.39-3.27-.67-4.82-.85.46-1.9.74-3.74.88-5.5,1.87.15,3.82.39,5.83.72-.34,1.79-.94,3.68-1.89,5.63ZM50.89,73.86c1.51.26,3.05.59,4.61.97-.65,2.1-1.67,4.04-2.99,5.73-1.19-.4-2.36-.75-3.5-1.04.95-1.97,1.55-3.86,1.89-5.67ZM33.14,67.72c1.76.14,3.66.22,5.69.22,1.67,0,3.43-.06,5.26-.19.1,1.5.11,3.08,0,4.75-4.04-.3-7.74-.23-10.94.03-.12-1.68-.1-3.29,0-4.81ZM33.17,67.21c.16-2.02.48-3.87.86-5.5,1.47.17,3.06.27,4.75.27,1.4,0,2.88-.07,4.4-.23.38,1.63.7,3.47.86,5.49-4.02.3-7.69.22-10.87-.03ZM44.04,73.01c-.14,1.76-.42,3.59-.88,5.49-3.35-.35-6.42-.27-9.09.03-.46-1.9-.74-3.73-.89-5.48,3.18-.25,6.85-.32,10.86-.03ZM40.99,55.26c.55,1.18,1.39,3.24,2.08,5.98-3.28.34-6.29.25-8.91-.04.68-2.73,1.53-4.79,2.08-5.97.76.11,1.57.18,2.44.18.74,0,1.52-.05,2.32-.16ZM36.21,84.78c-.87-1.96-1.53-3.89-2.01-5.76,2.6-.28,5.58-.36,8.83-.03-.48,1.87-1.14,3.8-2.02,5.77-1.76-.25-3.38-.2-4.8,0ZM43.54,79.05c1.52.18,3.09.44,4.71.82-.95,1.85-2.23,3.76-3.9,5.71-.97-.34-1.91-.58-2.82-.74.87-1.98,1.53-3.91,2.01-5.8ZM55.64,74.34c-1.58-.39-3.14-.72-4.66-.98.38-2.34.32-4.51.02-6.46,1.6-.28,3.24-.62,4.9-1.04.25,1.2.39,2.44.39,3.71,0,1.65-.23,3.25-.65,4.77ZM52.85,59.03c-1.36.48-2.7.88-4,1.21-1.52-3.08-3.34-5.2-4.04-5.96.54-.2,1.08-.44,1.63-.71,2.54,1.29,4.74,3.17,6.41,5.46ZM45.86,53.28c-6.97,3.23-12.77.83-14.66-.16,2.19-.96,4.61-1.49,7.16-1.49,2.68,0,5.22.59,7.5,1.65ZM30.61,53.39c.36.2.98.53,1.83.86-.67.72-2.49,2.83-4.03,5.92-2.05-.53-3.55-1.09-4.35-1.42,1.72-2.27,3.96-4.11,6.55-5.35ZM20.87,65.57c.63.2,2.52.74,5.36,1.26-.31,1.98-.37,4.2.02,6.59-2.55.47-4.32.95-5.11,1.19-.47-1.6-.73-3.29-.73-5.04,0-1.37.16-2.71.46-4ZM24.75,81.23c.87-.33,2.13-.77,3.74-1.18.96,1.87,2.23,3.79,3.89,5.74-.31.12-.59.24-.83.36-2.64-1.09-4.97-2.79-6.8-4.92ZM32.22,86.42c2.31-.99,7.01-2.3,12.57-.12-1.49.57-3.06.96-4.71,1.12h-3.47c-1.53-.15-3-.49-4.4-.99Z"/>
  </g>
  <rect class="st0" width="252" height="144"/>
</svg>