<?xml version="1.0" encoding="UTF-8"?>
<svg id="Layer_1" xmlns="http://www.w3.org/2000/svg" version="1.1" viewBox="0 0 252 252">
  <!-- Generator: Adobe Illustrator 29.8.1, SVG Export Plug-In . SVG Version: 2.1.1 Build 2)  -->
  <defs>
    <style>
      .st0 {
        fill: none;
      }
    </style>
  </defs>
  <g>
    <g>
      <g>
        <path d="M116.63,65.59c1.9-.3,2.32-2,2.05-3.76-.3-1.87-1.29-3.22-3.13-2.93-1.79.28-2.35,1.78-2.04,3.71.3,1.93,1.38,3.26,3.13,2.98Z"/>
        <path d="M131.06,59.59c.03-.81-.48-1.29-1.53-1.34l-1.86-.08-.11,2.55,1.81.08c1.18.05,1.66-.38,1.7-1.22Z"/>
        <path d="M162.04,68.21h-.01c-.73.7-1.99,1.77-3.43,3l2.32,1.45c.52-2.17.85-3.55,1.12-4.44Z"/>
        <path d="M138.51,186.03l-1.83.36.49,2.51,1.78-.35c1.16-.23,1.52-.76,1.36-1.58-.16-.8-.77-1.14-1.81-.94Z"/>
        <path d="M149.41,182.54c.15,1.01.29,2.65.45,4.53l2.53-1.05c-1.46-1.68-2.4-2.75-2.97-3.49h-.01Z"/>
        <path d="M138.48,159.37l24.31-33.37-24.42-33.53h51.48c-3.33-6.3-7.62-12.13-12.79-17.3-13.58-13.58-31.63-21.05-50.83-21.05s-37.25,7.48-50.83,21.05c-5.18,5.18-9.47,11.01-12.79,17.3h51.04l-24.42,33.53,24.31,33.37h-51.01c3.34,6.35,7.65,12.24,12.87,17.46,13.58,13.58,31.63,21.05,50.83,21.05s37.25-7.48,50.83-21.05c5.22-5.22,9.53-11.1,12.87-17.46h-51.44ZM164.08,67.64l-2.29,10.37-1.93-1.2.53-2.4-3.1-1.94-1.89,1.55-1.8-1.13,8.18-6.69,2.31,1.44ZM152.57,61.61l1.99.85-3.94,9.2-1.99-.85,3.94-9.2ZM137.15,62.33c.72-2.92,2.97-4.7,6.03-3.94,2.5.62,3.62,2.4,3.45,4.11l-2.1-.52c-.04-.7-.36-1.6-1.78-1.95-1.99-.49-2.98,1.03-3.4,2.75-.41,1.67-.17,3.48,1.75,3.96,1.8.45,2.44-.72,2.65-1.59l.02-.09-2.13-.53.43-1.72,4.19,1.04-1.35,5.43-1.54-.38c0-.32.02-.67.08-1-.72.59-1.76.75-3.11.42-2.82-.7-3.87-3.22-3.18-5.99ZM125.63,56.36l4.39.19c2.18.09,3.3,1.34,3.24,2.89-.06,1.34-.82,2.04-1.55,2.3.49.2,1.21.75,1.14,2.54l-.02.49c-.03.67-.06,1.44.06,1.91l-2.05-.09c-.16-.44-.16-1.19-.11-2.25v-.15c.05-1.09-.2-1.62-1.81-1.69l-1.42-.06-.17,4-2.11-.09.43-10ZM97.54,73.73c-.23-.22-.46-.48-.66-.75-.08.93-.7,1.78-1.89,2.51-2.47,1.52-5.01.5-6.5-1.93-1.57-2.56-1.27-5.41,1.42-7.06,2.19-1.35,4.25-.9,5.34.42l-1.84,1.13c-.53-.46-1.39-.86-2.64-.1-1.75,1.07-1.35,2.85-.43,4.35.9,1.47,2.36,2.56,4.05,1.52,1.58-.97,1.19-2.24.73-3l-.05-.08-1.87,1.15-.93-1.51,3.68-2.26,2.93,4.77-1.35.83ZM102.41,71.31l-3.48-9.38,6.65-2.47.62,1.66-4.68,1.74.75,2.01,4.49-1.67.62,1.66-4.49,1.67.89,2.38,4.95-1.84.38,1.75-6.68,2.48ZM111.29,63c-.45-2.88.99-5.37,4.06-5.85,2.89-.46,5.04,1.28,5.52,4.31.43,2.75-.85,5.38-4.06,5.89-3.1.49-5.08-1.51-5.53-4.34ZM110.08,142.25l-7.42-7.87h-6.42v-16.83h8.62l10.88-10.77h14.67l-1.96,2.11h-3.58l-9.01,14.85,2.7,5.73h5.73l4.8-6.69h3.07l1.48,3.44-7.79,12.86h-7.39l-2.92,3.18h-5.43ZM96.74,181.46l-1.83-1.15c.23-.76.19-1.7-.96-2.42-1.51-.95-2.95.04-3.92,1.58-.9,1.43-1.34,3.26.29,4.29,1.2.75,2.08.19,2.55-.21l1.84,1.16c-1.33,1.37-3.25,1.77-5.37.43-2.69-1.69-2.76-4.39-1.25-6.8,1.46-2.32,4.08-3.58,6.81-1.86,2.26,1.42,2.52,3.43,1.83,4.98ZM107.41,184.5l-4.65-1.82-.78,2,4.46,1.75-.65,1.65-4.46-1.75-.93,2.37,4.92,1.93-.89,1.56-6.63-2.6,3.65-9.32,6.61,2.59-.65,1.65ZM118.07,195.21l-2.5-.45c-.71-2.11-2.41-7.15-2.69-8.37h-.03c-.08.87-.42,2.9-.74,4.66l-.54,3-1.94-.35,1.77-9.85,2.64.47c.83,2.43,2.39,6.83,2.65,7.98h.03c.07-1.04.38-2.75.67-4.37l.52-2.92,1.93.35-1.77,9.85ZM123.51,141.28h3.58l9.01-14.85-2.29-5.73h-6.14l-4.8,6.69h-2.85l-1.69-3.44,7.79-12.86h7.39l2.92-3.18h5.43l8.92,9.6h5.16v16.84h-10.37l-9.36,9.03h-14.67l1.96-2.11ZM128.35,195.52l-2.17.04-.13-8.23-3.04.05-.03-1.77,8.23-.13.03,1.77-3.03.05.13,8.23ZM141.73,193.84c-.26-.39-.43-1.12-.64-2.16l-.03-.14c-.21-1.07-.58-1.53-2.17-1.22l-1.4.28.77,3.93-2.07.41-1.94-9.82,4.31-.85c2.14-.42,3.53.53,3.82,2.05.26,1.32-.32,2.17-.97,2.6.52.08,1.36.45,1.7,2.2l.1.48c.13.66.28,1.41.51,1.84l-2.01.4ZM155.15,189.31l-1.64-1.82-3.38,1.4.16,2.43-1.97.81-.69-10.54,2.51-1.04,7.1,7.89-2.1.87ZM161.45,186.05l-5.45-8.4,1.82-1.18,4.48,6.91,4.18-2.71.76,1.62-5.79,3.76Z"/>
      </g>
      <path d="M126.22,200.32c-29.05,0-54.2-16.66-66.42-40.95h-4.76c12.55,26.73,39.71,45.24,71.19,45.24s58.64-18.51,71.19-45.24h-4.76c-12.23,24.29-37.38,40.95-66.42,40.95Z"/>
      <path d="M126.22,51.68c28.99,0,54.09,16.59,66.35,40.8h4.77c-12.58-26.64-39.69-45.08-71.12-45.08s-58.53,18.44-71.12,45.08h4.77c12.26-24.2,37.36-40.8,66.35-40.8Z"/>
    </g>
    <g>
      <path d="M208.33,94.93l22.63,31.07-22.52,30.91h-65.12l21.46-29.46,1.06-1.45-1.06-1.45-21.58-29.62h65.12M209.58,92.47h-71.21l24.42,33.53-24.31,33.37h71.21l24.31-33.37-24.42-33.53h0Z"/>
      <g>
        <path d="M171.47,125.96c0,10.77,8.38,19.57,18.99,20.28v-40.55c-10.6.71-18.99,9.51-18.99,20.28Z"/>
        <path d="M207.58,119.25h3.47c-2.64-7.55-9.62-13.07-17.96-13.57v3.22c6.51.48,12.03,4.61,14.49,10.36Z"/>
        <path d="M207.58,132.67h3.47c-2.64,7.55-9.62,13.07-17.96,13.57v-3.22c6.51-.48,12.03-4.61,14.49-10.36Z"/>
      </g>
    </g>
    <g>
      <path d="M108.8,94.93l-21.58,29.62-1.06,1.45,1.06,1.45,21.46,29.46H43.56l-22.52-30.91,22.63-31.07h65.12M113.63,92.47H42.42l-24.42,33.53,24.31,33.37h71.21l-24.31-33.37,24.42-33.53h0Z"/>
      <g>
        <path d="M38.99,125.96c0,10.77,8.31,19.57,18.81,20.28v-40.55c-10.5.71-18.81,9.51-18.81,20.28Z"/>
        <path d="M60.41,127.19v19.06c10.16-.63,18.28-8.82,18.88-19.06h-18.88Z"/>
        <path d="M74.76,119.25h3.44c-2.62-7.55-9.53-13.07-17.79-13.57v3.22c6.45.48,11.92,4.61,14.35,10.36Z"/>
      </g>
    </g>
  </g>
  <rect class="st0" width="252" height="252"/>
</svg>