<?xml version="1.0" encoding="UTF-8"?>
<svg id="Layer_1" xmlns="http://www.w3.org/2000/svg" version="1.1" viewBox="0 0 252 144">
  <!-- Generator: Adobe Illustrator 29.8.1, SVG Export Plug-In . SVG Version: 2.1.1 Build 2)  -->
  <defs>
    <style>
      .st0 {
        fill: none;
      }

      .st1 {
        fill-rule: evenodd;
      }
    </style>
  </defs>
  <g>
    <g>
      <g>
        <path class="st1" d="M230.28,116.4c-2.06,0-3.72,1.68-3.72,3.72s1.66,3.73,3.72,3.73,3.72-1.66,3.72-3.73-1.64-3.72-3.72-3.72h0ZM230.28,123.4c-1.8,0-3.26-1.45-3.26-3.28s1.46-3.26,3.26-3.26,3.28,1.44,3.28,3.26-1.45,3.28-3.28,3.28h0Z"/>
        <path class="st1" d="M232.22,119.15c0-.36-.18-.73-.48-.9-.32-.19-.67-.21-1.02-.21h-1.81v4.17h.51v-1.94h.93l1.21,1.94h.58l-1.25-1.94h0c.73-.02,1.33-.31,1.33-1.13h0ZM230.19,119.89h-.78v-1.48h1.19c.52,0,1.09.08,1.09.73,0,.85-.9.76-1.5.76h0Z"/>
      </g>
      <g>
        <path d="M32.76,104.76v-4.39h11.33v10.37c-1.1,1.07-2.7,2-4.79,2.81-2.09.81-4.21,1.22-6.35,1.22-2.72,0-5.1-.57-7.12-1.71s-3.55-2.78-4.56-4.9c-1.02-2.13-1.53-4.44-1.53-6.94,0-2.71.57-5.12,1.7-7.23s2.8-3.72,4.99-4.85c1.67-.86,3.75-1.3,6.23-1.3,3.23,0,5.76.68,7.57,2.03,1.82,1.36,2.99,3.23,3.51,5.62l-5.22.98c-.37-1.28-1.06-2.29-2.07-3.03s-2.28-1.11-3.79-1.11c-2.3,0-4.12.73-5.48,2.18-1.36,1.46-2.03,3.62-2.03,6.48,0,3.09.69,5.41,2.06,6.95,1.37,1.55,3.17,2.32,5.4,2.32,1.1,0,2.21-.22,3.31-.65,1.11-.43,2.06-.96,2.85-1.57v-3.3h-6.02Z"/>
        <path d="M48.94,114.33v-26.04h19.3v4.4h-14.05v5.77h13.07v4.39h-13.07v7.09h14.55v4.39h-19.8Z"/>
        <path d="M74.04,114.33v-26.04h5.11l10.66,17.39v-17.39h4.88v26.04h-5.27l-10.5-16.98v16.98h-4.88Z"/>
        <path d="M99.49,105.86l5.11-.5c.31,1.72.93,2.98,1.87,3.78s2.21,1.21,3.81,1.21c1.69,0,2.97-.36,3.83-1.07.86-.72,1.29-1.55,1.29-2.51,0-.62-.18-1.14-.54-1.57-.36-.43-.99-.81-1.89-1.13-.62-.21-2.02-.59-4.21-1.14-2.82-.7-4.8-1.56-5.93-2.58-1.6-1.43-2.4-3.18-2.4-5.24,0-1.33.38-2.57,1.13-3.72.75-1.15,1.83-2.03,3.25-2.64,1.41-.6,3.12-.91,5.12-.91,3.27,0,5.73.72,7.38,2.15s2.52,3.34,2.6,5.74l-5.26.23c-.23-1.34-.71-2.3-1.45-2.89-.74-.59-1.85-.88-3.33-.88s-2.72.31-3.59.94c-.56.4-.83.94-.83,1.62,0,.62.26,1.14.78,1.58.66.56,2.27,1.14,4.83,1.74s4.45,1.23,5.67,1.87,2.18,1.53,2.88,2.65,1.04,2.5,1.04,4.15c0,1.49-.41,2.89-1.24,4.19-.83,1.3-2,2.27-3.52,2.9-1.52.63-3.4.95-5.67.95-3.29,0-5.82-.76-7.58-2.28-1.76-1.52-2.82-3.74-3.16-6.65Z"/>
        <path d="M131.65,114.33v-21.63h-7.73v-4.4h20.69v4.4h-7.71v21.63h-5.26Z"/>
        <path d="M148.3,114.33v-26.04h19.3v4.4h-14.05v5.77h13.07v4.39h-13.07v7.09h14.55v4.39h-19.8Z"/>
        <path d="M196.68,114.33h-5.72l-2.27-5.91h-10.41l-2.15,5.91h-5.58l10.14-26.04h5.56l10.42,26.04ZM187,104.03l-3.59-9.66-3.52,9.66h7.1Z"/>
        <path d="M200.25,114.33v-26.04h7.87l4.72,17.76,4.67-17.76h7.89v26.04h-4.88v-20.49l-5.17,20.49h-5.06l-5.15-20.49v20.49h-4.88Z"/>
      </g>
    </g>
    <g>
      <path d="M173.36,66.86s4.88,13.61,25.31,13.61c28.06,0,31.29-21.24,31.29-21.24,0,0-22.39,13-38.93,0-10.73-8.44-.91-30.22,17.16-23.33,0,0-1.15-14.85-19.64-14.88-12.86-.02-20.46,10.37-25.3,18.14-4.35,6.99-9.36,19.15-16.8,23.54,0,0,8.91,4.92,26.91,4.16Z"/>
      <path d="M117.08,68.03s11.15,11.42,28.08,11.85c18.41.47,25.92-10.29,25.92-10.29,0,0-25.16,2.24-36.16-11.2s7.02-30.61,21.2-23.04c0,0-2.18-15.14-22.54-15.14-15.07,0-22.96,13.92-25.05,18.95s-7.87,19.33-15.31,23.72c0,0,9.67,7.04,23.86,5.16Z"/>
      <path d="M18,60.74s2.36,19.27,22.27,19.27,23.84-11.42,23.84-11.42c0,0,10.64,13.43,26.69,12.7,18.39-.83,23.26-10.28,23.26-10.28,0,0-18.83,1.6-29.83-11.85s4-29.4,18.27-24.12c0,0-3.81-15.85-21.87-14.84s-22.96,13.92-25.05,18.95-6.16,17.34-13.59,21.73c-7.44,4.39-15,4.34-23.98-.14Z"/>
    </g>
  </g>
  <rect class="st0" width="252" height="144"/>
</svg>