<?xml version="1.0" encoding="UTF-8"?>
<svg id="Layer_1" xmlns="http://www.w3.org/2000/svg" version="1.1" viewBox="0 0 252 144">
  <!-- Generator: Adobe Illustrator 29.8.1, SVG Export Plug-In . SVG Version: 2.1.1 Build 2)  -->
  <defs>
    <style>
      .st0 {
        fill: none;
      }
    </style>
  </defs>
  <g>
    <path d="M233.13,84.06h-9.18c-.26-.03-.52-.04-.78-.04s-.52.02-.78.04h-5.51c1.77-2.19,4.31-2.26,4.48-2.26h11.77c.48,0,.87-.39.87-.87s-.39-.87-.87-.87h-11.77s0,0,0,0c0,0,0,0,0,0h-20.75s0,0,0,0h0s-36.14,0-36.14,0h0s0,0,0,0h-20.74s0,0,0,0h0s-36.14,0-36.14,0h0s0,0-.01,0h-20.73s-.01,0-.01,0h0s-36.14,0-36.14,0h0s-.01,0-.02,0h-20.72s-.02,0-.02,0h0s-11.06,0-11.06,0c-.48,0-.87.39-.87.87s.39.87.87.87h11.07c.25,0,2.73.11,4.47,2.26h-5.02c-.26-.03-.52-.04-.78-.04s-.52.02-.78.04h-8.96c-.48,0-.87.39-.87.87s.39.87.87.87h4.97c-1.56,1.34-2.56,3.33-2.56,5.55,0,4.04,3.29,7.33,7.33,7.33,3.16,0,5.86-2.02,6.88-4.84h10.12c1.02,2.82,3.72,4.84,6.88,4.84,4.04,0,7.33-3.29,7.33-7.33,0-2.22-.99-4.2-2.56-5.55h23.46c-1.56,1.34-2.56,3.33-2.56,5.55,0,4.04,3.29,7.33,7.33,7.33,3.16,0,5.86-2.02,6.88-4.84h10.12c1.02,2.82,3.72,4.84,6.88,4.84,4.04,0,7.33-3.29,7.33-7.33,0-2.22-.99-4.2-2.56-5.55h23.46c-1.56,1.34-2.56,3.33-2.56,5.55,0,4.04,3.29,7.33,7.33,7.33,3.16,0,5.86-2.02,6.88-4.84h10.12c1.02,2.82,3.72,4.84,6.88,4.84,4.04,0,7.33-3.29,7.33-7.33,0-2.22-.99-4.2-2.56-5.55h23.46c-1.56,1.34-2.56,3.33-2.56,5.55,0,4.04,3.29,7.33,7.33,7.33,3.16,0,5.86-2.02,6.88-4.84h10.12c1.02,2.82,3.72,4.84,6.88,4.84,4.04,0,7.33-3.29,7.33-7.33,0-2.22-.99-4.2-2.56-5.55h5.19c.48,0,.87-.39.87-.87s-.39-.87-.87-.87ZM218.4,85.8c-.97.83-1.72,1.92-2.14,3.15h-1.03c.08-1.26.31-2.3.66-3.15h2.52ZM204.06,85.8h2.03c.34.85.58,1.89.66,3.15h-.54c-.43-1.23-1.17-2.32-2.14-3.15ZM208.48,88.95c-.06-1.21-.26-2.25-.55-3.15h6.09c-.29.9-.48,1.94-.55,3.15h-5ZM211.05,81.8v2.26h-3.86c-.55-.97-1.22-1.7-1.93-2.26h5.79ZM159.36,88.95h-1.03c.08-1.26.31-2.3.66-3.15h2.52c-.97.83-1.72,1.92-2.14,3.15ZM156.59,88.95h-5c-.06-1.21-.26-2.25-.55-3.15h6.09c-.29.9-.48,1.94-.55,3.15ZM147.16,85.8h2.03c.34.85.58,1.89.66,3.15h-.54c-.43-1.23-1.17-2.32-2.14-3.15ZM154.15,81.8v2.26h-3.86c-.55-.97-1.22-1.7-1.93-2.26h5.79ZM102.47,88.95h-1.03c.08-1.26.31-2.3.66-3.15h2.52c-.97.83-1.72,1.92-2.14,3.15ZM99.7,88.95h-5c-.06-1.21-.26-2.25-.55-3.15h6.09c-.29.9-.48,1.94-.55,3.15ZM90.27,85.8h2.03c.34.85.58,1.89.66,3.15h-.54c-.43-1.23-1.17-2.32-2.14-3.15ZM97.26,81.8v2.26h-3.86c-.55-.97-1.22-1.7-1.93-2.26h5.79ZM45.58,88.95h-1.03c.08-1.26.31-2.3.66-3.15h2.52c-.97.83-1.72,1.92-2.14,3.15ZM42.8,88.95h-5c-.06-1.21-.26-2.25-.55-3.15h6.09c-.29.9-.48,1.94-.55,3.15ZM34.58,81.8h5.79s0,2.26,0,2.26h-3.86c-.55-.97-1.22-1.7-1.93-2.26ZM35.41,85.8c.34.85.58,1.89.66,3.15h-.54c-.43-1.23-1.17-2.32-2.14-3.15h2.03ZM29.27,85.8c.99.12,1.9.5,2.67,1.07l-3.46,3.4-3.35-3.29c.79-.63,1.76-1.05,2.82-1.18h1.32ZM23.95,88.25l3.29,3.23-3.17,3.12c-.66-.92-1.05-2.04-1.05-3.25,0-1.14.35-2.21.94-3.09ZM25.28,95.83l3.19-3.14,3.31,3.25c-.9.63-2,.99-3.18.99-1.25,0-2.39-.41-3.32-1.1ZM33.04,94.74l-3.32-3.26,3.44-3.38c.66.92,1.04,2.03,1.04,3.24,0,1.28-.44,2.45-1.16,3.4ZM35.92,91.53c0-.06,0-.12,0-.18,0-.22-.01-.44-.03-.66h9.3c-.02.22-.03.44-.03.66,0,.06,0,.12,0,.18h-9.25ZM47.84,88.25l3.29,3.23-3.17,3.12c-.66-.92-1.05-2.04-1.05-3.25,0-1.14.35-2.21.94-3.09ZM49.17,95.83l3.19-3.14,3.31,3.25c-.9.63-2,.99-3.18.99-1.25,0-2.39-.41-3.32-1.1ZM58.09,91.35c0,1.28-.44,2.45-1.16,3.4l-3.32-3.26,3.44-3.38c.66.92,1.04,2.03,1.04,3.24ZM55.83,86.87l-3.46,3.4-3.35-3.29c.79-.63,1.76-1.05,2.82-1.18h1.32c.99.12,1.9.5,2.67,1.07ZM53.28,84.06c-.26-.03-.52-.04-.78-.04s-.52.02-.78.04h-5.51c1.74-2.16,4.22-2.26,4.47-2.26h36.16c.23,0,2.73.1,4.47,2.26h-5.02c-.26-.03-.52-.04-.78-.04s-.52.02-.78.04h-31.44ZM86.16,85.8c.99.12,1.9.5,2.67,1.07l-3.46,3.4-3.35-3.29c.79-.63,1.76-1.05,2.82-1.18h1.32ZM80.84,88.25l3.29,3.23-3.17,3.12c-.66-.92-1.05-2.04-1.05-3.25,0-1.14.35-2.21.94-3.09ZM82.18,95.83l3.19-3.14,3.31,3.25c-.9.63-2,.99-3.18.99-1.25,0-2.39-.41-3.32-1.11ZM89.93,94.74l-3.32-3.26,3.44-3.38c.66.92,1.04,2.03,1.04,3.24,0,1.28-.44,2.45-1.16,3.4ZM92.82,91.53c0-.06,0-.12,0-.18,0-.22-.01-.44-.03-.66h9.3c-.02.22-.03.44-.03.66,0,.06,0,.12,0,.18h-9.25ZM104.73,88.25l3.29,3.23-3.17,3.12c-.66-.92-1.05-2.04-1.05-3.25,0-1.14.35-2.21.94-3.09ZM106.06,95.83l3.19-3.14,3.31,3.25c-.9.63-2,.99-3.18.99-1.25,0-2.39-.41-3.32-1.11ZM114.98,91.35c0,1.28-.44,2.45-1.16,3.4l-3.32-3.26,3.44-3.38c.66.92,1.04,2.03,1.04,3.24ZM112.72,86.87l-3.46,3.4-3.35-3.29c.79-.63,1.76-1.05,2.82-1.18h1.32c.99.12,1.9.5,2.67,1.07ZM110.17,84.06c-.26-.03-.52-.04-.78-.04s-.52.02-.78.04h-5.51c1.75-2.17,4.25-2.26,4.47-2.26h36.15c.2,0,2.72.08,4.47,2.26h-5.02c-.26-.03-.52-.04-.78-.04s-.52.02-.78.04h-31.44ZM143.05,85.8c.99.12,1.91.5,2.67,1.07l-3.46,3.4-3.35-3.29c.79-.63,1.76-1.05,2.82-1.18h1.32ZM137.74,88.25l3.29,3.23-3.17,3.12c-.66-.92-1.05-2.04-1.05-3.25,0-1.14.35-2.21.94-3.09ZM139.07,95.83l3.19-3.14,3.31,3.25c-.9.63-2,.99-3.18.99-1.25,0-2.39-.41-3.32-1.11ZM146.82,94.74l-3.32-3.26,3.44-3.38c.66.92,1.04,2.03,1.04,3.24,0,1.28-.44,2.45-1.16,3.4ZM149.71,91.53c0-.06,0-.12,0-.18,0-.22-.01-.44-.03-.66h9.3c-.02.22-.03.44-.03.66,0,.06,0,.12,0,.18h-9.25ZM161.63,88.25l3.29,3.23-3.17,3.12c-.66-.92-1.05-2.04-1.05-3.25,0-1.14.35-2.21.94-3.09ZM162.96,95.83l3.19-3.14,3.31,3.25c-.9.63-2,.99-3.18.99-1.25,0-2.39-.41-3.32-1.11ZM171.87,91.35c0,1.28-.44,2.45-1.16,3.4l-3.32-3.26,3.44-3.38c.66.92,1.05,2.03,1.05,3.24ZM169.61,86.87l-3.46,3.4-3.35-3.29c.79-.63,1.76-1.05,2.82-1.18h1.32c.99.12,1.91.5,2.67,1.07ZM167.06,84.06c-.26-.03-.52-.04-.78-.04s-.52.02-.78.04h-5.51c1.76-2.18,4.28-2.26,4.48-2.26h36.14c.18,0,2.72.07,4.48,2.26h-5.02c-.26-.03-.52-.04-.78-.04s-.52.02-.78.04h-31.45ZM199.95,85.8c.99.12,1.91.5,2.67,1.07l-3.46,3.4-3.35-3.29c.79-.63,1.76-1.05,2.82-1.18h1.32ZM194.63,88.25l3.29,3.23-3.17,3.12c-.66-.92-1.05-2.04-1.05-3.25,0-1.14.35-2.21.94-3.09ZM195.96,95.83l3.19-3.14,3.31,3.25c-.9.63-2,.99-3.18.99-1.25,0-2.39-.41-3.32-1.11ZM203.72,94.74l-3.32-3.26,3.44-3.38c.66.92,1.05,2.03,1.05,3.24,0,1.28-.44,2.45-1.16,3.4ZM206.6,91.53c0-.06,0-.12,0-.18,0-.22-.01-.44-.03-.66h9.3c-.02.22-.03.44-.03.66,0,.06,0,.12,0,.18h-9.25ZM218.52,88.25l3.29,3.23-3.17,3.12c-.66-.92-1.05-2.04-1.05-3.25,0-1.14.35-2.21.94-3.09ZM219.85,95.83l3.19-3.14,3.31,3.25c-.9.63-2,.99-3.18.99-1.25,0-2.39-.41-3.32-1.11ZM228.77,91.35c0,1.28-.44,2.45-1.16,3.4l-3.32-3.26,3.44-3.38c.66.92,1.05,2.03,1.05,3.24ZM226.5,86.87l-3.46,3.4-3.35-3.29c.79-.63,1.76-1.05,2.82-1.18h1.32c.99.12,1.91.5,2.67,1.07Z"/>
    <g>
      <path d="M37.39,72.86c-.84.07-.92.12-.92.9v3.71c0,.78.09.81.92.89v.26h-2.71v-.26c.84-.09.92-.11.92-.89v-1.85h-3.45v1.85c0,.77.08.8.91.89v.26h-2.7v-.26c.82-.08.91-.11.91-.89v-3.71c0-.78-.09-.82-.91-.9v-.26h2.7v.26c-.81.06-.91.13-.91.9v1.47h3.45v-1.47c0-.77-.11-.83-.92-.9v-.26h2.71v.26Z"/>
      <path d="M43.88,77.15c-.06.24-.35,1.19-.46,1.47h-5.16v-.26c.99-.06,1.06-.15,1.06-.91v-3.66c0-.82-.12-.87-.91-.94v-.26h3.25c1,0,1.41,0,1.54-.02.01.23.05.93.1,1.42l-.32.05c-.1-.31-.2-.51-.32-.7-.17-.31-.41-.37-1.05-.37h-1.01c-.33,0-.35.03-.35.3v2.05h1.18c.8,0,.85-.14.98-.77h.33v1.91h-.33c-.14-.67-.22-.76-.99-.76h-1.17v1.84c0,.65.23.7.76.71h.99c.65,0,.75-.08.99-.32.2-.19.42-.57.57-.85l.32.07Z"/>
      <path d="M49.38,78.62v-.26c.71-.07.8-.17.65-.52-.14-.36-.36-.82-.59-1.41h-2.37c-.18.42-.34.78-.49,1.16-.24.6-.09.68.81.77v.26h-2.54v-.26c.69-.07.87-.14,1.25-.97l2.27-4.86.35-.06c.69,1.58,1.45,3.33,2.14,4.93.35.81.45.88,1.23.95v.26h-2.71ZM48.28,73.69c-.35.8-.73,1.64-1.05,2.37h2.05l-1-2.37Z"/>
      <path d="M58.79,72.86c-.71.08-.89.17-1.27,1-.29.61-1.74,3.71-2.26,4.86h-.35c-.62-1.49-1.53-3.66-2.13-5.03-.3-.69-.48-.78-1.12-.83v-.26h2.68v.26c-.78.07-.82.19-.68.53.26.68,1.03,2.52,1.7,4.05.56-1.19,1.26-2.7,1.75-3.87.23-.54.11-.62-.76-.71v-.26h2.43v.26Z"/>
      <path d="M66.23,72.86c-.74.07-.86.18-1.28.77-.47.68-.86,1.31-1.38,2.14-.13.21-.16.32-.16.55v1.14c0,.77.09.82,1.07.91v.26h-3.02v-.26c.96-.11,1.03-.13,1.03-.91v-1.19c0-.18-.04-.27-.21-.54-.37-.6-.72-1.19-1.29-2.06-.41-.63-.51-.74-1.23-.81v-.26h2.58v.26c-.76.09-.71.21-.53.53.44.71.94,1.55,1.38,2.24.38-.62.98-1.63,1.27-2.14.24-.46.21-.56-.62-.63v-.26h2.37v.26Z"/>
      <path d="M77.1,72.86c-.84.07-.92.12-.92.9v3.71c0,.78.09.81.92.89v.26h-2.71v-.26c.84-.09.92-.11.92-.89v-1.85h-3.45v1.85c0,.77.08.8.91.89v.26h-2.7v-.26c.82-.08.91-.11.91-.89v-3.71c0-.78-.09-.82-.91-.9v-.26h2.7v.26c-.81.06-.91.13-.91.9v1.47h3.45v-1.47c0-.77-.11-.83-.92-.9v-.26h2.71v.26Z"/>
      <path d="M82.4,78.62v-.26c.71-.07.8-.17.65-.52-.14-.36-.36-.82-.59-1.41h-2.37c-.18.42-.34.78-.49,1.16-.24.6-.09.68.81.77v.26h-2.54v-.26c.69-.07.87-.14,1.25-.97l2.27-4.86.35-.06c.69,1.58,1.45,3.33,2.14,4.93.35.81.45.88,1.23.95v.26h-2.71ZM81.3,73.69c-.35.8-.72,1.64-1.05,2.37h2.05l-1-2.37Z"/>
      <path d="M92.52,72.86c-.64.04-.88.19-.9.61-.01.21-.03.6-.03,1.45v1c0,.94-.12,1.67-.72,2.23-.48.45-1.18.59-1.88.59-.59,0-1.23-.11-1.68-.43-.61-.43-.91-1.06-.91-2.15v-2.36c0-.83-.08-.89-.9-.95v-.26h2.69v.26c-.82.05-.9.12-.9.95v2.31c0,1.35.71,2.09,1.93,2.09,1.45,0,1.91-.81,1.91-2.35v-.94c0-.85-.03-1.2-.05-1.45-.03-.42-.27-.57-1.02-.61v-.26h2.46v.26Z"/>
      <path d="M98.96,77.08c-.06.29-.38,1.25-.49,1.54h-4.94v-.26c.97-.08,1.05-.13,1.05-.92v-3.68c0-.79-.11-.83-.96-.91v-.26h2.85v.26c-.85.07-.97.11-.97.91v3.77c0,.56.08.69.69.7.01,0,.78,0,.84,0,.54,0,.7-.06.95-.29.27-.24.49-.61.65-.95l.33.07Z"/>
      <path d="M100.29,78.62v-.26c.76-.08.83-.12.83-.91v-3.68c0-.8-.07-.83-.83-.92v-.26h2.48v.26c-.77.08-.84.12-.84.92v3.68c0,.8.07.82.84.91v.26h-2.48Z"/>
      <path d="M110.42,72.86c-.64.06-.85.16-.88.58,0,.3-.03.68-.03,1.55v3.71h-.38l-4.28-4.84v2.31c0,.83.03,1.25.05,1.52.02.47.27.61.99.67v.26h-2.43v-.26c.62-.05.86-.19.9-.64.03-.3.05-.71.05-1.56v-2.36c0-.26-.02-.41-.2-.61-.19-.23-.4-.29-.89-.33v-.26h1.5l4.24,4.66v-2.27c0-.86-.02-1.26-.05-1.54-.03-.42-.26-.55-1.06-.59v-.26h2.47v.26Z"/>
      <path d="M118.01,76.09c-.62.07-.66.13-.66.68v.78c0,.32.01.63.06.88-.62.13-1.43.33-2.27.33-2.27,0-3.65-1.31-3.65-3.17,0-1.95,1.72-3.12,3.72-3.12,1.02,0,1.77.18,2.08.23.02.34.07.91.15,1.49l-.3.06c-.24-.79-.53-1.12-1.16-1.31-.23-.07-.64-.12-.93-.12-1.53,0-2.52.97-2.52,2.67,0,1.47.82,2.93,2.76,2.93.34,0,.65-.06.85-.16.21-.11.34-.21.34-.59v-.76c0-.68-.08-.75-1.04-.81v-.27h2.57v.27Z"/>
      <path d="M128.6,74.95c-.66.07-.78.24-1.09.69-.25.35-.5.72-.84,1.22.41.38,1.34,1.38,1.61,1.83l-.06.1c-.52-.05-1.05-.26-1.16-.38-.11-.13-.57-.56-.87-.87-.69.9-1.32,1.2-2,1.2-1.22,0-1.89-.87-1.89-1.68,0-.86.51-1.2,1.42-1.77-.45-.38-.74-.81-.74-1.31,0-.83.72-1.46,1.57-1.46.79,0,1.41.53,1.41,1.28,0,.38-.2.66-.41.82-.18.14-.46.31-.81.52.31.26,1.09.89,1.7,1.47.22-.33.41-.64.59-1.06.18-.43.1-.55-.59-.62v-.27h2.17v.27ZM124.41,78.11c.65,0,1.02-.2,1.52-.82-.49-.54-1.16-1.08-1.97-1.76-.67.44-.86.83-.86,1.31,0,.87.69,1.28,1.31,1.28ZM124.44,72.85c-.47,0-.77.36-.77.91,0,.47.25.76.81,1.2.53-.37.76-.67.76-1.14,0-.54-.28-.97-.81-.97Z"/>
      <path d="M139.3,78.69c-.15,0-.28,0-.43-.02-.84-.05-1.3-.22-1.8-.8-.43-.47-.84-1.06-1.21-1.53-.23-.3-.38-.35-.97-.35h-.4v1.45c0,.79.13.83,1.05.91v.26h-3.09v-.26c.96-.08,1.04-.12,1.04-.91v-3.69c0-.79-.13-.81-1.04-.9v-.26h2.95c.84,0,1.41.08,1.85.31.47.24.79.66.79,1.22,0,.8-.64,1.3-1.49,1.59.21.29.71.91,1.05,1.32.43.49.65.72.91.95.31.27.58.37.84.43l-.05.26ZM135.03,75.69c.6,0,.98-.07,1.27-.27.45-.27.64-.64.64-1.14,0-.99-.82-1.35-1.71-1.35-.34,0-.53.04-.61.09-.1.06-.14.16-.14.4v2.27h.56Z"/>
      <path d="M140.15,78.62v-.26c.76-.08.83-.12.83-.91v-3.68c0-.8-.07-.83-.83-.92v-.26h2.48v.26c-.77.08-.84.12-.84.92v3.68c0,.8.07.82.84.91v.26h-2.48Z"/>
      <path d="M150.33,76.09c-.63.07-.67.13-.67.68v.78c0,.32.01.63.06.88-.63.13-1.45.33-2.3.33-2.3,0-3.7-1.31-3.7-3.17,0-1.95,1.75-3.12,3.78-3.12,1.04,0,1.8.18,2.11.23.02.34.07.91.15,1.49l-.3.06c-.24-.79-.54-1.12-1.18-1.31-.23-.07-.65-.12-.94-.12-1.55,0-2.56.97-2.56,2.67,0,1.47.83,2.93,2.8,2.93.35,0,.66-.06.86-.16.21-.11.35-.21.35-.59v-.76c0-.68-.08-.75-1.06-.81v-.27h2.61v.27Z"/>
      <path d="M157.64,76.09c-.63.07-.67.13-.67.68v.78c0,.32.01.63.06.88-.63.13-1.45.33-2.3.33-2.3,0-3.7-1.31-3.7-3.17,0-1.95,1.75-3.12,3.78-3.12,1.04,0,1.8.18,2.11.23.02.34.07.91.15,1.49l-.3.06c-.24-.79-.54-1.12-1.18-1.31-.23-.07-.65-.12-.94-.12-1.55,0-2.56.97-2.56,2.67,0,1.47.83,2.93,2.8,2.93.35,0,.66-.06.86-.16.21-.11.35-.21.35-.59v-.76c0-.68-.08-.75-1.06-.81v-.27h2.61v.27Z"/>
      <path d="M158.76,78.62v-.26c.76-.08.83-.12.83-.91v-3.68c0-.8-.07-.83-.83-.92v-.26h2.48v.26c-.77.08-.84.12-.84.92v3.68c0,.8.07.82.84.91v.26h-2.48Z"/>
      <path d="M169.07,72.86c-.64.06-.85.16-.88.58,0,.3-.03.68-.03,1.55v3.71h-.38l-4.28-4.84v2.31c0,.83.03,1.25.05,1.52.02.47.27.61.99.67v.26h-2.43v-.26c.62-.05.86-.19.9-.64.03-.3.05-.71.05-1.56v-2.36c0-.26-.02-.41-.2-.61-.19-.23-.4-.29-.89-.33v-.26h1.5l4.24,4.66v-2.27c0-.86-.02-1.26-.05-1.54-.03-.42-.26-.55-1.06-.59v-.26h2.47v.26Z"/>
      <path d="M176.62,76.09c-.63.07-.67.13-.67.68v.78c0,.32.01.63.06.88-.63.13-1.45.33-2.3.33-2.3,0-3.7-1.31-3.7-3.17,0-1.95,1.75-3.12,3.78-3.12,1.04,0,1.8.18,2.11.23.02.34.07.91.15,1.49l-.3.06c-.24-.79-.54-1.12-1.18-1.31-.23-.07-.65-.12-.94-.12-1.55,0-2.56.97-2.56,2.67,0,1.47.83,2.93,2.8,2.93.35,0,.66-.06.86-.16.21-.11.35-.21.35-.59v-.76c0-.68-.08-.75-1.06-.81v-.27h2.61v.27Z"/>
      <path d="M184.83,74.01c-.2-.61-.52-1.21-1.61-1.21-.9,0-1.22.53-1.22,1.01,0,.64.51.96,1.47,1.36,1.39.57,1.99,1,1.99,1.88,0,.97-1.05,1.71-2.55,1.71-.69,0-1.3-.16-1.77-.31-.09-.26-.23-.89-.31-1.39l.36-.07c.23.62.74,1.43,1.95,1.43.83,0,1.34-.46,1.34-1.06,0-.71-.47-1-1.49-1.44-1.22-.53-1.9-.97-1.9-1.83s.86-1.6,2.39-1.6c.65,0,1.29.14,1.53.18.05.33.09.7.19,1.31l-.36.06Z"/>
      <path d="M186.64,78.62v-.26c.76-.08.83-.12.83-.91v-3.68c0-.8-.07-.83-.83-.92v-.26h2.48v.26c-.77.08-.84.12-.84.92v3.68c0,.8.07.82.84.91v.26h-2.48Z"/>
      <path d="M196.95,72.86c-.64.06-.85.16-.88.58,0,.3-.03.68-.03,1.55v3.71h-.38l-4.28-4.84v2.31c0,.83.03,1.25.05,1.52.02.47.27.61.99.67v.26h-2.43v-.26c.62-.05.86-.19.9-.64.03-.3.05-.71.05-1.56v-2.36c0-.26-.02-.41-.2-.61-.19-.23-.4-.29-.89-.33v-.26h1.5l4.24,4.66v-2.27c0-.86-.02-1.26-.05-1.54-.03-.42-.26-.55-1.06-.59v-.26h2.47v.26Z"/>
      <path d="M203.38,77.14c-.13.44-.37,1.11-.51,1.4-.27.06-.99.22-1.69.22-2.21,0-3.34-1.47-3.34-3.09,0-1.89,1.43-3.19,3.51-3.19.8,0,1.44.17,1.75.21.04.42.1.97.18,1.44l-.29.06c-.19-.62-.41-1-.88-1.19-.24-.11-.62-.18-.97-.18-1.53,0-2.33,1.13-2.33,2.66,0,1.79.93,2.93,2.43,2.93.94,0,1.41-.44,1.88-1.36l.28.09Z"/>
      <path d="M209.88,77.15c-.06.24-.35,1.19-.46,1.47h-5.16v-.26c.99-.06,1.06-.15,1.06-.91v-3.66c0-.82-.12-.87-.91-.94v-.26h3.25c1,0,1.41,0,1.54-.02.01.23.05.93.1,1.42l-.32.05c-.1-.31-.2-.51-.32-.7-.17-.31-.41-.37-1.05-.37h-1.01c-.33,0-.35.03-.35.3v2.05h1.18c.8,0,.85-.14.98-.77h.33v1.91h-.33c-.14-.67-.22-.76-.99-.76h-1.17v1.84c0,.65.23.7.76.71h.99c.65,0,.75-.08.99-.32.2-.19.42-.57.57-.85l.32.07Z"/>
      <path d="M215.13,78.62v-.26c1.03-.06,1.08-.11,1.08-.81v-3.56c0-.47-.06-.49-.47-.53l-.45-.05v-.23c.61-.1,1.22-.25,1.69-.45v4.81c0,.7.06.74,1.09.81v.26h-2.94Z"/>
      <path d="M222,75.94l-.62.31c-.2.1-.38.14-.56.14-.99,0-1.67-.76-1.67-1.73,0-.91.7-1.92,1.9-1.92s1.86,1.06,1.86,2.31c0,1.7-1.07,2.97-2.34,3.46-.38.15-.86.22-1.1.24l-.07-.27c1.31-.24,2.3-1.12,2.6-2.56ZM220.94,73.07c-.72,0-.97.69-.97,1.33,0,.81.45,1.49,1.23,1.49.33,0,.64-.12.83-.27.03-.2.04-.43.04-.6,0-.82-.23-1.95-1.13-1.95Z"/>
      <path d="M227.98,77.39c-.12.42-.28.89-.37,1.23h-3.49v-.22c.51-.5,1.06-1.05,1.52-1.57.58-.69,1.14-1.43,1.14-2.23s-.41-1.21-1.08-1.21c-.64,0-1.04.5-1.28.86l-.21-.19.53-.75c.29-.32.73-.56,1.27-.56.88,0,1.57.6,1.57,1.6,0,.79-.29,1.34-1.17,2.24-.4.42-.98.98-1.38,1.36h1.77c.5,0,.64-.05.95-.63l.23.07Z"/>
      <path d="M233,72.97c-.89,1.88-1.75,3.75-2.65,5.67l-.67.06-.06-.1c.96-1.56,1.98-3.48,2.71-5.06h-1.98c-.6,0-.64.08-.89.69h-.29c.09-.52.13-.98.18-1.38h3.59l.06.12Z"/>
    </g>
    <path d="M31.32,70.45c-.48,0-.87-.39-.87-.87s.39-.87.87-.87h201.81c.48,0,.87.39.87.87s-.39.87-.87.87H31.32Z"/>
    <g>
      <path d="M36.52,61.96c.38.34.58.81.58,1.42s-.19,1.07-.58,1.42c-.38.34-.9.51-1.55.51s-1.17-.17-1.55-.51c-.38-.34-.58-.81-.58-1.42s.19-1.07.58-1.42c.38-.34.9-.51,1.55-.51s1.17.17,1.55.51Z"/>
      <path d="M53.04,64.96c-1.14-.05-3.05-.08-5.74-.08-3.64,0-6.37.03-8.17.08v-.5c.55-.03.96-.1,1.22-.2.26-.1.43-.29.53-.58.09-.28.14-.74.14-1.38v-12.44c0-.64-.05-1.09-.14-1.38-.09-.28-.27-.48-.53-.58-.26-.1-.66-.17-1.22-.2v-.5c1.81.05,4.53.07,8.17.07,2.46,0,4.2-.02,5.24-.07-.12,1.39-.18,2.62-.18,3.71,0,.74.03,1.3.08,1.7h-.58c-.25-1.79-.7-3.04-1.35-3.76-.65-.72-1.57-1.08-2.76-1.08h-1.03c-.52,0-.89.04-1.13.13-.23.08-.39.25-.48.49-.08.24-.13.63-.13,1.17v6.22h.8c.89,0,1.56-.33,2.02-.98.46-.65.78-1.43.97-2.33h.58c-.05.7-.08,1.49-.08,2.36v1.2c0,.85.05,2.04.15,3.56h-.58c-.35-2.21-1.37-3.31-3.06-3.31h-.8v6.32c0,.54.04.92.13,1.17.08.24.24.41.48.49.23.08.61.13,1.13.13h1.23c1.19,0,2.14-.4,2.87-1.22.73-.81,1.24-2.19,1.54-4.12h.58c-.05.55-.08,1.25-.08,2.11,0,1.54.06,2.81.18,3.81Z"/>
      <path d="M59.69,61.96c.38.34.58.81.58,1.42s-.19,1.07-.58,1.42c-.38.34-.9.51-1.55.51s-1.17-.17-1.55-.51c-.38-.34-.58-.81-.58-1.42s.19-1.07.58-1.42c.38-.34.9-.51,1.55-.51s1.17.17,1.55.51Z"/>
      <path d="M75.6,47.93c1.33.72,2.36,1.76,3.1,3.12.74,1.36,1.1,2.99,1.1,4.88s-.38,3.47-1.13,4.89c-.75,1.42-1.8,2.52-3.15,3.31-1.35.79-2.88,1.18-4.6,1.18s-3.32-.36-4.65-1.08c-1.33-.72-2.36-1.76-3.1-3.12-.74-1.36-1.1-2.99-1.1-4.88s.38-3.47,1.13-4.89c.75-1.42,1.8-2.52,3.15-3.31,1.35-.79,2.88-1.18,4.6-1.18s3.32.36,4.65,1.08ZM68.41,48.42c-.7.74-1.24,1.78-1.62,3.12-.38,1.34-.56,2.87-.56,4.59s.21,3.27.64,4.59c.43,1.32,1,2.34,1.73,3.06.73.72,1.53,1.08,2.42,1.08s1.73-.37,2.43-1.12c.7-.74,1.24-1.78,1.62-3.12.38-1.34.56-2.87.56-4.59s-.21-3.27-.64-4.59c-.43-1.32-1-2.34-1.73-3.06-.73-.72-1.53-1.08-2.42-1.08s-1.73.37-2.43,1.12Z"/>
      <path d="M88.27,51.88c.53.16.94.34,1.23.54.17.12.32.18.45.18.15,0,.28-.08.39-.24.11-.16.18-.39.21-.69h.53c-.07.85-.1,2.32-.1,4.41h-.53c-.15-1.1-.48-2.03-.99-2.77-.51-.74-1.25-1.12-2.22-1.12-.5,0-.92.14-1.24.43-.33.28-.49.68-.49,1.18,0,.57.19,1.06.58,1.47.38.41.99.91,1.81,1.49l.73.53c1.02.77,1.77,1.45,2.26,2.06.48.6.73,1.35.73,2.26,0,.74-.21,1.39-.64,1.96-.43.57-1,1-1.72,1.3-.72.3-1.51.45-2.38.45-.92,0-1.7-.18-2.36-.53-.54-.27-.92-.44-1.15-.53-.17-.05-.31,0-.44.16-.13.16-.22.4-.29.71h-.53c.07-.95.1-2.62.1-5.01h.53c.33,3.08,1.46,4.61,3.38,4.61.48,0,.9-.15,1.24-.44.34-.29.51-.74.51-1.34,0-.47-.1-.89-.31-1.25-.21-.37-.47-.69-.79-.98-.32-.28-.79-.68-1.43-1.18-.75-.6-1.32-1.09-1.72-1.45-.39-.37-.73-.8-1-1.3-.28-.5-.41-1.06-.41-1.68,0-1.07.42-1.91,1.25-2.53.84-.62,1.86-.93,3.06-.93.63,0,1.22.08,1.75.24Z"/>
      <path d="M112.81,51.99v.5c-.35.1-.67.31-.95.63-.28.32-.54.83-.75,1.53l-3.33,10.35c-.18-.02-.46-.02-.83-.02s-.62,0-.8.02l-3.41-9.3-2.78,9.3c-.17-.02-.43-.02-.8-.02s-.64,0-.83.02l-3.96-11.08c-.2-.58-.43-.97-.68-1.14s-.51-.26-.78-.26v-.53c1.09.1,2.27.15,3.56.15.84,0,1.92-.05,3.26-.15v.53c-.55,0-.95.04-1.19.13-.24.08-.36.28-.36.6,0,.22.04.44.13.68l2.26,7.1,2.73-9.05.93.02.9-.02,3.26,9.58,1.58-5.04c.23-.79.35-1.42.35-1.91,0-1.3-.66-2.01-1.98-2.11v-.5c.79.05,1.65.08,2.58.08.85,0,1.49-.02,1.91-.08Z"/>
      <path d="M114.23,64.3c-.53-.55-.79-1.28-.79-2.18,0-.75.2-1.37.59-1.87.39-.49.87-.87,1.43-1.14.56-.27,1.27-.55,2.14-.85.92-.32,1.59-.61,2.02-.86.43-.26.64-.61.64-1.07v-1.96c0-.7-.16-1.25-.49-1.64-.33-.39-.83-.59-1.52-.59-.8,0-1.41.2-1.83.6.47.17.83.42,1.09.75.26.33.39.73.39,1.18,0,.57-.19,1.02-.58,1.35-.38.33-.85.5-1.4.5-.59,0-1.04-.18-1.35-.55-.32-.37-.48-.83-.48-1.38,0-.47.11-.87.34-1.19s.57-.63,1.04-.91c.45-.27,1.01-.48,1.67-.63.66-.15,1.38-.23,2.17-.23s1.53.08,2.13.25c.6.17,1.1.45,1.5.85.37.37.61.82.74,1.35s.19,1.26.19,2.18v6.82c0,.4.04.69.11.85.07.17.22.25.44.25.25,0,.55-.14.9-.43l.25.43c-.75.62-1.67.93-2.76.93-.92,0-1.56-.18-1.93-.55-.37-.37-.56-.86-.58-1.48-.84,1.35-2.06,2.03-3.69,2.03-1.07,0-1.87-.28-2.39-.83ZM120.26,62.5v-5.14c-.2.33-.63.7-1.28,1.1-.65.42-1.15.84-1.48,1.25-.33.42-.5,1.02-.5,1.81,0,.69.14,1.19.43,1.52.28.33.66.49,1.13.49.65,0,1.22-.34,1.7-1.03Z"/>
      <path d="M132.04,62.62c0,.69.12,1.16.35,1.42.23.26.65.39,1.25.39v.53c-1.74-.07-2.86-.1-3.36-.1-.57,0-1.72.03-3.46.1v-.53c.58,0,1-.13,1.24-.39.24-.26.36-.73.36-1.42v-14.29c0-.77-.12-1.33-.36-1.68-.24-.35-.66-.53-1.24-.53v-.53c.53.05,1.05.07,1.55.07,1.45,0,2.67-.12,3.66-.35v17.3Z"/>
      <path d="M140.09,51.99h2.96v.5h-2.96v10.13c0,.5.09.86.26,1.07s.46.31.84.31c.72,0,1.29-.5,1.7-1.5l.43.23c-.64,1.72-1.78,2.58-3.43,2.58-1.1,0-1.94-.28-2.51-.85-.35-.35-.59-.79-.71-1.32-.13-.53-.19-1.25-.19-2.17v-8.47h-2.11v-.5h2.11v-3.31c1.39,0,2.59-.27,3.61-.8v4.11Z"/>
      <path d="M170.26,53.28c-.86.69-2.13,1.22-3.8,1.57l-.45.15c.75.33,1.33.87,1.73,1.6s.6,1.59.6,2.56c0,1.17-.36,2.22-1.08,3.15s-1.73,1.66-3.05,2.19c-1.31.53-2.82.8-4.53.8-1.84,0-3.46-.25-4.85-.75-1.4-.5-2.47-1.22-3.23-2.17s-1.14-2.05-1.14-3.32c0-1.14.3-2.09.9-2.87.6-.78,1.28-1.37,2.04-1.77.76-.4,1.47-.69,2.14-.85-1.89-.75-2.83-1.81-2.83-3.16,0-1.02.49-1.82,1.48-2.39s2.16-.87,3.51-.87c.62,0,1.13.04,1.53.13.4.08.76.22,1.08.4.45.22.82.49,1.1.83.28.33.43.74.43,1.2s-.19.88-.56,1.19c-.38.31-.83.46-1.37.46s-.97-.13-1.32-.4c-.34-.27-.51-.65-.51-1.15,0-.42.15-.8.45-1.14.3-.34.69-.56,1.15-.64-.15-.13-.38-.24-.68-.33s-.63-.13-.98-.13c-.92,0-1.67.28-2.26.85-.59.57-.88,1.38-.88,2.43,0,.97.33,1.82.98,2.56.62-.13,1.09-.2,1.4-.2.3,0,.53.06.69.19.16.13.24.29.24.49,0,.17-.07.3-.2.39-.13.09-.3.14-.5.14-.25,0-.49-.06-.73-.18-.23-.12-.53-.28-.88-.48-.85.44-1.51.97-1.97,1.62-.46.64-.69,1.46-.69,2.44,0,1.62.65,2.84,1.94,3.65,1.3.81,3.09,1.22,5.38,1.22,1.15,0,2.26-.17,3.32-.51,1.06-.34,1.92-.84,2.58-1.5.66-.66.99-1.44.99-2.34,0-1.54-.64-2.6-1.91-3.18l-1.6.45-1.4.4c-1.4.32-2.43.65-3.08,1-.65.35-.98.83-.98,1.43s.28,1.09.84,1.47c.56.38,1.18.56,1.87.56.18,0,.38-.03.59-.08.21-.05.35-.11.41-.18-.4-.13-.71-.34-.93-.63-.22-.28-.33-.63-.33-1.03,0-.52.19-.92.56-1.22.38-.29.86-.44,1.44-.44s1.07.15,1.42.46c.34.31.51.72.51,1.24,0,.75-.33,1.32-1,1.7-.67.38-1.52.58-2.56.58s-1.96-.28-2.67-.83c-.71-.55-1.07-1.35-1.07-2.38,0-1.25.48-2.25,1.43-2.98.95-.74,2.35-1.28,4.19-1.63l1.08-.28c1.09-.25,1.97-.49,2.66-.73,1.29-.32,2.24-.66,2.86-1.04.62-.38.93-.86.93-1.44,0-.65-.29-1.19-.86-1.63-.58-.43-1.23-.65-1.97-.65-.32,0-.56.04-.73.13.38.15.69.37.9.66.22.29.33.6.33.92,0,.5-.19.89-.56,1.18-.38.28-.86.43-1.44.43s-1.06-.15-1.42-.44c-.36-.29-.54-.7-.54-1.22,0-.65.28-1.17.85-1.54.57-.38,1.33-.56,2.28-.56,1.2,0,2.17.31,2.9.94.73.63,1.09,1.49,1.09,2.59,0,1.24-.43,2.2-1.29,2.9Z"/>
      <path d="M187.55,47.13c.52.17,1.04.41,1.58.73.18.1.35.18.49.25.14.07.26.1.36.1.15,0,.27-.09.35-.26.08-.18.15-.46.2-.84h.58c-.08,1.12-.13,3.03-.13,5.72h-.58c-.07-.9-.27-1.76-.61-2.58-.34-.82-.83-1.48-1.45-1.99-.63-.51-1.36-.76-2.19-.76s-1.48.23-1.99.69c-.51.46-.76,1.08-.76,1.87,0,.59.13,1.09.38,1.53.25.43.6.83,1.05,1.19.45.36,1.14.85,2.08,1.47l.8.55c.99.65,1.76,1.22,2.33,1.7.57.48,1.03,1.05,1.39,1.69.36.64.54,1.39.54,2.24,0,1.07-.28,1.97-.83,2.7-.55.73-1.3,1.27-2.24,1.64-.94.37-1.99.55-3.15.55-.94,0-1.71-.08-2.33-.25-.62-.17-1.19-.39-1.7-.68-.37-.23-.65-.35-.85-.35-.15,0-.27.09-.35.26s-.15.46-.2.84h-.58c.07-1.05.1-3.31.1-6.77h.58c.12,1.87.53,3.39,1.25,4.55.72,1.16,1.82,1.74,3.31,1.74.9,0,1.65-.24,2.23-.73.58-.48.88-1.18.88-2.08s-.3-1.74-.9-2.41c-.6-.67-1.55-1.42-2.86-2.26-1-.65-1.81-1.22-2.41-1.7-.6-.48-1.09-1.06-1.48-1.72-.38-.66-.58-1.42-.58-2.29,0-1,.25-1.85.76-2.54.51-.69,1.19-1.21,2.04-1.54.85-.33,1.79-.5,2.81-.5.87,0,1.56.08,2.08.25Z"/>
      <path d="M204.45,53.28c1.09,1.09,1.63,2.83,1.63,5.2s-.54,4.1-1.63,5.19c-1.09,1.09-2.59,1.63-4.51,1.63s-3.41-.54-4.5-1.63c-1.09-1.09-1.64-2.82-1.64-5.19s.55-4.11,1.64-5.2c1.09-1.09,2.59-1.64,4.5-1.64s3.43.55,4.51,1.64ZM198.22,53.71c-.43,1.04-.64,2.64-.64,4.78s.21,3.73.64,4.76c.43,1.04,1,1.55,1.72,1.55s1.31-.51,1.73-1.54c.42-1.03.63-2.62.63-4.78s-.21-3.75-.64-4.79c-.43-1.04-1-1.55-1.72-1.55s-1.29.52-1.72,1.57Z"/>
      <path d="M219.44,52.62c.28.32.48.73.6,1.23.12.5.18,1.18.18,2.03v6.74c0,.69.12,1.16.36,1.42.24.26.66.39,1.24.39v.53c-1.67-.07-2.77-.1-3.31-.1-.5,0-1.59.03-3.26.1v-.53c.5,0,.85-.13,1.05-.39.2-.26.3-.73.3-1.42v-7.8c0-.69-.11-1.2-.34-1.55-.23-.35-.63-.53-1.22-.53-.69,0-1.27.28-1.75.84-.48.56-.73,1.25-.73,2.07v6.97c0,.69.1,1.16.3,1.42.2.26.55.39,1.05.39v.53c-1.54-.07-2.57-.1-3.11-.1-.5,0-1.65.03-3.46.1v-.53c.6,0,1.02-.13,1.25-.39s.35-.73.35-1.42v-7.9c0-.77-.12-1.33-.35-1.68s-.65-.53-1.25-.53v-.53c.53.05,1.05.08,1.55.08,1.49,0,2.71-.12,3.66-.35v2.26c.75-1.55,2.12-2.33,4.11-2.33,1.27,0,2.19.33,2.76.98Z"/>
      <path d="M229.8,51.88c.53.16.94.34,1.23.54.17.12.32.18.45.18.15,0,.28-.08.39-.24.11-.16.18-.39.21-.69h.53c-.07.85-.1,2.32-.1,4.41h-.53c-.15-1.1-.48-2.03-.99-2.77-.51-.74-1.25-1.12-2.22-1.12-.5,0-.92.14-1.24.43-.33.28-.49.68-.49,1.18,0,.57.19,1.06.58,1.47.38.41.99.91,1.81,1.49l.73.53c1.02.77,1.77,1.45,2.26,2.06.48.6.73,1.35.73,2.26,0,.74-.21,1.39-.64,1.96-.43.57-1,1-1.72,1.3-.72.3-1.51.45-2.38.45-.92,0-1.7-.18-2.36-.53-.54-.27-.92-.44-1.15-.53-.17-.05-.31,0-.44.16-.13.16-.22.4-.29.71h-.53c.07-.95.1-2.62.1-5.01h.53c.33,3.08,1.46,4.61,3.38,4.61.48,0,.9-.15,1.24-.44.34-.29.51-.74.51-1.34,0-.47-.1-.89-.31-1.25-.21-.37-.47-.69-.79-.98-.32-.28-.79-.68-1.43-1.18-.75-.6-1.32-1.09-1.72-1.45-.39-.37-.73-.8-1-1.3-.28-.5-.41-1.06-.41-1.68,0-1.07.42-1.91,1.25-2.53.84-.62,1.86-.93,3.06-.93.64,0,1.22.08,1.76.24Z"/>
      <path d="M26.77,47.28c-1.69,0-2.95-.02-3.79-.07v.5c.55.03.96.1,1.22.2.26.1.43.29.53.58.09.28.14.74.14,1.38v13.74c0,1.37-.12,2.45-.36,3.25-.24.79-.59,1.36-1.05,1.7-.46.34-1.11.39-1.64.42-.13,0-.25,0-.36,0,.06-.04.11-.07.16-.12.38-.33.56-.8.56-1.38s-.19-1.05-.56-1.38c-.38-.33-.88-.5-1.52-.5s-1.14.17-1.52.5c-.38.34-.56.8-.56,1.38s.19,1.05.56,1.38c.15.13.32.23.51.31h-.02c1,.5,2.65.5,2.65.5,1.84,0,3.33-.38,4.48-1.13,1.14-.75,1.89-1.74,2.24-2.96.28-.99.43-2.66.43-5.01v-10.71c0-.64.05-1.09.14-1.38.09-.28.26-.48.51-.58.25-.1.66-.17,1.23-.2v-.5c-.92.05-2.24.07-3.96.07Z"/>
    </g>
  </g>
  <rect class="st0" width="252" height="144"/>
</svg>