<?xml version="1.0" encoding="UTF-8"?><svg id="Layer_1" xmlns="http://www.w3.org/2000/svg" viewBox="0 0 1920 766.41"><defs><style>.cls-1{fill:#fff;}.cls-2{fill:#ce9838;}</style></defs><path class="cls-2" d="M801.14,110.63c-13.95,14.3-21.61,33.46-41.37,38.57-20.13,5.21-43.38-5.81-39.75-26.35,2.83-15.99,24.48-31.93,24.48-31.93,0,0-1.94-.85-5.04-2.45-28.34-13.42-49.7-39.18-57.12-70.36-7.42,31.18-28.78,56.94-57.12,70.36-3.1,1.6-5.04,2.45-5.04,2.45,0,0,21.66,15.94,24.48,31.93,3.63,20.54-19.62,31.56-39.75,26.35-19.76-5.11-27.42-24.27-41.37-38.57-32.93-33.75-76.67-32.16-96.49-30.3,23.86,18.11,44.57,42.87,59.23,72.99,13.35,27.42,20.1,56.05,20.85,83.56,40.59-22.68,86.53-35.61,135.21-35.72,48.68,.11,94.62,13.04,135.21,35.72,.75-27.51,7.51-56.14,20.85-83.56,14.66-30.12,35.37-54.88,59.23-72.99-19.81-1.86-63.56-3.45-96.49,30.3Z"/><polygon class="cls-1" points="361.77 739.73 436.31 739.73 242.11 514.55 436.31 289.19 361.48 289.19 191.77 486.12 79.09 486.12 79.09 289.19 22.41 289.19 22.41 739.73 79.09 739.73 79.09 542.8 191.7 542.8 361.77 739.73"/><path class="cls-1" d="M682.34,748.31c-118.71,0-215.29-104.9-215.29-233.84s96.58-233.84,215.29-233.84,215.29,104.9,215.29,233.84-96.58,233.84-215.29,233.84Zm0-411c-87.46,0-158.61,79.47-158.61,177.16s71.15,177.16,158.61,177.16,158.61-79.47,158.61-177.16-71.15-177.16-158.61-177.16Z"/><path class="cls-1" d="M1836.47,739.73h61.13l-181.89-450.54h-111.14l-181.89,450.54h61.13l56.61-140.22h239.45l56.61,140.22Zm-273.18-196.9l79.52-196.95h34.65l79.51,196.95h-193.68Z"/><path class="cls-1" d="M1176.61,486.12v56.68h156.58c-12.18,84.26-77.76,148.82-156.58,148.82-87.46,0-158.61-79.47-158.61-177.16s71.15-177.16,158.61-177.16c46.88,0,91.09,23.5,120.98,62.79h66.53l.26-.14c-38.1-73.61-110.05-119.33-187.77-119.33-118.71,0-215.29,104.9-215.29,233.84s96.58,233.84,215.29,233.84,215.29-104.9,215.29-233.84v-28.34h-215.29Z"/></svg>