<?xml version="1.0" encoding="UTF-8"?>
<svg id="Layer_1" xmlns="http://www.w3.org/2000/svg" version="1.1" viewBox="0 0 252 108">
  <!-- Generator: Adobe Illustrator 29.8.1, SVG Export Plug-In . SVG Version: 2.1.1 Build 2)  -->
  <g>
    <path d="M209.08,85.86s0,6.53,7.8,6.53h17.12v-8.53l-12.76-.09s-2.59.1-2.64-2.4v-41.01h-9.52v45.5Z"/>
    <path d="M202.13,56.69h-8.93c.05-3.1.17-7.83-3.83-8.38-3.26-.45-5.33.8-5.82,4.12-1.32,9.02,8.29,9.45,13.57,13.62,8.47,6.67,6.44,24.02-4.91,26.57-9.11,2.05-18.71-2.34-18.71-12.67v-6.17h9.2v6.09c0,1.79,1.32,3.18,2.18,3.68,2.8,1.64,6.53.6,7.47-2.63,3.4-11.72-14.94-9.89-17.88-21.12-3.34-12.76,4.82-23.1,18.27-19.85,5.13,1.24,9.4,6.55,9.4,11.88v4.86Z"/>
    <path d="M167.4,53.76s-.26-14.53-14.66-14.53-14.66,14.53-14.66,14.53v24.81s.26,14.53,14.66,14.53c.73,0,1.42-.04,2.07-.11,3.31,1.43,2.61,6.07,2.61,6.07h9.72c0-3.44-.15-5.93-.81-7.58-.73-1.84-1.66-2.79-2.39-3.28,3.35-4.22,3.45-9.63,3.45-9.63v-24.81ZM152.74,84.37c-5.04,0-5.13-5.65-5.13-5.65v-25.09s.09-5.65,5.13-5.65,5.13,5.65,5.13,5.65v25.09s-.09,5.65-5.13,5.65Z"/>
  </g>
  <g>
    <path d="M85.37,86.21c-2.08-1.06-4.03-1.82-5.82-2.37,45.24-4.85,44.06-47.26,44.06-47.26h-19.98c-4.26,35.37-32.82,41.45-32.82,41.45,0,0-28.56-6.08-32.82-41.45h-19.98s-1.18,42.17,43.67,47.22c-9.98,3.22-14.77,12.87-14.77,12.87v7.14s5.94-7.44,16.97-8.35c11.02-.91,19.69,4.22,21.68,4.99s10.21,5.04,18.05,4.63,14.79-5.72,14.79-5.72v-6.71c-13.93,6.26-23-1.36-33.02-6.44Z"/>
    <path d="M94.3,29.98v-7.07h-4.42v-7.63h-11.43l-2.42-11.26s-2.05-1.13-5.23-1.13-5.23,1.13-5.23,1.13l-2.42,11.26h-11.43v7.63h-4.42v7.07h-4.54c.77,37.3,28.03,44.19,28.03,44.19,0,0,27.26-6.89,28.03-44.19h-4.54Z"/>
  </g>
</svg>