<svg width="32" height="32" viewBox="0 0 32 32" fill="currentColor" xmlns="http://www.w3.org/2000/svg">
	<path d="M5.39711 17.5333V9C5.39711 8.64638 5.53758 8.30724 5.78763 8.05719C6.03768 7.80714 6.37682 7.66667 6.73044 7.66667H13.3971V5H18.7304V7.66667H25.3971C25.7507 7.66667 26.0899 7.80714 26.3399 8.05719C26.59 8.30724 26.7304 8.64638 26.7304 9V17.5333L28.1784 17.968C28.5068 18.0665 28.7847 18.2877 28.9542 18.5856C29.1238 18.8836 29.1721 19.2354 29.0891 19.568L27.0664 27.6587C25.9758 27.7148 24.8882 27.5016 23.8995 27.038C22.9107 26.5743 22.0513 25.8744 21.3971 25C20.7761 25.828 19.9709 26.5 19.0452 26.9628C18.1195 27.4257 17.0987 27.6667 16.0638 27.6667C15.0288 27.6667 14.0081 27.4257 13.0824 26.9628C12.1566 26.5 11.3514 25.828 10.7304 25C10.0762 25.8744 9.21682 26.5743 8.2281 27.038C7.23937 27.5016 6.15171 27.7148 5.06111 27.6587L3.03978 19.568C2.9567 19.2355 3.00482 18.8839 3.17414 18.586C3.34345 18.288 3.62097 18.0667 3.94911 17.968L5.39711 17.5333ZM8.06378 16.7333L16.0638 14.3333L19.7358 15.4347L22.1478 16.1587L24.0638 16.7333V10.3333H8.06378V16.7333Z" fill="black"/>
</svg>
