<svg width="428" height="798" viewBox="0 0 428 798" fill="none" xmlns="http://www.w3.org/2000/svg">
<path d="M183.134 481.858C183.301 481.865 185.107 486.628 187.078 492.54L190.528 503.059L186.092 509.305C183.627 512.757 180.997 516.207 180.34 516.865C179.682 517.687 177.547 513.414 175.575 507.497L171.959 496.65L177.383 489.254C180.339 485.147 182.967 481.861 183.134 481.858Z" fill="black"/>
<path d="M112.635 423.347C114.114 419.402 115.594 420.717 116.087 426.469C116.251 429.263 118.551 438.303 121.18 446.52L125.782 461.313L106.061 461.806C95.2187 461.97 86.0178 461.97 85.6842 461.478C85.3575 461.146 90.9442 452.929 98.3379 443.233C105.731 433.538 112.14 424.664 112.635 423.347Z" fill="black"/>
<path d="M272.367 429.428C276.804 422.69 278.448 421.21 278.776 423.675C279.106 425.32 281.57 434.359 284.363 443.562C287.157 452.929 289.128 460.817 288.636 461.313C288.143 461.806 278.776 461.971 267.766 461.806L247.88 461.313L257.084 449.808C262.178 443.399 269.08 434.359 272.367 429.428Z" fill="black"/>
<path fill-rule="evenodd" clip-rule="evenodd" d="M427.027 592H0.0273438V165H398.489L244.568 372.367L272.059 372.288L425.922 165H427.027V592ZM104.09 397.542C99.3242 406.582 82.3978 429.922 44.2728 479.393C20.5805 510.274 3.85341 531.341 0.971111 534.134V547.6H9.26944C18.1433 547.6 18.8006 547.271 22.2516 542.176C24.0598 539.052 35.3998 523.933 47.3956 508.319L69.0866 480.214L100.474 480.542L131.862 481.036L135.641 493.198C137.613 499.936 138.764 506.183 138.271 507.169C135.149 512.428 121.181 529.851 113.293 538.233L104.418 547.6H134.162L138.271 540.533C140.572 536.753 143.859 532.315 145.666 530.672C148.953 527.714 148.953 527.713 150.597 533.137C151.583 536.095 152.732 540.533 153.225 543.163L154.211 547.6H169.658C182.805 547.6 185.27 547.107 186.092 544.806C187.571 541.19 197.43 528.043 198.745 527.877C199.403 527.878 200.718 532.316 202.032 537.739L204.168 547.6H222.738C232.924 547.6 241.304 547.271 241.308 546.779C241.307 546.284 239.828 543.161 238.185 539.711C236.542 536.423 232.434 524.919 228.983 514.071L222.902 494.677L227.832 487.774L232.762 481.036L264.643 480.542L296.688 480.214L303.589 502.566C307.533 514.893 311.807 530.014 313.286 536.26L315.915 547.6H354.698L351.575 541.355C344.344 527.218 305.398 400.994 305.398 391.789C305.397 388.338 304.739 388.175 289.95 388.175H274.503L270.066 396.063C264.15 406.91 216.001 470.352 214.85 469.037C212.55 466.407 209.92 453.588 211.399 451.78C234.57 421.538 251.332 400.665 256.591 395.242L263.327 388.175H231.776L230.133 393.105C228.161 398.694 201.867 432.714 200.388 431.728C199.73 431.396 196.773 421.536 193.651 409.705L187.9 388.175H169.329C151.254 388.175 150.925 388.174 152.568 391.461C153.554 393.434 159.142 409.378 164.893 427.292L175.575 459.67L170.974 465.257C168.509 468.215 165.88 470.516 164.893 470.188C162.921 469.531 143.53 406.748 141.886 395.899L140.9 388.175H109.02L104.09 397.542Z" fill="black"/>
</svg>
