<svg width="843" height="798" viewBox="0 0 843 798" fill="none" xmlns="http://www.w3.org/2000/svg">
<path d="M821.179 533.187C821.179 529.779 825.042 528.509 827.906 528.509C830.371 528.509 833.501 529.445 835.099 531.516L841.96 524.032C838.097 520.624 833.168 519.287 828.106 519.287C819.248 519.287 810.856 524.366 810.856 534.055C810.856 549.158 832.102 544.681 832.102 553.034C832.102 556.241 828.439 557.778 825.176 557.778C821.912 557.778 818.515 556.174 816.451 553.501L809.324 561.32C813.587 565.329 818.715 567 824.51 567C833.834 567 841.96 562.189 841.96 552.031C842.026 536.127 821.179 541.473 821.179 533.187Z" fill="black"/>
<path d="M772.492 557.712C765.299 557.712 759.705 551.564 759.705 543.077C759.705 534.59 765.233 528.442 772.825 528.442C776.555 528.442 779.419 529.779 781.417 532.185L789.077 525.903C785.214 520.958 778.886 519.221 773.824 519.221C759.705 519.221 749.381 528.509 749.381 543.077C749.381 557.645 759.638 566.933 773.824 566.933C780.019 566.933 786.413 564.461 790.209 559.048L781.883 552.833C779.752 555.907 776.489 557.712 772.492 557.712Z" fill="black"/>
<path d="M725.537 520.424H715.546V565.798H725.537V520.424Z" fill="black"/>
<path d="M657.669 529.245H670.523V565.798H680.514V529.245H693.435V520.424H657.669V529.245Z" fill="black"/>
<path d="M616.375 533.187C616.375 529.779 620.238 528.509 623.102 528.509C625.567 528.509 628.697 529.445 630.295 531.516L637.156 524.032C633.293 520.624 628.364 519.287 623.302 519.287C614.444 519.287 606.052 524.366 606.052 534.055C606.052 549.158 627.298 544.681 627.298 553.034C627.298 556.241 623.635 557.778 620.371 557.778C617.108 557.778 613.711 556.174 611.713 553.501L604.586 561.32C608.849 565.329 613.978 567 619.772 567C629.096 567 637.222 562.189 637.222 552.031C637.222 536.127 616.375 541.473 616.375 533.187Z" fill="black"/>
<path d="M581.673 520.424H571.683V565.798H581.673V520.424Z" fill="black"/>
<path d="M536.251 548.089V555.44C534.387 556.442 531.19 557.712 526.86 557.712C518.335 557.712 512.807 551.564 512.807 543.077C512.807 534.59 518.335 528.442 526.86 528.442C531.922 528.442 535.186 529.913 537.85 532.719L544.843 525.034C540.314 520.824 533.987 519.221 526.794 519.221C512.674 519.221 502.35 528.509 502.35 543.077C502.35 557.645 512.674 566.933 526.794 566.933C533.454 566.933 539.915 565.664 545.776 562.59V538.867H528.059V548.089H536.251Z" fill="black"/>
<path d="M456.527 557.711C448.002 557.711 442.474 551.564 442.474 543.077C442.474 534.59 448.002 528.442 456.527 528.442C465.053 528.442 470.581 534.59 470.581 543.077C470.581 551.564 464.986 557.711 456.527 557.711ZM456.527 519.287C442.407 519.287 432.084 528.576 432.084 543.144C432.084 557.711 442.407 567 456.527 567C470.647 567 480.971 557.711 480.971 543.144C480.971 528.576 470.647 519.287 456.527 519.287Z" fill="black"/>
<path d="M393.386 520.424H383.396V565.798H411.835V556.576H393.386V520.424Z" fill="black"/>
<path d="M842.027 480.463L762.703 352.226L762.37 351.691L751.114 333.515C750.315 332.179 749.382 330.909 748.383 329.706C740.391 319.148 728.069 313 714.748 313C714.615 313 714.482 313 714.349 313C713.883 313 712.084 313 711.618 313C711.485 313 711.352 313 711.218 313C697.831 313 685.576 319.148 677.517 329.706C676.518 330.909 675.652 332.179 674.853 333.515L663.597 351.691L583.273 480.463H740.524L699.962 316.007L802.065 480.463H842.027Z" fill="black"/>
<path d="M606.318 315.673L525.528 445.446C523.197 449.189 519.467 449.59 518.002 449.59C516.536 449.59 512.807 449.122 510.542 445.313L432.483 315.673H393.254L481.836 462.821C489.495 475.584 502.949 483.202 517.735 483.336C517.868 483.336 518.002 483.336 518.135 483.336C532.788 483.336 546.175 475.919 554.034 463.422L645.947 315.673H606.318Z" fill="black"/>
<path d="M234.006 377.486C234.006 362.25 246.394 349.821 261.579 349.821H337.774C352.693 349.821 353.092 363.453 353.092 364.923V366.995C353.092 369.534 352.426 382.297 338.972 382.297H234.006V377.486ZM261.579 446.249C246.327 446.249 234.006 433.017 234.006 417.781V416.378L337.707 416.311C369.743 416.311 387.06 391.185 387.06 367.529V364.455L387.193 364.388C387.193 340.732 369.876 315.606 337.84 315.606H261.579C227.612 315.606 199.971 343.339 199.971 377.419V417.714C199.971 451.795 227.612 480.329 261.579 480.329H380.666V446.249H261.579Z" fill="black"/>
<path d="M0.0273438 377.486V418.583C0.0273438 452.664 27.6677 480.396 61.6354 480.396H179.59V446.248H61.6354C46.4499 446.248 34.0616 433.819 34.0616 418.583V377.486C34.0616 362.25 46.4499 349.82 61.6354 349.82H180.056V315.673H61.6354C27.6677 315.673 0.0273438 343.405 0.0273438 377.486Z" fill="black"/>
</svg>
