<svg width="911" height="798" viewBox="0 0 911 798" fill="none" xmlns="http://www.w3.org/2000/svg">
<path d="M81.5779 289.249C81.5779 285.905 82.8854 284.042 83.3494 283.407C89.7604 274.475 109.078 277.947 109.078 289.249L109.204 450.238C109.204 465.859 88.4107 468.61 76.2214 470.515C40.1174 476.145 3.50723 468.441 0.72351 425.474C-0.373106 408.372 -1.04795 373.49 5.0678 358.293C14.1782 335.645 37.2071 328.364 60.1095 330.777C67.7015 331.581 75.2513 334.164 81.6201 337.338V289.292L81.5779 289.249ZM81.114 364.939C64.9178 351.774 31.1757 350.588 28.3076 376.834C27.1267 387.756 27.1267 414.51 28.3076 425.432C31.1757 451.847 62.9776 448.883 81.4514 442.915L81.114 364.939Z" fill="black"/>
<path d="M249.613 340.471C257.711 348.514 251.343 363.076 239.111 361.976C225.614 360.748 216.757 351.562 200.477 356.811C189.004 360.536 185.461 373.067 195.753 380.56C216.251 395.418 253.452 390.719 256.531 426.363C260.495 471.955 209.713 479.659 176.393 466.621C167.156 463.022 158.341 456.461 164.415 445.539C171.079 433.517 191.661 446.005 202.838 446.809C214.015 447.614 234.767 442.788 229.031 427.209C224.813 415.695 194.023 408.668 182.973 402.869C152.394 386.825 157.076 343.773 189.215 333.19C202.838 328.703 238.9 329.846 249.571 340.429L249.613 340.471Z" fill="black"/>
<path d="M396.644 460.736C396.644 476.061 369.735 476.315 369.735 460.736L369.356 375.31C369.356 352.282 330.847 351.266 316.718 366.505L315.79 459.467C315.79 476.907 288.881 476.145 288.881 459.467L289.007 290.138C289.007 278.37 306.131 273.629 313.681 282.434C314.187 283.026 316.507 285.778 316.507 290.138V337.211C324.057 335.434 331.1 331.497 338.988 330.65C370.368 327.348 397.361 345.805 397.361 374.845L396.644 460.652V460.736Z" fill="black"/>
<path d="M435.406 461.625C439.244 476.696 460.839 475.722 463.032 459.636V344.408C463.032 333.486 455.313 328.66 444.642 330.862C440.087 331.793 435.363 336.069 435.363 341.614V461.668L435.406 461.625Z" fill="black"/>
<path d="M449.24 310.839C458.371 310.839 465.773 303.409 465.773 294.244C465.773 285.08 458.371 277.65 449.24 277.65C440.109 277.65 432.706 285.08 432.706 294.244C432.706 303.409 440.109 310.839 449.24 310.839Z" fill="black"/>
<path d="M501.034 354.864C501.793 345.17 504.746 340.767 513.729 337.084C539.289 326.586 585.769 324.977 602.302 351.647C613.564 369.807 613.479 426.405 604.917 445.582C592.264 473.902 554.768 478.304 529.63 464.97V516.911C529.63 521.652 526.762 524.7 525.37 525.97C516.597 534.14 501.371 528.214 501.203 515.853L501.076 354.906L501.034 354.864ZM529.715 359.309V437.623C542.748 449.18 571.724 452.228 579.864 433.856C584.377 423.738 584.419 378.528 579.737 368.495C573.2 354.483 555.527 354.779 542.537 356.43C540.639 356.684 530.179 358.547 529.715 359.309Z" fill="black"/>
<path d="M790.203 222.957C790.203 222.957 743.218 279.132 743.175 279.217C740.898 281.968 733.095 282.053 729.847 282.137C723.31 282.307 716.814 282.391 710.277 282.476C696.949 282.645 683.621 282.645 670.292 282.518C643.636 282.264 617.022 281.418 590.408 279.979C582.268 279.555 567.801 277.693 565.861 271.808C564.553 266.856 578.894 263.257 582.858 262.453L790.246 222.957H790.203Z" fill="black"/>
<path d="M911 234.387L726.22 366.082C718.881 370.908 711.12 373.829 708.927 370.315C705.131 364.812 714.157 353.933 719.05 346.482C723.268 340.09 728.16 333.952 732.758 327.814C761.607 289.461 794.295 253.267 825.422 216.734L911 234.387Z" fill="black"/>
</svg>
