<?xml version="1.0" encoding="UTF-8"?>
<svg id="Layer_1" xmlns="http://www.w3.org/2000/svg" version="1.1" viewBox="0 0 252 144">
  <!-- Generator: Adobe Illustrator 29.8.1, SVG Export Plug-In . SVG Version: 2.1.1 Build 2)  -->
  <defs>
    <style>
      .st0 {
        fill: none;
      }
    </style>
  </defs>
  <g>
    <g>
      <path d="M37.35,52.16c0-.79.31-1.23.42-1.38,1.52-2.11,6.1-1.29,6.1,1.38l.03,38.03c0,3.69-4.93,4.34-7.82,4.79-8.56,1.33-17.24-.49-17.9-10.64-.26-4.04-.42-12.28,1.03-15.87,2.16-5.35,7.62-7.07,13.05-6.5,1.8.19,3.59.8,5.1,1.55v-11.35ZM37.24,70.04c-3.84-3.11-11.84-3.39-12.52,2.81-.28,2.58-.28,8.9,0,11.48.68,6.24,8.22,5.54,12.6,4.13l-.08-18.42Z"/>
      <path d="M77.19,64.26c1.92,1.9.41,5.34-2.49,5.08-3.2-.29-5.3-2.46-9.16-1.22-2.72.88-3.56,3.84-1.12,5.61,4.86,3.51,13.68,2.4,14.41,10.82.94,10.77-11.1,12.59-19,9.51-2.19-.85-4.28-2.4-2.84-4.98,1.58-2.84,6.46.11,9.11.3s7.57-.95,6.21-4.63c-1-2.72-8.3-4.38-10.92-5.75-7.25-3.79-6.14-13.96,1.48-16.46,3.23-1.06,11.78-.79,14.31,1.71Z"/>
      <path d="M112.05,92.67c0,3.62-6.38,3.68-6.38,0l-.09-20.18c0-5.44-9.13-5.68-12.48-2.08l-.22,21.96c0,4.12-6.38,3.94-6.38,0l.03-40c0-2.78,4.06-3.9,5.85-1.82.12.14.67.79.67,1.82v11.12c1.79-.42,3.46-1.35,5.33-1.55,7.44-.78,13.84,3.58,13.84,10.44l-.17,20.27Z"/>
      <g>
        <path d="M121.24,92.88c.91,3.56,6.03,3.33,6.55-.47v-27.22c0-2.58-1.83-3.72-4.36-3.2-1.08.22-2.2,1.23-2.2,2.54v28.36Z"/>
        <circle cx="124.52" cy="53.34" r="3.92"/>
      </g>
      <path d="M136.8,67.66c.18-2.29.88-3.33,3.01-4.2,6.06-2.48,17.08-2.86,21,3.44,2.67,4.29,2.65,17.66.62,22.19-3,6.69-11.89,7.73-17.85,4.58v12.27c0,1.12-.68,1.84-1.01,2.14-2.08,1.93-5.69.53-5.73-2.39l-.03-38.02ZM143.6,68.71v18.5c3.09,2.73,9.96,3.45,11.89-.89,1.07-2.39,1.08-13.07-.03-15.44-1.55-3.31-5.74-3.24-8.82-2.85-.45.06-2.93.5-3.04.68Z"/>
    </g>
    <g>
      <path d="M205.36,36.5s-11.14,13.27-11.15,13.29c-.54.65-2.39.67-3.16.69-1.55.04-3.09.06-4.64.08-3.16.04-6.32.04-9.48.01-6.32-.06-12.63-.26-18.94-.6-1.93-.1-5.36-.54-5.82-1.93-.31-1.17,3.09-2.02,4.03-2.21l49.17-9.33Z"/>
      <path d="M234,39.2l-43.81,31.11c-1.74,1.14-3.58,1.83-4.1,1-.9-1.3,1.24-3.87,2.4-5.63,1-1.51,2.16-2.96,3.25-4.41,6.84-9.06,14.59-17.61,21.97-26.24l20.29,4.17Z"/>
    </g>
  </g>
  <rect class="st0" width="252" height="144"/>
</svg>