<svg width="685" height="798" viewBox="0 0 685 798" fill="none" xmlns="http://www.w3.org/2000/svg">
<path d="M284.467 250.704C279.371 255.913 276.573 262.892 269.354 264.754C262.001 266.652 253.508 262.637 254.834 255.155C255.868 249.33 263.776 243.524 263.776 243.524C263.776 243.524 263.068 243.214 261.935 242.631C251.583 237.742 243.78 228.358 241.069 217C238.359 228.358 230.556 237.742 220.204 242.631C219.071 243.214 218.362 243.524 218.362 243.524C218.362 243.524 226.275 249.33 227.305 255.155C228.631 262.637 220.138 266.652 212.784 264.754C205.566 262.892 202.768 255.913 197.672 250.704C185.643 238.409 169.665 238.988 162.424 239.666C171.14 246.263 178.706 255.283 184.061 266.255C188.938 276.243 191.404 286.673 191.678 296.694C206.505 288.432 223.287 283.722 241.069 283.682C258.852 283.722 275.634 288.432 290.461 296.694C290.735 286.673 293.205 276.243 298.078 266.255C303.433 255.283 310.998 246.263 319.714 239.666C312.478 238.988 296.496 238.409 284.467 250.704Z" fill="black"/>
<path d="M662.669 479.875H685L618.556 315.75H577.957L511.513 479.875H533.844L554.523 428.795H641.994L662.673 479.875H662.669ZM562.878 408.147L591.926 336.402H604.583L633.628 408.147H562.878Z" fill="black"/>
<path d="M421.627 387.489V408.136H478.825C474.376 438.831 450.42 462.349 421.627 462.349C389.678 462.349 363.687 433.399 363.687 397.813C363.687 362.226 389.678 333.276 421.627 333.276C438.752 333.276 454.902 341.837 465.821 356.149H490.124L490.219 356.098C476.301 329.283 450.018 312.628 421.627 312.628C378.263 312.628 342.982 350.842 342.982 397.813C342.982 444.783 378.263 482.997 421.627 482.997C464.991 482.997 500.272 444.783 500.272 397.813V387.489H421.627Z" fill="black"/>
<path d="M241.069 483C197.705 483 162.424 444.787 162.424 397.816C162.424 350.845 197.705 312.632 241.069 312.632C284.434 312.632 319.714 350.845 319.714 397.816C319.714 444.787 284.434 483 241.069 483ZM241.069 333.279C209.12 333.279 183.13 362.229 183.13 397.816C183.13 433.403 209.12 462.352 241.069 462.352C273.018 462.352 299.009 433.403 299.009 397.816C299.009 362.229 273.018 333.279 241.069 333.279Z" fill="black"/>
<path d="M123.967 479.875H151.197L80.2558 397.845L151.197 315.75H123.861L61.8667 387.489H20.705V315.75H0V479.875H20.705V408.136H61.8412L123.967 479.875Z" fill="black"/>
</svg>
