<svg width="1141" height="798" viewBox="0 0 1141 798" fill="none" xmlns="http://www.w3.org/2000/svg">
<path d="M182.826 394.629C190.393 393.001 198.765 397.533 204.773 402.216L203.644 403.97L195.095 406.025C193.435 404.522 190.318 403.871 186.899 404.046C183.945 404.194 181.505 405.271 181.444 405.298L183.128 408.003L179.205 408.979C177.47 406.751 174.73 404.046 172.242 403.319V398.86H172.19V398.836C172.241 398.807 177.696 395.701 182.826 394.629Z" fill="black"/>
<path d="M209.728 360.691C213.727 362.696 228.382 371.587 230.619 373.841L224.385 382.556C218.905 379.049 208.243 373.84 204.999 372.838L209.728 360.691Z" fill="black"/>
<path d="M169.953 371.336C166.71 373.089 161.733 376.846 159.244 379.276C157.006 371.812 162.988 364.397 165.703 361.691L169.953 371.336Z" fill="black"/>
<path d="M185.868 354.755C191.097 354.755 196.779 356.006 200.776 357.959L198.539 370.859C194.542 368.129 181.394 368.629 175.912 369.856L171.94 358.436C174.931 356.232 180.639 354.755 185.868 354.755Z" fill="black"/>
<path fill-rule="evenodd" clip-rule="evenodd" d="M82.3591 164.522C86.7335 166.601 89.55 171.685 88.8212 177.696C92.0894 178.447 96.5892 177.747 99.8574 175.969C103.151 174.165 107.903 169.706 109.059 166.425C114.817 169.13 119.367 175.191 119.116 183.356C118.789 194.551 113.358 201.565 103.604 205.347C95.911 208.303 86.5084 210.608 85.3766 215.466C84.5973 218.697 85.6029 218.547 86.1058 219.448C88.1168 219.373 89.8272 218.722 92.0645 219.023C94.5279 219.349 96.5641 220.702 97.1173 223.832C96.1117 224.859 94.9038 226.463 94.753 228.667C94.5777 231.648 97.5689 236.057 99.052 240.765C101.113 247.202 101.718 251.26 99.7567 259.775C98.3486 265.861 92.593 274.876 89.8524 277.357C90.5815 280.488 94.4779 290.807 99.4056 303.431C100.235 302.78 101.09 302.129 101.944 301.528C107.174 297.871 112.755 294.714 118.689 292.06C132.567 285.873 148.381 282.491 166.231 282.491C171.787 282.491 177.143 282.892 182.347 283.518L187.098 258.523C187.098 258.523 187.651 255.842 189.536 255.842C191.406 255.842 192.064 258.626 192.075 258.672L199.492 287.026C204.595 288.428 209.473 290.182 214.149 292.236C226.745 297.946 237.682 305.962 247.01 315.905L270.894 296.367C270.941 296.322 273.397 294.022 274.891 294.89C276.392 295.787 274.758 299.312 274.741 299.349L261.616 335.116C265.739 341.803 269.36 349.017 272.502 356.707L313.131 341.703C313.131 341.703 315.67 340.575 316.701 341.928V341.952C317.706 343.305 315.343 345.661 315.343 345.661L281.1 383.656C285.424 401.69 287.611 421.426 287.611 442.139C287.611 454.813 286.783 467.062 285.173 478.834C256.487 478.308 201.679 488.327 155.168 531.733C132.166 553.723 117.182 581.071 114.264 584.48C109.714 584.029 105.867 581.701 102.975 579.422C116.753 553.298 136.915 534.236 149.536 523.441C169.548 506.359 181.592 500.499 202.836 489.603C184.307 493.411 164.243 502.378 146.921 514.124C140.711 518.633 134.301 523.718 127.714 529.429C123.465 533.436 119.544 537.644 116.15 541.952C102.75 559.034 93.9231 574.012 93.9231 574.012C89.4666 571.134 87.8214 569.141 87.79 569.102C59.6068 539.522 44.8733 493.636 44.8731 442.091C44.8731 413.337 49.0209 386.561 57.3676 363.418C56.9654 353.75 56.6648 345.008 56.5893 344.032C55.106 344.557 52.1888 344.408 48.8702 344.408C45.5519 344.408 42.7363 343.08 40.2475 341.427C37.7335 339.774 36.7268 338.195 35.5704 336.843C34.4144 335.54 33.8101 333.337 32.9556 331.359C29.6376 330.682 26.9988 327.376 26.8225 323.219C26.6214 319.287 27.8021 317.657 28.9585 315.529C28.2797 312.849 26.9736 306.236 27.1245 303.431C23.8061 303.431 19.9838 298.648 18.6761 295.342C17.4945 292.386 18.1746 289.381 19.9847 287.427C16.8679 287.427 15.2837 286.049 14.5293 284.621C13.3477 282.467 13.7226 279.861 15.3567 277.357C7.88996 274.376 -1.03368 263.981 0.0976191 248.653C0.751445 239.561 6.55854 228.34 7.23734 226.011C7.8656 223.682 7.71544 221.278 6.88625 219.275C10.7076 216.821 13.8491 218.598 15.0056 219.925C15.8352 218.598 20.4854 214.115 22.4719 212.636C19.8321 208.679 16.2871 201.014 17.343 191.897C18.9523 177.872 32.1518 168.279 48.0403 168.279C59.228 168.254 59.7572 170.107 67.7016 170.382C75.6462 170.608 80.9512 167.076 82.3591 164.522ZM146.118 424.482C130.959 420.375 120.325 426.459 115.146 431.218C104.939 440.56 100.639 449.077 97.8736 464.205C95.3092 478.331 98.2504 499.62 98.4014 509.289C98.6528 524.141 95.5856 543.279 91.5882 551.169C95.284 546.335 105.792 533.511 109.538 527.174C115.371 517.355 119.242 503.554 120.977 487.725V487.749H121.004C122.814 471.344 126.459 460.097 137.37 451.781C143.127 447.349 151.8 446.197 158.387 447.474L146.118 424.482ZM158.539 455.14C155.371 454.188 147.478 454.715 142.676 458.672C132.921 466.712 131.588 478.659 130.155 486.849C129.048 493.236 125.127 512.296 122.16 518.984H122.185C134.68 506.887 167.491 491.358 180.489 487.15C177.748 487.325 173.676 486.248 172.418 483.268L158.539 455.14ZM186.622 346.663C164.724 346.814 155.698 361.792 154.063 369.607C153.058 374.29 153.284 379.424 154.289 382.255C150.82 385.235 149.487 387.616 148.834 390.972C148.356 393.427 148.836 396.908 151.073 399.037C150.847 395.831 153.032 392.098 154.817 389.668C156.803 386.914 160.122 385.861 163.089 384.057L163.592 390.021C160.751 391.649 157.256 395.08 157.005 396.909L157.257 406.727L164.773 402.268L166.231 405.247L163.491 422.581L167.741 421.828L175.433 424.959L167.967 431.221V433.701C167.989 433.672 169.125 432.175 171.714 432.299C174.354 432.4 181.142 435.455 181.142 435.455L180.889 436.956H167.741C167.238 438.685 168.771 440.038 169.777 440.765C171.511 440.289 173.296 439.361 174.301 439.361C175.307 439.361 177.597 439.989 179.583 440.214L177.194 443.394C177.183 443.403 175.951 444.319 173.7 443.871C172.443 443.621 171.211 445.348 171.21 446.75C171.21 448.24 172.173 451.921 172.19 451.984C173.421 457.542 179.124 456.419 179.858 456.368C183.491 456.068 195.236 451.841 195.32 451.811L183.958 467.714L188.934 484.721C196.452 481.615 218.853 473.676 243.214 469.693C240.549 465.286 240.123 463.582 236.855 457.021L224.41 428.542L226.17 424.333C228.91 425.334 233.108 423.33 235.873 421.102C238.588 418.897 241.832 414.915 243.064 412.436C241.33 411.459 239.821 411.711 238.338 412.712C236.855 413.714 235.698 415.591 233.612 414.666C231.374 413.715 232.479 411.233 232.73 409.004C232.956 406.776 230.142 406.751 228.156 408.478C226.17 410.206 221.945 409.481 219.205 406.751C216.464 404.046 203.291 393.125 198.564 390.419C191.776 386.537 182.674 385.536 175.937 386.763C172.016 387.464 169.225 389.167 167.741 388.467L162.814 380.878L163.616 380.376C165.351 381.103 166.987 382.53 169.224 381.753C171.463 381.027 178.653 379.4 185.139 379.3C195.095 379.125 207.187 382.757 212.492 385.036C212.719 391.448 225.743 399.611 231.626 400.338C236.577 400.989 239.595 399.588 242.561 397.86L229.865 386.763L236.602 378.273C236.662 378.329 247.288 388.469 248.77 390.419C249.247 389.267 248.771 387.34 248.52 385.963L248.495 385.936C247.891 382.754 239.818 373.136 226.042 362.768C215.332 354.628 199.569 346.613 186.622 346.663ZM251.262 418.873C248.019 420.827 242.513 425.587 240.275 429.068H240.251V429.093C238.013 432.549 238.817 435.906 240.074 438.236C241.454 440.835 248.752 454.282 248.797 454.364C251.135 460.476 252.922 463.582 255.134 467.514C259.131 467.514 263.43 467.414 267.98 467.514C263.115 456.723 252.101 435.869 252.041 435.755L251.262 418.873ZM48.8726 260.326C46.5348 264.833 48.1415 267.338 50.2279 269.417C50.2452 269.434 50.2665 269.449 50.2844 269.466C51.96 271.104 56.345 272.443 60.638 272.771L61.7944 297.37C61.9433 297.602 62.1341 297.823 62.3591 298.033C63.8668 299.463 66.9919 300.364 69.7394 300.523V301.303L65.4403 304.458C65.5915 307.27 69.4131 387.538 70.2427 389.015C71.0763 390.531 90.6318 449.955 91.1095 453.587C91.1138 453.566 91.1173 453.544 91.1217 453.523C91.1254 453.546 91.1339 453.567 91.1365 453.587C92.5444 446.749 98.7047 431.869 105.669 425.081C112.73 418.197 121.351 415.162 126.666 415.263C126.697 415.264 126.728 415.265 126.759 415.266L126.757 415.263C126.766 415.263 126.776 415.263 126.786 415.263C125.652 413.929 119.673 400.06 119.497 398.758C119.32 397.401 117.008 380.099 116.354 378.945C116.303 378.856 116.04 378.21 115.593 377.091C113.614 372.125 108.051 357.829 101.667 341.39C90.016 311.373 75.6455 274.205 75.4477 273.6C75.1815 272.804 74.6654 270.894 73.8715 269.943C73.6839 269.715 73.4796 269.538 73.2577 269.442C72.0005 268.89 69.3367 267.413 67.7531 266.812C67.417 266.678 67.0191 266.423 66.5918 266.115C65.932 265.636 65.2009 265.034 64.527 264.552L64.4926 264.528C63.8219 264.045 63.2076 263.682 62.774 263.681C57.2943 263.681 51.0107 261.853 48.8726 260.326ZM127.208 377.091C127.284 377.467 127.41 377.943 127.41 378.219C127.611 380.899 128.44 385.983 128.264 389.113L141.665 398.305C141.338 396.001 140.935 394.474 141.463 391.669C141.941 388.889 142.469 387.46 143.977 385.156L127.208 377.091ZM251.736 374.063C254.728 376.518 259.63 387.938 259.882 392.146V392.173L303.3 351.296L251.736 374.063ZM222.696 350.266C227.599 351.995 238.032 360.711 240.521 362.689L266.867 306.735L222.696 350.266ZM149.789 360.363C151.524 355.179 157.859 348.817 162.057 346.463L118.438 307.039L149.789 360.363ZM181.095 339.448C186.576 338.446 198.919 339.572 202.917 341.576L190.346 270.618L181.095 339.448ZM48.6222 286.625C48.6222 288.252 47.8923 289.531 46.2333 290.032C44.6055 290.531 38.5161 294.805 38.465 294.841L39.7467 316.48C39.726 316.485 38.3574 316.848 37.4093 319.109C36.4793 321.438 36.9308 323.418 38.4135 324.42C41.9583 322.216 45.7314 321.315 50.1813 321.14C54.5054 320.965 59.9851 323.645 61.9711 324.772V324.745H61.922C62.6007 323.268 63.2544 322.615 63.0784 320.787C62.9021 318.96 61.6196 317.982 60.2623 316.83C60.9661 312.522 60.9416 308.389 60.7656 304.933C60.6146 301.477 59.4321 298.346 57.4462 295.516C55.3093 292.485 51.3373 288.453 48.6222 286.625ZM42.2092 264.308C37.2566 264.483 28.4586 268.915 26.1448 270.919L27.9543 275.378L24.6374 275.253C24.1346 277.482 24.4616 280.989 25.4672 282.968C28.4587 282.467 31.9532 282.316 34.0899 282.466L34.1144 282.491C32.3042 282.842 28.484 285.824 26.6236 288.904C27.152 290.908 29.3121 295.542 31.4235 296.819C31.9264 294.666 34.2659 291.109 35.4476 290.257C37.0815 289.08 38.7409 288.303 40.0732 287.652C41.4051 286.976 41.9095 286.324 41.9097 284.822C41.9097 283.319 41.7062 282.642 41.0528 281.165C42.3603 280.99 44.8243 281.188 45.6539 280.011C46.4832 278.884 46.8618 277.357 46.8618 275.879C46.8618 274.402 46.2063 274.076 44.7234 273.901C43.214 273.725 38.891 273.625 36.7292 273.8C36.7701 273.779 40.0769 272.071 41.0528 271.572C42.0326 271.096 42.3867 270.119 42.5628 269.268C42.7136 268.441 42.6617 266.587 42.2092 264.308ZM49.3023 246.574C43.998 246.574 38.6678 248.128 35.3494 250.933C32.333 253.513 31.8054 256.394 32.4842 260.727C33.4894 257.573 40.6716 253.891 49.9407 253.912C61.1972 253.94 66.5502 258.597 69.1894 261.076C69.5414 257.294 68.9383 253.938 65.3937 251.058C62.4271 248.703 57.2467 246.574 49.3023 246.574ZM49.9014 215.819C46.2561 215.819 44.4202 220.276 39.9455 221.278C36.5017 222.029 32.3284 219.951 30.2917 220.126C28.029 220.276 26.6711 222.03 25.6906 224.159C24.7102 226.313 23.8788 227.189 21.2394 227.841C19.1026 228.391 16.0862 226.54 14.6029 226.865C15.7591 228.017 16.3379 232.725 15.3076 235.455C13.9751 238.936 11.1346 242.569 10.7827 246.902C10.5062 250.734 11.7633 252.487 12.7689 255.292C12.0908 241.246 27.7911 232.079 50.6306 232.498V232.476C76.8023 233.002 88.6436 245.023 88.9955 254.942C90.3027 251.962 90.1536 249.156 89.9776 245.85C89.8519 243.221 85.8558 235.783 85.6786 233.302C85.5026 230.823 86.1799 229.194 86.6827 226.865C85.0229 227.191 79.216 229.494 76.7269 227.567C74.062 225.438 75.8968 220.126 72.4278 218.773C68.9589 217.447 63.4789 221.579 60.0094 221.104C56.515 220.603 53.5466 215.819 49.9014 215.819ZM79.268 177.446C77.1297 179.124 67.8041 180.027 64.1587 180.027C60.5133 180.027 53.3739 178.548 47.8685 178.823C35.7755 179.475 30.1937 188.017 29.7663 194.954L29.7417 194.979C29.4903 199.262 30.6456 203.72 32.6315 206.375C33.7629 207.903 36.4293 210.807 38.4405 210.682C41.2558 210.505 43.8963 205.149 50.5324 205.399C54.8311 205.575 57.6729 211.609 61.3181 211.81C64.1587 211.985 65.6188 209.18 68.4848 208.879C70.8967 208.63 71.7525 209.856 73.2602 211.308C74.2407 209.005 75.7005 207.451 79.3957 204.697C83.872 201.391 99.1073 198.259 105.568 192.499C108.81 189.568 109.54 184.259 108.509 180.653C106.046 184.084 99.2811 187.715 92.644 188.015C89.3255 188.215 81.3824 186.714 78.5658 185.261C79.9736 182.857 80.4495 180.101 79.268 177.446Z" fill="black"/>
<path d="M1096.95 374.711V379.381C1110.17 382.138 1113.16 390.408 1103.83 412.422L1089.49 445.731L1067.52 400.324C1061.17 387.115 1061.17 381.028 1072.98 379.381V374.711H981.167V334.548H975.93C961.329 353.27 944.319 369.772 931.399 377.773V383.019H950.052V449.636C950.052 473.297 965.724 482.639 985.219 482.639C1000.62 482.639 1010.83 477.126 1018.51 464.147L1015.22 461.122C1010.29 466.903 1005.59 469.392 1000.13 469.392C985.525 469.392 981.129 459.476 981.129 442.668V382.942H1008.92C1024.02 382.942 1028.45 388.455 1035.03 402.468L1072.94 482.562C1060.33 516.714 1049.32 530.458 1030.09 530.458C1025.97 530.458 1022.64 530.19 1016.07 527.97L1009.76 559.326C1013.62 559.9 1015.8 559.9 1018.55 559.9C1039.99 559.9 1051.81 550.788 1062.81 525.481L1115.03 405.99C1123.55 386.732 1126.84 382.866 1140.03 379.305V374.634H1096.87L1096.95 374.711Z" fill="black"/>
<path d="M921.931 410.821C912.872 402.015 905.724 397.344 898.576 397.344C889.249 397.344 883.477 401.173 875.488 412.199V454.62C875.488 466.986 877.934 470.853 893.071 473.916V478.587H827.096V473.916C840.857 470.585 844.412 466.45 844.412 454.62V399.832C844.412 386.624 838.64 380.536 825.491 379.464V374.793L870.825 370.659H875.526V403.699H876.062C886.267 381.111 897.505 370.659 910.425 370.659C917.267 370.659 923.88 373.683 928.849 379.464L921.969 410.859H921.931V410.821Z" fill="black"/>
<path d="M743.803 411.09C744.644 391.257 753.13 378.049 765.782 378.049C778.434 378.049 787.761 391.793 788.869 411.09H743.803ZM822.392 417.445C818.57 388.807 797.394 370.621 767.999 370.621C735.279 370.621 710.28 395.124 710.28 427.323C710.28 459.521 734.438 482.646 766.891 482.646C791.889 482.646 813.066 468.863 822.392 446.581H817.729C807.829 461.704 795.75 469.169 780.613 469.169C761.386 469.169 742.121 451.52 743.803 417.407H822.392V417.445Z" fill="black"/>
<path d="M608.865 397.038C619.3 387.39 624.804 384.634 633.061 384.634C651.446 384.634 663.831 402.283 663.831 427.59C663.831 461.435 648.465 475.218 625.377 475.218C612.993 475.218 608.903 469.705 608.903 457.875V397.038H608.865ZM608.865 306.185H604.163L562.116 309.21V313.881C571.749 315.527 577.826 320.504 577.826 329.31V478.549C593.46 481.574 608.903 482.646 628.397 482.646C678.968 482.646 698.195 456.229 698.195 424.298C698.195 392.367 676.751 370.621 648.732 370.621C633.901 370.621 621.211 376.67 608.865 389.611V306.185Z" fill="black"/>
<path d="M541.244 456.229C541.244 466.719 546.481 472.5 558.024 473.878V478.549H492.852V473.878C506.842 471.122 510.168 467.255 510.168 454.046V398.723C510.168 386.05 506.574 382.49 491.476 379.427V374.756L536.581 370.889H541.244V456.229ZM525.878 306.185C535.74 306.185 543.729 314.149 543.729 324.065C543.729 333.981 535.74 342.251 525.878 342.251C516.016 342.251 507.721 333.981 507.721 324.065C507.721 314.149 515.978 306.185 525.878 306.185Z" fill="black"/>
<path d="M417.82 452.129C417.82 465.338 423.324 469.472 443.125 469.472C462.925 469.472 471.984 463.423 484.904 436.7H489.567L484.904 478.585H362.051V473.914C380.475 469.204 382.348 465.07 382.348 447.764V344.775C382.348 330.456 378.793 326.321 362.051 322.186V317.477H438.155V322.186C422.216 326.321 417.82 329.613 417.82 343.664V452.167V452.129Z" fill="black"/>
</svg>
