<?xml version="1.0" encoding="UTF-8"?>
<svg id="Layer_1" xmlns="http://www.w3.org/2000/svg" version="1.1" viewBox="0 0 252 144">
  <!-- Generator: Adobe Illustrator 29.8.1, SVG Export Plug-In . SVG Version: 2.1.1 Build 2)  -->
  <defs>
    <style>
      .st0 {
        fill: none;
      }
    </style>
  </defs>
  <g>
    <g>
      <path d="M18.04,76.7c1.05-.22,1.7-1.05,1.7-1.99v-18.44c0-.91-.62-1.7-1.74-1.96v-.47c.43,0,2.68.07,3.3.07,1.05,0,4.02-.22,5.22-.22,4.13,0,8.12,1.99,8.12,6.85,0,4.02-3.37,6.74-8.23,6.74-1.3,0-2.68-.04-3.66-.18v7.61c0,.94.69,1.74,1.78,1.99v.47c-.43,0-2.72-.07-3.33-.07-.54,0-2.68.07-3.15.07v-.47ZM22.75,65.76c.62.11,1.92.22,3.04.22,4.17,0,5.65-2.54,5.65-5.47,0-3.41-2.25-5.62-5.87-5.62-.8,0-2.07.07-2.83.29v10.58Z"/>
      <path d="M38.81,65.58c0-6.49,4.46-12.1,11.49-12.1s11.45,5.58,11.45,12.1-4.46,11.96-11.45,11.96-11.49-5.44-11.49-11.96ZM58.45,65.58c0-5.43-2.43-10.65-8.15-10.65s-8.15,5.22-8.15,10.65,2.43,10.51,8.15,10.51,8.15-5.07,8.15-10.51Z"/>
      <path d="M66.63,76.7c1.05-.22,1.7-1.05,1.7-1.99v-18.44c0-.91-.62-1.7-1.74-1.96v-.47c.43,0,2.68.07,3.3.07,1.05,0,4.02-.22,5.22-.22,4.13,0,8.12,1.92,8.12,6.78,0,2.97-2.17,5.29-5.54,6.09l5.69,7.39c.83,1.09,1.96,2.21,2.93,2.75v.4c-2.9.47-4.13.25-5.91-2.06l-6.3-8.19c-1.02,0-1.99-.07-2.75-.18v8.04c0,.94.69,1.74,1.78,1.99v.47c-.43,0-2.72-.07-3.33-.07-.54,0-2.68.07-3.15.07v-.47ZM71.34,65.32c.62.11,1.92.22,3.04.22,4.17,0,5.65-2.68,5.65-5.11,0-3.41-2.25-5.54-5.87-5.54-.8,0-2.06.07-2.83.29v10.15Z"/>
      <path d="M94.17,76.7c1.05-.22,2.06-1.05,2.06-1.99v-19.2h-5.04c-1.52,0-2.39.58-2.93,2.68h-.47l-.07-4.49c1.23.07,2.68.22,10.04.22s8.77-.14,10-.22l-.07,4.49h-.47c-.51-2.07-1.38-2.68-2.94-2.68h-5.04v19.2c0,.94,1.05,1.74,2.14,1.99v.47c-.43,0-3.08-.07-3.7-.07-.54,0-3.04.07-3.51.07v-.47Z"/>
    </g>
    <g>
      <path d="M176.61,72.57l-.22,3.77c-.07-.04-.62.04-1.63.25-.94.22-3.51.94-5.98.94-7.94,0-12.14-5.33-12.14-12.03s4.67-12.03,12.14-12.03c2.21,0,4.67.72,5.62.94,1.02.22,1.52.25,1.63.25l.22,3.77h-.47c-.51-1.01-1.3-1.81-2.21-2.35-1.27-.76-3.04-1.16-4.78-1.16-5.58,0-8.84,4.67-8.84,10.58,0,4.82,3.12,10.58,8.84,10.58,2.17,0,3.88-.4,5.14-1.16.91-.54,1.7-1.34,2.21-2.35h.47Z"/>
      <path d="M181,76.7c1.2-.25,1.88-.8,1.88-1.96v-18.48c0-1.16-.69-1.7-1.88-1.96v-.47c.25,0,2.86.07,3.48.07.54,0,3.04-.07,3.33-.07v.47c-1.16.33-1.92.76-1.92,1.96v18.48c0,1.2.76,1.63,1.92,1.96v.47c-.25,0-2.79-.07-3.33-.07-.62,0-3.19.07-3.48.07v-.47Z"/>
      <path d="M196.94,76.7c1.05-.22,2.06-1.05,2.06-1.99v-19.2h-5.04c-1.52,0-2.39.58-2.93,2.68h-.47l-.07-4.49c1.23.07,2.68.22,10.04.22s8.77-.14,10-.22l-.07,4.49h-.47c-.51-2.07-1.38-2.68-2.94-2.68h-5.04v19.2c0,.94,1.05,1.74,2.14,1.99v.47c-.43,0-3.08-.07-3.7-.07-.54,0-3.04.07-3.51.07v-.47Z"/>
      <path d="M220.2,76.7c1.12-.22,1.78-1.05,1.78-1.99v-8.33l-5.98-9.35c-.8-1.23-1.88-2.28-2.79-2.72v-.47c.54,0,2.57.07,3.15.07.54,0,2.57-.07,3.15-.07v.47c-.4.07-.72.54-.72.87,0,.29.04.83.4,1.41l5.04,7.97,5.04-7.86c.47-.76.58-1.23.58-1.67,0-.36-.4-.65-.91-.72v-.47c.47,0,2.06.07,2.54.07s2.06-.07,2.54-.07v.47c-1.38.65-2.5,1.74-3.55,3.41l-5.43,8.52v8.48c0,.94.62,1.74,1.74,1.99v.47c-.47,0-2.72-.07-3.33-.07-.54,0-2.68.07-3.22.07v-.47Z"/>
    </g>
    <g>
      <polygon points="114.24 55.28 114.24 61.75 116.51 61.75 116.51 70.78 130.63 61.25 144.75 70.78 144.75 61.75 147.02 61.75 147.02 55.28 114.24 55.28"/>
      <polygon points="136.13 51.98 136.13 47.53 125.12 47.53 125.12 51.98 124.08 51.98 124.08 54.21 137.18 54.21 137.18 51.98 136.13 51.98"/>
      <path d="M161.79,96.47c-3.13-.66-6.07-2.46-7.78-3.67-2.64,2.11-5.44,3.1-8.31,2.97-3.14-.16-5.63-1.67-7.13-2.88-6.25,4.62-12.28,2.51-15.68-.07-5.92,4.13-11.62,2.4-14.96.12-3.17,2.5-8.07,3.04-8.72,3.1l-.41-4.37c2.14-.21,5.97-1.18,7.13-2.92.37-.55.96-.9,1.61-.96.65-.07,1.3.17,1.77.63.58.56,5.89,5.42,12.23-.1.89-.77,2.23-.71,3.04.14.6.62,6.09,5.92,12.6-.1.44-.41,1.03-.62,1.63-.58.6.04,1.16.32,1.54.78.02.02,2.36,2.69,5.61,2.83,2.11.1,4.28-.91,6.42-2.99.81-.79,2.1-.83,2.96-.1.03.03,3.69,3.11,7.36,3.88l-.9,4.3Z"/>
      <g>
        <path d="M125.97,87.13c.56.56,1.9,1.71,3.75,2.04v-24.75l-18.65,11.01,5.71,13.37c1.08-.27,2.26-.86,3.5-1.94,1.66-1.45,4.17-1.33,5.69.27Z"/>
        <path d="M138.92,85.85c1.12.07,2.17.6,2.89,1.46,0,0,1.03,1.14,2.55,1.76l5.82-13.64-18.65-11.01v24.79c1.31-.18,2.77-.83,4.33-2.27.83-.76,1.92-1.15,3.05-1.09Z"/>
      </g>
    </g>
  </g>
  <rect class="st0" width="252" height="144"/>
</svg>