<?xml version="1.0" encoding="UTF-8"?>
<svg id="Layer_1" xmlns="http://www.w3.org/2000/svg" version="1.1" viewBox="0 0 252 144">
  <!-- Generator: Adobe Illustrator 29.8.1, SVG Export Plug-In . SVG Version: 2.1.1 Build 2)  -->
  <defs>
    <style>
      .st0 {
        fill: none;
      }

      .st1 {
        fill-rule: evenodd;
      }
    </style>
  </defs>
  <g>
    <g>
      <rect x="124.3" y="94.38" width="109.7" height="2.78"/>
      <g>
        <g>
          <path d="M136.04,79.23c0,3.14-2.25,4.91-5.41,4.91h-2.57v4.8h-3.67v-14.25h6.14c3.63,0,5.51,1.72,5.51,4.54ZM130.45,81.23c1.42,0,2.13-.69,2.13-1.84s-.71-1.74-2.13-1.74h-2.39v3.59h2.39Z"/>
          <path d="M137.53,81.84c0-4.28,2.96-7.52,6.99-7.52,4.33,0,7.01,3.24,7.01,7.52s-2.94,7.5-7.01,7.5c-4.31,0-6.99-3.26-6.99-7.5ZM147.98,81.84c0-2.37-1.32-4.12-3.47-4.12s-3.45,1.74-3.45,4.12,1.3,4.1,3.45,4.1,3.47-1.7,3.47-4.1Z"/>
          <path d="M161.42,88.94l-2.8-5.11h-1.56v5.11h-3.67v-14.25h6.1c3.47,0,5.39,1.74,5.39,4.5,0,2.05-.97,3.45-2.62,4.16l3.3,5.6h-4.16ZM157.06,77.63v3.35h2.33c1.26,0,1.99-.63,1.99-1.7s-.73-1.64-2.01-1.64h-2.31Z"/>
          <path d="M178.89,77.89h-4.34v11.05h-3.65v-11.05h-4.34v-3.2h12.33v3.2Z"/>
          <path d="M180.2,87.58l1.54-2.84c1.4.87,2.74,1.44,4.46,1.44,1.22,0,2.03-.39,2.03-1.28s-.73-1.2-2.98-1.74c-2.39-.59-4.44-1.56-4.44-4.36s2.43-4.48,5.58-4.48c2.01,0,3.87.55,5.31,1.62l-1.72,2.62c-1.24-.79-2.6-1.09-3.93-1.09-1.07,0-1.68.37-1.68,1.03,0,.71.55.93,2.92,1.52,2.76.71,4.5,1.82,4.5,4.48,0,3.16-2.45,4.82-5.74,4.82-2.33,0-4.44-.67-5.84-1.74Z"/>
        </g>
        <g>
          <path d="M123.62,63.04c0-4.32,3.1-7.52,7.4-7.52,2.23,0,4.16.63,5.53,2.41l-2.55,2.23c-.69-.79-1.66-1.26-2.88-1.26-2.23,0-3.69,1.74-3.69,4.14s1.46,4.12,3.69,4.12c1.2,0,2.17-.45,2.84-1.2l2.49,2.17c-1.36,1.68-3.37,2.41-5.43,2.41-4.58,0-7.4-3.24-7.4-7.5Z"/>
          <path d="M147.79,70.14l-.77-2.33h-5.17l-.69,2.33h-3.79l4.95-14.25h4.28l5.09,14.25h-3.89ZM144.36,58.91l-1.72,5.78-.08.34h3.71l-.08-.36-1.82-5.76Z"/>
          <path d="M161.42,70.14l-2.8-5.11h-1.56v5.11h-3.67v-14.25h6.1c3.47,0,5.39,1.74,5.39,4.5,0,2.05-.97,3.45-2.62,4.16l3.3,5.6h-4.16ZM157.06,58.83v3.35h2.33c1.26,0,1.99-.63,1.99-1.7s-.73-1.64-2.01-1.64h-2.31Z"/>
          <path d="M167.06,63.04c0-4.28,2.96-7.52,6.99-7.52,4.33,0,7.01,3.24,7.01,7.52s-2.94,7.5-7.01,7.5c-4.31,0-6.99-3.26-6.99-7.5ZM177.51,63.04c0-2.37-1.32-4.12-3.47-4.12s-3.45,1.74-3.45,4.12,1.3,4.1,3.45,4.1,3.47-1.7,3.47-4.1Z"/>
          <path d="M187.3,66.92h5.92v3.22h-9.59v-14.25h3.67v11.03Z"/>
          <path d="M196.03,70.14v-14.25h3.67v14.25h-3.67Z"/>
          <path d="M211.87,55.89h3.39v14.25h-3.61l-6.15-8.74v8.74h-3.37v-14.25h3.61l6.13,8.7v-8.7Z"/>
          <path d="M227.95,70.14l-.77-2.33h-5.17l-.69,2.33h-3.79l4.95-14.25h4.28l5.09,14.25h-3.89ZM224.53,58.91l-1.72,5.78-.08.34h3.71l-.08-.36-1.82-5.76Z"/>
        </g>
        <g>
          <path d="M123.96,50.07l1.54-2.84c1.4.87,2.74,1.44,4.46,1.44,1.22,0,2.03-.39,2.03-1.28s-.73-1.2-2.98-1.74c-2.39-.59-4.44-1.56-4.44-4.36s2.43-4.48,5.58-4.48c2.01,0,3.87.55,5.31,1.62l-1.72,2.62c-1.24-.79-2.6-1.09-3.93-1.09-1.07,0-1.68.36-1.68,1.03,0,.71.55.93,2.92,1.52,2.76.71,4.5,1.82,4.5,4.48,0,3.16-2.45,4.82-5.74,4.82-2.33,0-4.44-.67-5.84-1.74Z"/>
          <path d="M137.53,44.33c0-4.28,2.96-7.52,6.99-7.52,4.33,0,7.01,3.24,7.01,7.52s-2.94,7.5-7.01,7.5c-4.31,0-6.99-3.26-6.99-7.5ZM147.98,44.33c0-2.37-1.32-4.12-3.47-4.12s-3.45,1.74-3.45,4.12,1.3,4.1,3.45,4.1,3.47-1.7,3.47-4.1Z"/>
          <path d="M162.51,37.17h3.57v8.6c0,3.53-2.35,6.06-6.04,6.06-4.08,0-6.26-2.53-6.26-6.06v-8.6h3.67v8.45c0,1.62.81,2.82,2.6,2.82,1.68,0,2.47-1.2,2.47-2.82v-8.45Z"/>
          <path d="M181,40.38h-4.34v11.05h-3.65v-11.05h-4.34v-3.2h12.33v3.2Z"/>
          <path d="M192.65,37.17h3.67v14.25h-3.67v-5.49h-5.35v5.49h-3.67v-14.25h3.67v5.43h5.35v-5.43Z"/>
        </g>
      </g>
    </g>
    <g>
      <g>
        <path class="st1" d="M111.26,70.37c-1.24,0-2.25,1.01-2.25,2.25s1,2.25,2.25,2.25,2.25-1,2.25-2.25-.99-2.25-2.25-2.25h0ZM111.26,74.6c-1.09,0-1.97-.88-1.97-1.98s.88-1.97,1.97-1.97,1.98.87,1.98,1.97-.88,1.98-1.98,1.98h0Z"/>
        <path class="st1" d="M112.43,72.03c0-.22-.11-.44-.29-.54-.19-.12-.41-.12-.62-.12h-1.09v2.52h.31v-1.17h.56l.73,1.17h.35l-.75-1.17h0c.44-.01.81-.19.81-.68h0ZM111.21,72.48h-.47v-.9h.72c.31,0,.66.05.66.44,0,.51-.55.46-.9.46h0Z"/>
      </g>
      <path d="M82.99,101.91l12.76-11.22s-10.41-.41-12.76,11.22Z"/>
      <path d="M98.84,88.2c-2.76-.26-6.62-.15-9.72,1.75-4.92,3.02-6.15,6.45-6.81,8.29-.12.33-.22.61-.33.88-.05.11-.11.26-.17.44-.93,2.4-3.76,9.69-11.64,10.63-.83.1-1.62.15-2.36.15-6.86,0-10.22-3.88-11.41-5.69-.29-.44-.64-1.04-1.29-2.56-10.6-24.45-27.28-35.95-27.28-35.95,0,0,5.51-.61,8.99,1.99,12.65,10.01,20.44,25.51,23.31,31.59.37.79.79,1.68.92,1.9.96,1.81,3.52,3.65,8.46,3.06,4.05-.49,5.94-4.06,7.13-7.13.09-.24.18-.44.24-.6.08-.2.13-.35.22-.59.76-2.13,2.82-6.84,9.4-10.88,7.53-4.62,16.93-1.81,17.35-1.69l-4.99,4.41Z"/>
      <path d="M105.37,82.57l.15-3.78c.47-8.53,5.83-10.9,7.81-11.58,1.29-.46,2.38-.34,2.38-.34v-5.79l-22.18-20.52h-23.54c-1.49-.75-1.64-2.76-1.61-3.47v-3.43h-26.77c-11.45,0-17.25,5.28-20.1,9.71-3.07,4.78-3.38,9.57-3.4,9.78l-.13,2.27,2.2.58c14.18,3.72,24.61,14.53,30.86,22.95,6.89,9.28,10.38,17.8,10.42,17.88l.07.15c.41.87.93,5.15,6.46,5.15.03,0,.06,0,.09,0,4.23,0,4.73-2,6.37-5.81,8.22-19,26.37-15.16,27.13-14.99,1.86.44,3.77,1.23,3.77,1.23ZM88.52,49.71l-7.34-3.59h7.34v3.59ZM94.07,48.63l8.71,8.06-8.71-4.26v-3.8ZM24.07,51.35c.35-1.39,1.02-3.28,2.25-5.14,2.38-3.58,6-5.79,10.79-6.61,1.27,1.12,6.03,5.57,11.34,13.57,1.65,2.48,3.24,5.07,5.05,8.55l-7.71,2.92c-6.72-6.32-14.06-10.82-21.72-13.28ZM55.61,75.76c-1.76-2.38-4.08-5.25-5.97-7.33l6.16-2.05c2.64,5.8,5.53,13.48,7.48,21.47-1.81-3.35-4.36-7.61-7.67-12.09ZM67.97,96.48s-.03-.03-.05-.04l.1-.02s-.04.04-.06.06ZM70.03,92.71c-1.97-10.15-4.87-18.82-8-26.03l32.86,8.78c-1.53.1-3.2.32-4.95.72-6.22,1.42-14.6,5.46-19.91,16.53ZM58.93,60.13c-2.07-4.03-4.13-7.46-6.02-10.28-3.12-4.67-6.05-8.19-8.3-10.63h18.35c.42,2.19.72,4.91,4.66,6.9l38.89,18.58c-1.87,1.52-3.9,3.71-5.3,6.69l-42.28-11.27Z"/>
    </g>
  </g>
  <rect class="st0" width="252" height="144"/>
</svg>