<?xml version="1.0" encoding="UTF-8"?>
<svg id="Layer_1" xmlns="http://www.w3.org/2000/svg" version="1.1" viewBox="0 0 252 144">
  <!-- Generator: Adobe Illustrator 29.8.1, SVG Export Plug-In . SVG Version: 2.1.1 Build 2)  -->
  <defs>
    <style>
      .st0 {
        fill: none;
      }
    </style>
  </defs>
  <g>
    <g>
      <path d="M75.42,77.44l2.98-.26c.14,1.2.47,2.18.99,2.94.52.77,1.32,1.39,2.41,1.86,1.09.47,2.31.71,3.67.71,1.21,0,2.27-.18,3.2-.54.92-.36,1.61-.85,2.06-1.48.45-.63.68-1.31.68-2.05s-.22-1.41-.65-1.97c-.43-.56-1.15-1.03-2.15-1.41-.64-.25-2.06-.64-4.26-1.17-2.2-.53-3.74-1.02-4.62-1.49-1.14-.6-1.99-1.34-2.55-2.23-.56-.89-.84-1.88-.84-2.98,0-1.21.34-2.33,1.03-3.38.69-1.05,1.69-1.85,3-2.39,1.32-.54,2.78-.82,4.39-.82,1.77,0,3.34.29,4.69.86,1.35.57,2.39,1.41,3.12,2.52.73,1.11,1.12,2.36,1.17,3.77l-3.03.23c-.16-1.51-.72-2.65-1.66-3.43-.94-.77-2.33-1.16-4.17-1.16s-3.31.35-4.18,1.05c-.88.7-1.31,1.55-1.31,2.54,0,.86.31,1.57.93,2.12.61.55,2.2,1.12,4.77,1.7,2.57.58,4.34,1.09,5.29,1.53,1.39.64,2.42,1.45,3.08,2.44.66.98.99,2.12.99,3.4s-.36,2.47-1.09,3.6c-.73,1.13-1.78,2-3.14,2.63-1.36.62-2.9.94-4.61.94-2.16,0-3.98-.32-5.44-.95-1.46-.63-2.61-1.58-3.44-2.85-.83-1.27-1.27-2.7-1.31-4.3Z"/>
      <path d="M94.15,77.44l2.98-.26c.14,1.2.47,2.18.99,2.94.52.77,1.32,1.39,2.41,1.86,1.09.47,2.31.71,3.67.71,1.21,0,2.27-.18,3.2-.54.92-.36,1.61-.85,2.06-1.48.45-.63.68-1.31.68-2.05s-.22-1.41-.65-1.97c-.43-.56-1.15-1.03-2.15-1.41-.64-.25-2.06-.64-4.26-1.17-2.2-.53-3.74-1.02-4.62-1.49-1.14-.6-1.99-1.34-2.55-2.23-.56-.89-.84-1.88-.84-2.98,0-1.21.34-2.33,1.03-3.38.69-1.05,1.69-1.85,3-2.39,1.32-.54,2.78-.82,4.39-.82,1.77,0,3.34.29,4.69.86,1.35.57,2.39,1.41,3.12,2.52.73,1.11,1.12,2.36,1.17,3.77l-3.03.23c-.16-1.51-.72-2.65-1.66-3.43-.94-.77-2.33-1.16-4.17-1.16s-3.31.35-4.18,1.05c-.88.7-1.31,1.55-1.31,2.54,0,.86.31,1.57.93,2.12.61.55,2.2,1.12,4.77,1.7,2.57.58,4.34,1.09,5.29,1.53,1.39.64,2.42,1.45,3.08,2.44.66.98.99,2.12.99,3.4s-.36,2.47-1.09,3.6c-.73,1.13-1.78,2-3.14,2.63-1.36.62-2.9.94-4.61.94-2.16,0-3.98-.32-5.44-.95-1.46-.63-2.61-1.58-3.44-2.85-.83-1.27-1.27-2.7-1.31-4.3Z"/>
      <path d="M110.56,85.13l9.18-23.91h3.41l9.79,23.91h-3.6l-2.79-7.24h-10l-2.63,7.24h-3.36ZM117.46,75.31h8.11l-2.5-6.62c-.76-2.01-1.33-3.66-1.7-4.96-.3,1.53-.73,3.06-1.29,4.57l-2.63,7.01Z"/>
      <path d="M137.61,85.13v-23.91h4.76l5.66,16.93c.52,1.58.9,2.76,1.14,3.54.27-.87.7-2.15,1.27-3.83l5.72-16.64h4.26v23.91h-3.05v-20.01l-6.95,20.01h-2.85l-6.92-20.36v20.36h-3.05Z"/>
      <path d="M174.32,82.99c-1.09.92-2.13,1.58-3.14,1.96-1.01.38-2.09.57-3.24.57-1.9,0-3.37-.46-4.39-1.39-1.02-.93-1.53-2.12-1.53-3.56,0-.85.19-1.62.58-2.32.39-.7.89-1.26,1.52-1.69.63-.42,1.33-.74,2.11-.96.58-.15,1.45-.3,2.61-.44,2.37-.28,4.12-.62,5.24-1.01.01-.4.02-.66.02-.77,0-1.2-.28-2.04-.83-2.53-.75-.66-1.86-.99-3.34-.99-1.38,0-2.4.24-3.06.73-.66.48-1.14,1.34-1.46,2.57l-2.87-.39c.26-1.23.69-2.22,1.29-2.98.6-.76,1.46-1.34,2.59-1.75,1.13-.41,2.44-.61,3.93-.61s2.68.17,3.6.52c.92.35,1.6.79,2.04,1.31.43.53.74,1.19.91,2,.1.5.15,1.4.15,2.71v3.91c0,2.73.06,4.46.19,5.18.12.72.37,1.42.74,2.08h-3.07c-.3-.61-.5-1.32-.59-2.14ZM174.07,76.43c-1.07.44-2.66.8-4.8,1.11-1.21.17-2.06.37-2.56.59-.5.22-.89.54-1.16.95-.27.42-.41.88-.41,1.39,0,.78.3,1.44.89,1.96.59.52,1.46.78,2.6.78s2.14-.25,3.02-.74c.88-.49,1.53-1.17,1.94-2.03.32-.66.47-1.64.47-2.94v-1.08Z"/>
      <path d="M180.24,85.13v-17.32h2.64v2.63c.67-1.23,1.3-2.04,1.87-2.43.57-.39,1.2-.59,1.88-.59.99,0,2,.32,3.02.95l-1.01,2.72c-.72-.42-1.44-.64-2.15-.64-.64,0-1.22.19-1.73.58-.51.39-.88.92-1.09,1.61-.33,1.04-.49,2.19-.49,3.43v9.07h-2.94Z"/>
      <path d="M192.85,64.59v-3.38h2.94v3.38h-2.94ZM192.85,85.13v-17.32h2.94v17.32h-2.94Z"/>
      <path d="M200.79,85.13v-17.32h2.64v2.46c1.27-1.9,3.11-2.85,5.51-2.85,1.04,0,2,.19,2.88.56.88.38,1.53.87,1.97,1.48.43.61.74,1.33.91,2.17.11.54.16,1.5.16,2.85v10.65h-2.94v-10.54c0-1.2-.11-2.09-.34-2.68-.23-.59-.63-1.07-1.22-1.42-.58-.35-1.26-.53-2.05-.53-1.25,0-2.33.4-3.24,1.19-.91.79-1.36,2.3-1.36,4.52v9.46h-2.94Z"/>
      <path d="M230.87,79.55l3.03.38c-.48,1.77-1.36,3.15-2.66,4.13s-2.95,1.47-4.96,1.47c-2.53,0-4.54-.78-6.03-2.34-1.48-1.56-2.23-3.75-2.23-6.56s.75-5.18,2.25-6.79c1.5-1.61,3.45-2.41,5.84-2.41s4.21.79,5.68,2.36c1.47,1.58,2.2,3.8,2.2,6.65,0,.17,0,.44-.02.78h-12.92c.11,1.9.65,3.36,1.61,4.37.97,1.01,2.17,1.52,3.62,1.52,1.08,0,2-.28,2.76-.85.76-.57,1.36-1.47,1.81-2.71ZM221.23,74.8h9.67c-.13-1.46-.5-2.55-1.11-3.28-.94-1.13-2.15-1.7-3.64-1.7-1.35,0-2.48.45-3.4,1.35-.92.9-1.43,2.11-1.52,3.62Z"/>
    </g>
    <g>
      <path d="M43.81,59.61s4.28-2.67,12.72-2.98c-4.07-4.19-9.8-6.8-16.14-6.8-6.85,0-12.98,3.05-17.09,7.85,2.13-.62,10.74-2.64,20.51,1.93Z"/>
      <path d="M41.37,60.81s-5.31-4.1-18.81-2.21c-2.86,3.72-4.56,8.36-4.56,13.4,0,6.66,2.97,12.64,7.68,16.7-.43-5.09,0-19.01,15.69-27.9Z"/>
      <path d="M61.26,80.06c.99-2.5,1.53-5.22,1.53-8.06,0-5.26-1.85-10.09-4.95-13.89-1.93,0-7.34.2-11.76,2.5,0,0,12.14,5.9,15.18,19.46Z"/>
      <path d="M43.85,61.76s-18.32,10.12-10.65,31.24c2.26.76,4.67,1.17,7.19,1.17,5.14,0,9.88-1.72,13.66-4.6,2.68-5.12,5.45-16.08-10.2-27.8Z"/>
    </g>
  </g>
  <rect class="st0" width="252" height="144"/>
</svg>