<?xml version="1.0" encoding="UTF-8"?>
<svg id="Layer_1" xmlns="http://www.w3.org/2000/svg" version="1.1" viewBox="0 0 252 252">
  <!-- Generator: Adobe Illustrator 29.8.1, SVG Export Plug-In . SVG Version: 2.1.1 Build 2)  -->
  <defs>
    <style>
      .st0 {
        fill: none;
      }
    </style>
  </defs>
  <g>
    <path d="M126,234c-28.85,0-55.97-11.23-76.37-31.63-20.4-20.4-31.63-47.52-31.63-76.37s11.23-55.97,31.63-76.37c20.4-20.4,47.52-31.63,76.37-31.63s55.97,11.23,76.37,31.63c20.4,20.4,31.63,47.52,31.63,76.37s-11.23,55.97-31.63,76.37c-20.4,20.4-47.52,31.63-76.37,31.63ZM126,22.32c-57.17,0-103.68,46.51-103.68,103.68s46.51,103.68,103.68,103.68,103.68-46.51,103.68-103.68S183.17,22.32,126,22.32Z"/>
    <path d="M126,202.87c-42.39,0-76.87-34.48-76.87-76.87S83.61,49.13,126,49.13s76.87,34.48,76.87,76.87-34.48,76.87-76.87,76.87ZM126,53.45c-40,0-72.55,32.54-72.55,72.55s32.54,72.55,72.55,72.55,72.55-32.54,72.55-72.55-32.54-72.55-72.55-72.55Z"/>
    <g>
      <g>
        <circle cx="69.32" cy="95.95" r="5.45"/>
        <rect x="78.48" y="94.64" width="4.32" height="99.37" transform="translate(-30.77 22.18) rotate(-13.17)"/>
      </g>
      <path d="M163.98,87.52s-3.3,2.64-18.03.57c-14.72-2.07-23.23,1.85-29.11,6.1-5.88,4.26-9.18,5.49-11.53,6.39s-10.4,2.07-16.35.82c-6.68-1.4-12.52-.45-12.52-.45l14.69,63.97c10.98-.43,5.48.15,18.14.99,12.65.84,19.65-5.99,25.98-9.85,6.33-3.86,14.95-5.15,26.2-3.81,11.25,1.34,18.21-.67,18.21-.67l-15.68-64.06ZM127.66,150.2c-14.18,0-25.68-11.5-25.68-25.68s11.5-25.68,25.68-25.68,25.68,11.5,25.68,25.68-11.5,25.68-25.68,25.68Z"/>
    </g>
    <g>
      <path d="M64.96,184.42l.67-.61,2.23,2.44-3.08,2.81-2.23-2.44c.53-.96.59-1.92-.15-2.73-.45-.49-.98-.56-1.38-.2-.64.58-.19,1.26.28,2.9l.34,1.18c.66,2.26.61,4.39-1.08,5.93-1.82,1.66-4.66,1.5-6.54-.56-.82-.89-1.39-2.19-1.51-3.39l-.72.66-2.23-2.44,3.48-3.18,2.23,2.44c-.7,1.25-.65,2.14.1,2.96.48.53,1.04.63,1.49.22.43-.39.45-1.08-.03-2.46l-.35-1.03c-.85-2.47-.89-4.6.78-6.13,1.91-1.75,4.48-1.54,6.31.47.86.94,1.33,2.03,1.39,3.15Z"/>
      <path d="M77.15,193.93l-2.2,2.75-1.06-.85-4.76,5.96,1.06.85-2.2,2.75-6.57-5.25,2.2-2.75,1.06.85,4.76-5.96-1.06-.85,2.2-2.75,6.57,5.25Z"/>
      <path d="M85.32,199.02l1.09,9.28.04.02,1.96-3.66-1.09-.58,1.66-3.11,5.22,2.79-1.66,3.11-1.12-.6-5.37,10.05-4.27-2.28-1.23-10.78-.04-.02-2.43,4.56,1.16.62-1.66,3.11-5.32-2.84,1.66-3.11,1.14.61,3.6-6.73-1.14-.61,1.66-3.11,6.14,3.28Z"/>
      <path d="M107.51,208.59l.25-.94,3.4.92-1.4,5.17-3.53-.95c-.07-1.47-.76-2.42-1.86-2.72-1.59-.43-2.66.74-3.36,3.32-.75,2.75-.36,4.23,1.29,4.67,1.42.38,2.5-.4,3.49-2.46l3.32,2.31c-1.86,3.39-4.66,4.29-8.43,3.27-5.07-1.37-6.96-5.24-5.79-9.56,1.14-4.19,5.01-6.42,8.93-5.35,1.56.42,2.89,1.23,3.69,2.32Z"/>
      <path d="M128.49,209.8l-.24,4.68-3.84-.2.06-1.17-3.32-.17-.12,2.24,2.89.15-.15,2.98-2.89-.15-.12,2.4,3.32.17.06-1.17,3.84.2-.24,4.68-13.99-.72.18-3.52,1.14.06.39-7.62-1.14-.06.18-3.52,13.99.72Z"/>
      <path d="M149.46,205.95l2.91,11.26,1.95-.5.84,3.24-8.5,2.2-.84-3.24,2.03-.53-1.69-6.53c-.33.2-.84.37-1.47.54-.15.04-.33.09-.53.11l-.81-3.14.21-.05c1.82-.47,3.2-1.52,3.76-2.8l2.13-.55Z"/>
      <path d="M170.74,205.37c2.05,4.29,1.05,7.86-2.9,9.76-2.71,1.3-5.01,1.01-6.53-.92l3.18-1.88c.63.56,1.35.67,2.11.31,1.27-.61,1.47-2.04.54-3.97l-.06-.12c-.47.87-1.39,1.7-2.33,2.15-2.46,1.18-5.14.23-6.32-2.23-1.28-2.67.02-5.67,3.02-7.1,3.3-1.58,7.11-.53,9.28,4.02ZM164.62,207.46c.47-.22,1.03-.71,1.4-1.34-.94-1.97-1.95-2.73-3.18-2.14-.84.4-1.11,1.18-.55,2.35.56,1.17,1.46,1.55,2.34,1.13Z"/>
      <path d="M177.63,191.37l6.93,9.34,1.61-1.2,2,2.69-7.05,5.23-2-2.69,1.68-1.25-4.02-5.42c-.23.31-.64.66-1.16,1.05-.12.09-.28.21-.45.3l-1.93-2.6.17-.13c1.51-1.12,2.4-2.61,2.43-4.01l1.77-1.31Z"/>
      <path d="M194.22,180.93c1.07.98,1.28,2.29.68,3.7l.03.03c1.52-1.04,3.08-.96,4.42.27,2.06,1.89,1.68,4.88-.96,7.77-2.69,2.93-5.44,3.34-7.97,1.11l2.36-2.99c1.22,1,2.21.98,3.16-.06.76-.83.75-1.75-.01-2.45-.88-.8-1.86-.65-3.01.5l-1.75-1.61c.79-1.27.8-2.02.08-2.68-.69-.63-1.52-.55-2.15.14-.63.69-.65,1.51.1,2.32h.02s-2.83,2.78-2.83,2.78c-1.97-2.07-1.68-4.59.87-7.38,2.45-2.68,5.11-3.14,6.96-1.45Z"/>
    </g>
    <g>
      <circle cx="211.02" cy="118.16" r="2.54"/>
      <g>
        <path d="M41.36,121.03l-2.88-2.11c1.16-1.4,1.98-2.78,2.24-4.67.18-1.33-.12-2.28-1.1-2.41-.98-.13-1.42.62-2.35,3-1,2.53-2.37,4.63-5.43,4.21-3.2-.43-4.54-3.33-4.08-6.77.3-2.2,1.17-4.16,2.56-5.57l2.61,2.27c-1.05,1.24-1.58,2.68-1.78,4.14-.16,1.18.15,1.9.88,2,.78.11,1.1-.46,2.1-2.97,1.19-2.91,2.67-4.66,5.57-4.26,3.46.47,4.92,3.4,4.43,7-.35,2.55-1.39,4.76-2.77,6.13Z"/>
        <path d="M37.32,90.55l-1.46,4.57,11.63,3.71-1.22,3.84-11.63-3.71-1.46,4.57-3.37-1.07,4.14-12.97,3.37,1.07Z"/>
        <path d="M48.87,87.03l3.26-6.23,2.98,1.56-5.14,9.82-13.95-7.3,5.08-9.7,2.98,1.56-3.2,6.11,2.46,1.29,2.9-5.53,2.9,1.52-2.9,5.53,2.64,1.38Z"/>
        <path d="M50.15,62.64l2.61-3.36,9.05,14-2.71,3.48-15.79-5.35,2.72-3.5,9.1,3.51c.77.32,1.49.6,2.17.9-.46-.58-.93-1.18-1.43-1.85l-5.73-7.84Z"/>
        <path d="M67.49,62.44l5.24-4.69,2.24,2.5-8.26,7.4-10.5-11.72,8.16-7.31,2.24,2.5-5.14,4.6,1.85,2.07,4.65-4.17,2.18,2.43-4.65,4.17,1.99,2.22Z"/>
        <path d="M77.64,39.81l3.2-1.93,8.14,13.48-3.41,2.06-10.07-5.19,4.99,8.26-3.18,1.92-8.14-13.48,3.41-2.06,10.03,5.17-4.97-8.22Z"/>
        <path d="M90.66,48.91l.51-3.53c1.78.37,3.39.45,5.17-.21,1.26-.46,1.95-1.17,1.61-2.1-.34-.92-1.21-.96-3.75-.67-2.7.3-5.2.07-6.27-2.83-1.11-3.03.81-5.57,4.07-6.77,2.08-.77,4.22-.91,6.13-.34l-.79,3.37c-1.58-.35-3.11-.15-4.5.37-1.11.41-1.61,1.02-1.35,1.71.27.74.92.76,3.61.46,3.13-.32,5.36.18,6.37,2.93,1.21,3.28-.7,5.94-4.11,7.19-2.42.89-4.86,1-6.72.42Z"/>
        <path d="M122.09,30.6l-4.76.53,1.36,12.13-4.01.45-1.36-12.13-4.76.53-.39-3.52,13.53-1.51.39,3.52Z"/>
        <path d="M124.93,34.77c.37-4.71,4.16-8.01,8.93-7.63,5.13.4,8.02,4.22,7.65,8.94-.37,4.67-4.13,7.99-8.95,7.61-5.11-.4-8-4.25-7.63-8.91ZM137.32,35.74c.21-2.61-1.21-4.65-3.75-4.85-2.54-.2-4.24,1.6-4.44,4.21-.21,2.63,1.19,4.63,3.73,4.83,2.55.2,4.26-1.55,4.46-4.19Z"/>
        <path d="M163.53,34.35l3.87,1.28-8.7,13.7-4.57-1.51.81-7.16c.15-1.23.38-2.49.65-3.75-.57,1.16-1.16,2.3-1.78,3.38l-3.74,6.19-4.66-1.54,1.28-16.16,4.08,1.35-1.11,8.71c-.15,1.11-.36,2.15-.58,3.18.46-.96.96-1.9,1.51-2.87l4.43-7.55,4.19,1.38-.95,8.72c-.13,1.11-.31,2.14-.48,3.17.43-.94.87-1.91,1.39-2.86l4.35-7.67Z"/>
        <path d="M164.16,52.22l7.59-13.8,3.55,1.95-7.59,13.8-3.55-1.95Z"/>
        <path d="M188.56,49.51l2.97,2.28-9.59,12.48-3.16-2.43,1.17-11.27-5.88,7.65-2.95-2.26,9.59-12.48,3.16,2.43-1.16,11.22,5.85-7.62Z"/>
        <path d="M188.96,72.56c-3.42-3.98-2.77-8.52.9-11.67,3.8-3.27,8.54-2.82,11.66.82,1.66,1.94,2.38,4.04,1.99,6.3l-3.77-.51c.18-1.13-.11-2.26-1.02-3.32-1.66-1.94-4.05-1.86-6.11-.1-2.16,1.85-2.54,4.19-.89,6.11,1.27,1.48,2.59,2.05,4.53,1.18l-2.01-2.34,2.46-2.12,4.48,5.22c-4.52,4.26-9,4.16-12.22.43Z"/>
        <path d="M205.36,81.18c4.32-2.03,8.98-.43,11,3.87,1.05,2.23,1.32,4.45.19,6.67l-3.43-1.51c.47-1.06.48-2.25-.09-3.47-1.05-2.23-3.48-2.87-5.87-1.75-2.41,1.13-3.43,3.39-2.38,5.62.56,1.2,1.46,1.96,2.53,2.28l-1,3.51c-2.32-.57-3.99-2.23-4.96-4.3-2.15-4.58-.23-8.92,4.03-10.92Z"/>
        <path d="M212.34,96.42c4.59-1.11,8.9,1.46,10.03,6.12,1.21,5.01-1.52,8.94-6.11,10.05-4.55,1.1-8.88-1.44-10.02-6.14-1.21-4.98,1.55-8.92,6.09-10.03ZM215.27,108.5c2.55-.62,4.05-2.59,3.45-5.08-.6-2.48-2.84-3.53-5.38-2.91-2.57.62-4.03,2.57-3.43,5.05.6,2.48,2.8,3.56,5.37,2.94Z"/>
      </g>
    </g>
    <g>
      <path d="M119.62,121.17l-3.39.08c-3.75.11-4.47-.39-4.76-1.63-.39-1.68.93-3.03,3.52-3.63s5.17-.23,6.52.83l.2.85,3.95-.91-1.51-6.57-3.95.91.19.82c-2.03-.84-3.96-.94-6.42-.37-5.42,1.25-8.27,4.91-7.25,9.34.5,2.18,2,4.09,3.82,4.87,1.26.54,3.2.76,5.91.7l3.54-.05c3.24-.05,3.87.78,4.08,1.67.36,1.58-1.21,3.1-3.83,3.7-2.46.57-4.97.23-7.25-.98l-.29-1.28-3.95.91,1.68,7.3,3.95-.91-.24-1.04c2.2.95,4.44,1.06,7.3.4,6.04-1.39,8.6-4.87,7.41-10.07-.87-3.78-3.37-5.12-9.23-4.96Z"/>
      <polygon points="124.72 116.9 126.26 123.58 131.05 122.48 130.47 119.99 133.78 119.23 137.4 134.98 136 135.3 136.96 139.5 144.91 137.67 143.94 133.47 142.54 133.8 138.92 118.05 142.26 117.28 142.83 119.77 147.62 118.67 146.08 111.99 124.72 116.9"/>
    </g>
  </g>
  <rect class="st0" width="252" height="252"/>
</svg>