<svg width="680" height="798" viewBox="0 0 680 798" fill="none" xmlns="http://www.w3.org/2000/svg">
<path d="M37.501 439.282C37.501 446.32 37.8273 449.121 38.4805 451.112C39.1931 453.037 40.5887 454 42.667 454C45.0423 454 46.5567 452.938 47.21 450.813C47.9226 448.623 48.2783 445.224 48.2783 437.19V403H85.7793V426.137C85.7793 438.352 85.4235 446.95 84.7109 451.93C83.9983 456.842 81.8893 461.921 78.3857 467.166C74.8821 472.344 70.2503 476.295 64.4902 479.017C58.7895 481.672 52.0496 483 44.2705 483C35.6599 483 28.0584 481.406 21.4668 478.22C14.8754 475.033 9.9467 470.883 6.68066 465.771C3.41465 460.66 1.48445 455.282 0.890625 449.639C0.296814 443.929 0 431.979 0 413.788V403H37.501V439.282Z" fill="black"/>
<path d="M175.703 403C175.938 403.348 176.162 403.69 176.369 404.029C180.704 411.133 182.871 422.585 182.871 438.386C182.871 449.871 181.654 458.336 179.22 463.78C176.844 469.224 172.212 473.805 165.323 477.522C158.435 481.174 150.418 483 141.273 483C131.238 483 122.656 480.876 115.53 476.627C108.464 472.378 103.832 466.967 101.635 460.395C99.4376 453.822 98.3389 444.494 98.3389 432.411V421.854H133.167V441.473C133.167 447.514 133.643 451.398 134.593 453.124C135.602 454.85 137.354 455.714 139.848 455.714C142.342 455.714 144.183 454.619 145.371 452.428C146.618 450.237 147.241 446.983 147.241 442.668C147.241 433.175 146.083 426.967 143.768 424.046C141.392 421.125 135.543 416.244 126.22 409.406C123.039 407.051 120.225 404.915 117.777 403H175.703Z" fill="black"/>
<path d="M305.654 412.793C305.654 428.992 305.298 440.477 304.585 447.249C303.932 453.954 301.794 460.095 298.172 465.672C294.609 471.249 289.769 475.531 283.652 478.519C277.536 481.506 270.41 483 262.274 483C254.555 483 247.607 481.606 241.431 478.817C235.314 475.963 230.386 471.713 226.645 466.07C222.903 460.427 220.676 454.286 219.964 447.647C219.918 447.216 219.872 446.763 219.829 446.289L255.525 410.593L258.862 456H267.032L271 409.522L265.738 403H305.654V412.793Z" fill="black"/>
<path d="M356.159 436.793C356.159 444.627 356.575 449.739 357.406 452.129C358.238 454.519 360.109 455.714 363.019 455.714C365.809 455.714 367.621 454.519 368.452 452.129C369.343 449.739 369.788 444.129 369.788 435.299V410H407.289V421.356C407.289 438.02 406.22 449.839 404.082 456.81C402.004 463.78 397.342 469.888 390.098 475.133C382.912 480.378 374.034 483 363.464 483C352.478 483 343.422 480.776 336.296 476.328C329.17 471.88 324.449 465.738 322.133 457.904C319.817 450.004 318.659 438.153 318.659 422.353V403H356.159V436.793Z" fill="black"/>
<path d="M534.646 403C533.917 411.204 533.383 418.124 533.048 423.762H544.552C543.957 417.364 543.364 410.444 542.77 403H574.065L583.217 480H548.785L545.603 456.5H533.048L531.217 480H498.217L506.343 403H534.646Z" fill="black"/>
<path d="M479.427 414H456L456.239 447.349H488.217V479.614H418.739V403H479.427V414Z" fill="black"/>
<path d="M680 479.614H647.131L627.624 406.319V479.614H596.27V403H680V479.614Z" fill="black"/>
<path d="M219.222 435.775C219.003 429.64 218.895 421.979 218.895 412.793V403H251.998L219.222 435.775Z" fill="black"/>
<path d="M37.501 395H0V318.386H37.501V395Z" fill="black"/>
<path d="M85.7793 395H48.2783V318.386H85.7793V395Z" fill="black"/>
<path d="M137.889 315C147.627 315 155.911 316.76 162.74 320.278C169.629 323.797 174.172 328.245 176.369 333.622C178.626 338.933 179.754 347.996 179.754 360.81V367.183H144.926V355.232C144.926 349.656 144.48 346.104 143.589 344.577C142.698 343.05 141.214 342.286 139.136 342.286C136.879 342.286 135.156 343.315 133.969 345.373C132.84 347.431 132.276 350.552 132.276 354.734C132.276 360.112 132.93 364.162 134.236 366.884C135.483 369.606 139.016 372.893 144.836 376.743C155.137 383.588 163.084 389.674 168.678 395H108.321C108.098 394.782 107.889 394.571 107.692 394.369C104.664 391.249 102.139 386.933 100.12 381.423C98.1606 375.913 97.1807 368.875 97.1807 360.312C97.1807 347.963 98.5762 338.933 101.367 333.224C104.218 327.514 108.791 323.067 115.085 319.88C121.38 316.627 128.981 315 137.889 315Z" fill="black"/>
<path d="M262.274 315C269.994 315 276.913 316.427 283.029 319.282C289.205 322.071 294.163 326.287 297.904 331.93C301.645 337.573 303.872 343.714 304.585 350.353C304.587 350.371 304.588 350.389 304.59 350.407L269.29 385.707L266.138 342H257.968L254 389.338L258.484 395H218.895V385.207C218.895 369.008 219.221 357.556 219.874 350.851C220.587 344.079 222.725 337.905 226.288 332.328C229.91 326.751 234.78 322.469 240.896 319.481C247.013 316.494 254.139 315 262.274 315Z" fill="black"/>
<path d="M362.395 315C373.44 315 382.556 317.39 389.741 322.17C396.927 326.95 401.648 332.926 403.904 340.096C406.161 347.199 407.289 358.286 407.289 373.356V388.693H369.788V360.61C369.788 352.444 369.372 347.365 368.541 345.373C367.769 343.315 366.017 342.286 363.285 342.286C360.197 342.286 358.238 343.514 357.406 345.971C356.575 348.427 356.159 353.738 356.159 361.904V395H318.659V375.249C318.659 363.631 319.015 354.933 319.728 349.157C320.44 343.315 322.548 337.705 326.052 332.328C329.615 326.951 334.515 322.735 340.75 319.681C347.045 316.56 354.259 315 362.395 315Z" fill="black"/>
<path d="M485.723 350.651H456.239L456 383.436H479.427V395H418.739V318.386H485.723V350.651Z" fill="black"/>
<path d="M573.115 395H542.146C541.243 383.146 540.341 370.086 539.438 355.82C537.785 370.834 536.434 383.894 535.382 395H507.187L515.312 318H563.964L573.115 395Z" fill="black"/>
<path d="M648.646 390.983V318.386H680V395H596.27V318.386H627.624L648.646 390.983Z" fill="black"/>
<path d="M305.272 360.846C305.525 367.199 305.654 375.319 305.654 385.207V395H271.119L305.272 360.846Z" fill="black"/>
</svg>
