<svg width="533" height="798" viewBox="0 0 533 798" fill="none" xmlns="http://www.w3.org/2000/svg">
<path d="M145.954 652.649C121.189 652.649 102.064 649.329 88.5767 642.687C75.2061 635.971 68.4045 626.821 68.172 615.235V574.056H116.829V613.906C116.829 619.884 119.387 624.459 124.503 627.633C129.735 630.732 136.944 632.282 146.129 632.282C155.197 632.282 162.29 630.732 167.405 627.633C172.637 624.459 175.253 619.884 175.253 613.906V574.056H223.911V614.903C223.911 626.636 217.167 635.861 203.68 642.576C190.31 649.292 171.068 652.649 145.954 652.649Z" fill="black"/>
<path d="M245.134 574.056H389.886V594.424H341.926V651.542H293.269V594.424H245.134V574.056Z" fill="black"/>
<path d="M530.213 648.588C524.051 649.843 518.47 650.731 507.193 651.543C496.031 652.281 485.683 652.65 476.149 652.65C444.176 652.65 431.267 649.181 415.803 642.244C400.456 635.234 392.782 625.419 392.782 612.799C392.782 600.18 400.456 590.402 415.803 583.465C431.267 576.455 444.176 572.95 476.149 572.95C498.821 572.95 516.784 574.278 530.039 576.935V601.509C527.016 599.295 520.389 597.376 510.157 595.753C499.926 594.129 490.334 593.318 481.381 593.318C465.802 593.318 464.286 594.941 455.217 598.188C446.149 601.361 441.614 606.232 441.614 612.799C441.614 619.22 446.149 624.09 455.217 627.411C464.402 630.658 465.918 632.282 481.381 632.282C490.915 632.282 501.089 631.47 511.901 629.847C522.83 628.149 526.783 626.228 530.039 623.793L530.213 648.588Z" fill="black"/>
<path d="M65.9723 704.378C65.9723 698.947 67.1437 693.766 69.4865 688.835C71.8293 683.903 75.2083 679.518 79.6236 675.679C83.9938 671.903 88.9948 669.047 94.6265 667.112C100.258 665.177 106.385 664.209 113.008 664.209C124.002 664.209 132.674 666.69 139.027 671.653C145.38 676.616 148.556 683.373 148.556 691.925C148.556 697.262 147.384 702.396 145.042 707.327C142.699 712.259 139.32 716.675 134.905 720.577C130.579 724.322 125.601 727.162 119.969 729.097C114.337 731.032 108.188 732 101.52 732C90.4365 732 81.7411 729.55 75.4336 724.65C69.126 719.718 65.9723 712.961 65.9723 704.378ZM112.468 672.168C107.962 672.168 103.772 672.901 99.8978 674.368C96.0231 675.835 92.6441 677.973 89.7607 680.782C86.5168 683.903 84.0163 687.477 82.2592 691.503C80.5021 695.53 79.6236 699.759 79.6236 704.191C79.6236 710.62 81.5158 715.552 85.3003 718.985C89.1299 722.418 94.5814 724.135 101.655 724.135C106.34 724.135 110.643 723.417 114.563 721.981C118.527 720.514 121.929 718.376 124.767 715.567C128.056 712.446 130.557 708.888 132.269 704.893C134.026 700.898 134.905 696.7 134.905 692.299C134.905 685.838 132.945 680.876 129.025 677.411C125.15 673.916 119.631 672.168 112.468 672.168Z" fill="black"/>
<path d="M174.169 730.83H168.087L154.097 687.571H166.127L174.304 714.537L193.7 687.571H206.134L174.169 730.83Z" fill="black"/>
<path d="M256.685 718.189L254.725 726.897C251.121 728.551 247.561 729.784 244.047 730.595C240.578 731.376 237.086 731.766 233.572 731.766C225.733 731.766 219.29 729.862 214.244 726.054C209.243 722.246 206.743 717.346 206.743 711.354C206.743 704.175 209.581 698.245 215.258 693.563C220.98 688.882 228.188 686.541 236.884 686.541C244.092 686.541 249.611 688.008 253.441 690.942C257.27 693.844 259.185 698.026 259.185 703.488V708.404H219.718L219.448 711.26V712.337C219.448 715.864 220.912 718.813 223.841 721.185C226.769 723.526 230.373 724.697 234.654 724.697C238.033 724.697 241.457 724.182 244.926 723.152C248.44 722.122 252.36 720.467 256.685 718.189ZM221.678 702.365H247.967V701.194C247.967 698.76 246.998 696.825 245.061 695.389C243.124 693.953 240.488 693.236 237.154 693.236C233.234 693.236 230.013 693.985 227.49 695.483C225.012 696.95 223.075 699.244 221.678 702.365Z" fill="black"/>
<path d="M279.527 730.83H267.903L277.229 687.571H288.853L287.164 695.717C290.227 692.408 292.976 690.114 295.409 688.835C297.841 687.555 300.545 686.915 303.518 686.915C304.284 686.915 305.095 686.978 305.951 687.103C306.852 687.227 307.798 687.415 308.789 687.664L305.681 695.436C305.05 695.342 304.442 695.28 303.856 695.249C303.315 695.186 302.775 695.155 302.234 695.155C298.765 695.155 295.634 696.06 292.84 697.87C290.047 699.65 287.366 702.49 284.798 706.391L279.527 730.83Z" fill="black"/>
<path d="M309.938 725.727L312.844 717.674C317.034 720.015 320.594 721.7 323.522 722.73C326.496 723.729 329.266 724.228 331.834 724.228C334.267 724.228 336.272 723.807 337.849 722.964C339.426 722.122 340.214 721.06 340.214 719.781C340.214 717.783 336.52 714.99 329.131 711.401L328.861 711.26C323.049 708.42 319.332 706.141 317.71 704.425C316.133 702.708 315.345 700.711 315.345 698.432C315.345 694.905 317.147 692.065 320.751 689.912C324.401 687.727 329.244 686.634 335.281 686.634C338.93 686.634 342.4 687.009 345.688 687.758C349.022 688.507 352.154 689.631 355.082 691.129L354.068 699.837C350.509 697.902 347.108 696.45 343.864 695.483C340.62 694.515 337.579 694.031 334.74 694.031C332.533 694.031 330.753 694.39 329.402 695.108C328.05 695.795 327.374 696.7 327.374 697.824C327.374 699.509 330.235 701.725 335.957 704.472C338.57 705.72 340.642 706.734 342.174 707.515C346.049 709.575 348.752 711.494 350.284 713.273C351.816 715.021 352.582 717.034 352.582 719.313C352.582 722.933 350.667 725.898 346.837 728.208C343.053 730.517 338.187 731.672 332.24 731.672C328.455 731.672 324.761 731.204 321.157 730.268C317.597 729.3 313.858 727.786 309.938 725.727Z" fill="black"/>
<path d="M412.661 718.189L410.701 726.897C407.097 728.551 403.538 729.784 400.023 730.595C396.554 731.376 393.063 731.766 389.548 731.766C381.709 731.766 375.266 729.862 370.22 726.054C365.219 722.246 362.719 717.346 362.719 711.354C362.719 704.175 365.557 698.245 371.234 693.563C376.956 688.882 384.164 686.541 392.86 686.541C400.068 686.541 405.587 688.008 409.417 690.942C413.247 693.844 415.161 698.026 415.161 703.488V708.404H375.694L375.424 711.26V712.337C375.424 715.864 376.888 718.813 379.817 721.185C382.745 723.526 386.35 724.697 390.63 724.697C394.009 724.697 397.433 724.182 400.902 723.152C404.416 722.122 408.336 720.467 412.661 718.189ZM377.654 702.365H403.943V701.194C403.943 698.76 402.974 696.825 401.037 695.389C399.1 693.953 396.464 693.236 393.13 693.236C389.21 693.236 385.989 693.985 383.466 695.483C380.988 696.95 379.051 699.244 377.654 702.365Z" fill="black"/>
<path d="M473.01 730.83H461.251L462.4 725.446C459.967 727.568 457.399 729.144 454.696 730.174C451.993 731.173 449.064 731.672 445.911 731.672C439.873 731.672 434.827 730.034 430.772 726.756C426.763 723.479 424.758 719.344 424.758 714.35C424.758 711.416 425.434 708.545 426.785 705.736C428.182 702.927 430.164 700.336 432.732 697.964C436.787 694.281 441.495 691.628 446.857 690.005C452.218 688.382 459.156 687.571 467.672 687.571H482.201L473.01 730.83ZM464.157 717.487L468.888 694.687C468.528 694.656 468.122 694.64 467.672 694.64C467.221 694.609 466.568 694.593 465.712 694.593C457.422 694.593 450.664 696.357 445.438 699.884C440.211 703.41 437.598 707.936 437.598 713.461C437.598 716.863 438.702 719.609 440.91 721.7C443.162 723.76 446.068 724.79 449.627 724.79C452.376 724.79 454.966 724.182 457.399 722.964C459.832 721.747 462.085 719.921 464.157 717.487Z" fill="black"/>
<path d="M486.729 725.727L489.635 717.674C493.825 720.015 497.384 721.7 500.313 722.73C503.287 723.729 506.057 724.228 508.625 724.228C511.058 724.228 513.063 723.807 514.64 722.964C516.217 722.122 517.005 721.06 517.005 719.781C517.005 717.783 513.311 714.99 505.922 711.401L505.652 711.26C499.84 708.42 496.123 706.141 494.501 704.425C492.924 702.708 492.136 700.711 492.136 698.432C492.136 694.905 493.938 692.065 497.542 689.912C501.192 687.727 506.035 686.634 512.072 686.634C515.721 686.634 519.19 687.009 522.479 687.758C525.813 688.507 528.945 689.631 531.873 691.129L530.859 699.837C527.3 697.902 523.899 696.45 520.655 695.483C517.411 694.515 514.37 694.031 511.531 694.031C509.324 694.031 507.544 694.39 506.192 695.108C504.841 695.795 504.165 696.7 504.165 697.824C504.165 699.509 507.026 701.725 512.748 704.472C515.361 705.72 517.433 706.734 518.965 707.515C522.84 709.575 525.543 711.494 527.075 713.273C528.607 715.021 529.373 717.034 529.373 719.313C529.373 722.933 527.458 725.898 523.628 728.208C519.844 730.517 514.978 731.672 509.031 731.672C505.246 731.672 501.552 731.204 497.948 730.268C494.388 729.3 490.649 727.786 486.729 725.727Z" fill="black"/>
<path d="M532.973 527.135C532.973 535.799 532.96 544.462 532.999 553.125L533 553.366L532.774 553.279C523.39 549.606 514.602 544.577 505.93 539.529L505.681 539.385L505.932 539.244C514.523 534.454 523.764 530.925 532.743 526.985L532.973 526.884V527.135Z" fill="black"/>
<path fill-rule="evenodd" clip-rule="evenodd" d="M64.2208 123.21C65.1153 125.411 65.9072 127.639 66.5979 129.916C115.574 129.549 164.575 137.703 210.841 153.826L210.843 153.827C247.472 167.097 282.165 185.68 313.79 208.418C335.693 224.422 355.395 243.264 373.362 263.543L375.095 265.51L375.097 265.512C400.506 295.574 422.509 328.954 437.087 365.639C445.513 386.312 452.056 407.749 456.046 429.727C463.709 465.866 467.027 502.846 466.105 539.76L466.101 539.919L465.941 539.92C462.11 539.946 458.292 539.92 454.475 539.88L454.297 539.879L454.313 539.701C456.062 520.842 453.932 501.942 452.444 483.122L452.354 482.526C450.106 467.725 447.837 452.804 443.126 438.587C440.504 465.004 433.129 491.808 416.797 513.208L416.79 513.216L416.783 513.224C416.026 513.99 415.27 514.848 414.476 515.707C413.686 516.563 412.861 517.417 411.978 518.162C410.211 519.654 408.191 520.725 405.702 520.516L405.55 520.503L405.551 520.351C405.748 478.351 393.817 436.897 374.2 399.943C372.616 402.171 371.42 404.609 370.309 407.104C369.164 409.674 368.106 412.314 366.813 414.824C354.974 439.619 338.947 462.361 319.998 482.249L319.993 482.256L319.992 482.255C313.444 488.467 307.036 494.987 299.56 500.137L299.392 500.253L299.314 500.064C294.265 487.721 290.842 474.816 287.667 461.893L286.317 456.356C280.018 430.805 269.643 406.456 257.428 383.2C254.728 384.697 252.265 386.531 249.848 388.442C247.391 390.385 244.975 392.412 242.417 394.229C220.713 410.092 197.812 424.381 173.572 436.038C174.098 441.515 174.934 446.956 175.779 452.402C176.629 457.885 177.489 463.375 178.049 468.908L178.067 469.09L177.883 469.089C176.851 469.075 175.817 469.066 174.784 469.056C173.751 469.046 172.717 469.036 171.684 469.023L171.523 469.02L171.522 468.859C171.489 463.81 170.904 458.816 170.184 453.831C169.475 448.922 168.634 444.014 168.062 439.082C151.391 446.117 135.059 454.309 117.492 459.013L117.241 459.081L117.288 458.825C117.383 458.309 117.391 457.725 117.389 457.113C117.387 456.505 117.376 455.868 117.439 455.271C117.502 454.672 117.641 454.096 117.949 453.609C118.26 453.117 118.736 452.727 119.451 452.493C134.098 446.854 148.776 441.191 162.888 434.307L162.89 434.306C163.979 433.788 164.967 433.132 165.872 432.354C158.514 395.802 147.046 360.06 132.367 325.782C121.893 330.439 111.373 335.291 100.265 338.278L100.038 338.339L100.058 338.106L100.099 337.621C100.211 336.281 100.385 334.2 100.466 333.085L100.473 332.994L100.554 332.951C105.313 330.482 110.289 328.485 115.266 326.508C120.205 324.547 125.145 322.606 129.891 320.244C128.214 313.502 124.883 307.348 122.129 300.968C115.668 286.327 108.721 271.871 100.894 257.903L100.892 257.9C98.5117 253.414 95.8377 249.056 93.2847 244.625C90.7337 240.198 88.3072 235.703 86.4339 230.959L86.3867 230.84L86.4917 230.766C92.4272 226.541 98.8743 223.001 105.121 219.225C111.373 215.445 117.434 211.424 122.624 206.226C136.597 192.4 142.016 170.511 135.797 151.851L135.794 151.839L135.792 151.826C135.559 150.467 134.697 149.622 133.585 149.02C132.465 148.414 131.12 148.068 129.942 147.696C109.541 141.935 88.3251 140.101 67.2129 139.257C67.5649 149.842 68.3993 160.402 69.2632 170.964C70.1316 181.582 71.0302 192.203 71.4976 202.847L71.8851 208.513C73.7922 236.847 75.2295 265.201 77.315 293.515L78.0197 302.881C79.6417 324.735 81.108 346.603 82.5791 368.469C84.2604 393.459 85.9482 418.449 87.8827 443.418L88.1912 446.716C89.6596 463.167 90.1405 479.688 92.6523 495.998C122.789 499.05 152.674 504.249 182.681 508.252C212.871 511.762 242.867 516.812 272.982 520.78C317.866 527.039 362.622 534.138 407.592 539.685L407.576 540.011C376.859 540.919 346.1 539.959 315.38 540.222H315.365C232.573 540.209 149.795 540.196 67.0037 540.222H66.8398L66.8389 540.059C66.6414 491.635 67.8126 443.199 66.1149 394.825V394.819C66.3387 333.465 65.5224 272.117 65.4566 210.773C64.2091 187.344 63.7338 162.683 62.9735 139.241C36.7968 137.816 20.0522 139.252 0.0645842 140.315L0 139.996C7.54161 137.266 11.533 135.836 16.6589 134.736C21.7816 133.637 28.0376 132.869 40.1097 131.456L40.1174 131.455C47.7511 130.945 55.0264 130.585 62.986 129.928C63.2326 127.744 63.5187 125.412 63.9066 123.243L64.0068 122.682L64.2208 123.21ZM388.536 326.626C388.444 330.071 388.536 333.539 388.523 336.975V336.977C388.694 354.839 383.635 372.222 377.924 389.008L377.923 389.011C377.424 390.57 376.978 392.407 377.88 394.025C396.468 430.239 408.702 469.882 412.385 510.481L412.425 510.926L412.682 510.561C429.871 486.252 437.017 457.763 438.073 429.061C439.15 423.871 438.213 418.997 436.553 414.288C435.722 411.932 434.709 409.614 433.675 407.318C432.77 405.306 431.849 403.313 431.017 401.318L430.666 400.463L430.663 400.457L429.129 397.079C421.402 380.213 412.828 363.722 403.2 347.855L403.199 347.854C398.729 340.565 394.456 333.043 388.825 326.522L388.547 326.201L388.536 326.626ZM312.189 310.92C303.537 330.832 291.283 349.219 275.834 364.519L275.829 364.523C273.576 366.958 271.177 369.249 268.781 371.55C266.386 373.851 263.994 376.162 261.759 378.631L261.681 378.717L261.736 378.819C274.68 402.892 284.902 428.41 292.031 454.795L292.032 454.798C293.716 460.696 295.067 466.685 296.516 472.655C297.964 478.623 299.508 484.568 301.577 490.368L301.657 490.592L301.839 490.438C332.739 464.309 355.272 429.381 370.296 392.106L370.324 392.037L370.29 391.971C355.185 362.228 334.05 336.094 312.465 310.879L312.294 310.679L312.189 310.92ZM190.495 286.96C174.303 300.453 156.702 312.135 138.401 322.556L138.292 322.618L138.323 322.74C139.359 326.754 140.837 330.621 142.384 334.459C143.932 338.3 145.548 342.109 146.868 346.02L146.869 346.023C156.582 373.379 165.646 401.081 171.092 429.635L171.128 429.821L171.307 429.759C177.811 427.519 183.714 423.946 189.743 420.771L189.746 420.769C210.797 408.973 231.177 395.888 250.072 380.868L250.073 380.867C250.96 380.15 252.132 379.243 252.85 378.189C253.211 377.66 253.465 377.083 253.507 376.465C253.548 375.847 253.375 375.205 252.915 374.544C246.778 362.956 239.498 351.999 232.208 341.104L232.207 341.103L229.8 337.585C217.724 320.017 205.005 302.833 190.723 286.976L190.617 286.859L190.495 286.96ZM318.193 249.663C321.177 265.948 321.49 283.255 315.778 299.006L315.776 299.012C315.479 299.929 315.1 300.89 314.829 301.85C314.555 302.82 314.378 303.822 314.48 304.862L314.484 304.904L314.507 304.938C316.245 307.54 318.336 309.849 320.462 312.118C322.59 314.391 324.752 316.622 326.648 319.079L326.653 319.086C344.32 339.374 359.476 361.714 373.226 384.794L373.403 385.089L373.522 384.767C381.056 364.441 385.446 342.538 382.743 320.812L382.742 320.805C382.254 317.89 381.392 314.922 379.374 312.626C360.881 289.96 341.146 268.09 318.459 249.506L318.112 249.222L318.193 249.663ZM228.178 234.289C221.531 253.106 208.679 268.966 194.5 282.722L194.388 282.831L194.491 282.949C218.778 310.467 239.725 340.774 258.462 372.292L258.56 372.456L258.708 372.334C280.176 354.706 298.731 332.188 307.377 305.436L307.407 305.343L307.339 305.272C296.44 293.913 285.344 282.75 273.998 271.824L273.995 271.821L271.264 269.332C257.572 256.929 243.291 245.172 228.43 234.212L228.252 234.08L228.178 234.289ZM117.863 218.527C113.894 220.562 110.133 222.99 106.358 225.378C102.58 227.767 98.788 230.118 94.745 232.013L94.6043 232.078L94.6612 232.221C98.0744 240.857 102.726 248.939 107.212 257.032C117.711 276.521 126.79 296.735 135.449 317.097L135.517 317.257L135.673 317.181C149.533 310.39 162.125 301.363 174.535 292.293L174.54 292.29C177.989 289.605 181.709 287.117 184.592 283.749L184.597 283.743C185.156 283.022 185.228 282.148 185.027 281.332C184.852 280.619 184.467 279.938 183.998 279.414L183.792 279.199C167.076 261.253 149.542 244.016 130.678 228.315L130.677 228.313L129.912 227.677C128.142 226.169 126.471 224.512 124.69 222.955C122.665 221.184 120.52 219.564 118.001 218.522L117.931 218.492L117.863 218.527ZM233.869 188.893C235.682 202.266 234.605 215.848 230.768 228.775L230.735 228.886L230.829 228.954C248.498 241.939 265.365 256.027 281.126 271.284L281.129 271.287C286.008 275.76 290.654 280.477 295.284 285.216C299.912 289.954 304.525 294.716 309.331 299.274L309.51 299.442L309.598 299.213C315.402 284.179 315.967 267.518 313.028 251.798L313.027 251.793L312.871 251.024C312.722 250.247 312.59 249.449 312.447 248.645C312.257 247.575 312.048 246.497 311.75 245.46C311.154 243.384 310.202 241.458 308.332 240.075C285.397 220.494 259.924 204.202 234.117 188.73L233.823 188.554L233.869 188.893ZM141.233 185.658C138.059 196.729 131.104 206.053 123.397 214.447L123.282 214.574L123.413 214.684C146.19 233.848 168.697 253.531 188.164 276.114C188.655 276.925 189.229 277.362 189.853 277.509C190.477 277.656 191.12 277.505 191.732 277.208C192.951 276.616 194.127 275.402 194.945 274.539L194.944 274.538C207.019 262.055 217.989 247.745 223.37 231.015L223.406 230.901L223.309 230.831C197.946 212.662 171.37 195.23 141.442 185.546L141.28 185.494L141.233 185.658ZM140.129 150.958C145.285 160.186 144.006 170.988 143.057 181.126L143.044 181.264L143.178 181.3C173.233 189.324 199.547 206.648 224.606 224.513L224.71 224.587L224.807 224.504C225.768 223.688 226.291 222.63 226.644 221.512C226.821 220.953 226.956 220.376 227.082 219.805C227.208 219.232 227.324 218.668 227.465 218.122L227.467 218.123L227.468 218.11C229.207 208.127 230.277 197.66 227.755 187.687C227.464 186.494 226.665 185.69 225.728 185.056C225.259 184.739 224.752 184.462 224.253 184.2C223.876 184.003 223.505 183.816 223.154 183.624L222.809 183.431L222.8 183.426C212.547 178.285 202.213 173.262 191.734 168.581L191.731 168.58C175.034 161.438 157.707 155.888 140.319 150.721L139.932 150.606L140.129 150.958Z" fill="black"/>
<path d="M529.443 483.361C529.436 484.031 529.43 485.033 529.424 486.036C529.417 487.038 529.41 488.041 529.404 488.712L529.403 488.878L529.236 488.874C521.682 488.69 514.132 488.69 506.587 488.584L506.437 488.583L506.425 488.432C506.379 487.821 506.31 486.904 506.241 485.988C506.172 485.071 506.103 484.153 506.057 483.542L506.043 483.368L506.219 483.366C513.909 483.287 521.589 483.313 529.276 483.194L529.445 483.192L529.443 483.361Z" fill="black"/>
<path d="M523.075 437.416L522.562 442.281L522.548 442.408L522.422 442.426C519 442.918 515.623 443.649 512.234 444.353C508.846 445.056 505.447 445.732 501.99 446.107L501.825 446.125L501.809 445.96C501.703 444.869 501.493 442.7 501.387 441.622L501.374 441.48L501.513 441.446C508.567 439.763 515.669 438.158 522.891 437.236L523.097 437.209L523.075 437.416Z" fill="black"/>
<path d="M512.516 395.332L512.654 395.297L512.581 395.528C513.167 397.302 513.717 399.088 514.251 400.886L514.302 401.06L514.124 401.094L510.497 401.787L510.479 401.791C507.421 402.394 504.426 403.236 501.434 404.105C498.443 404.974 495.454 405.87 492.415 406.574L492.228 406.618L492.214 406.427C492.095 404.835 491.99 403.243 491.911 401.664L491.904 401.537L492.026 401.499C498.755 399.407 505.435 397.127 512.279 395.393L512.405 394.996L512.516 395.332Z" fill="black"/>
<path d="M497.687 353.759C497.858 355.32 498.017 356.893 498.187 358.466L498.202 358.597L498.076 358.639C494.701 359.781 491.438 361.207 488.148 362.587C484.86 363.966 481.548 365.297 478.089 366.24L477.902 366.291L477.882 366.099C477.724 364.586 477.579 363.06 477.447 361.547L477.436 361.422L477.555 361.379C480.898 360.172 484.142 358.699 487.424 357.292C490.702 355.887 494.014 354.548 497.481 353.618L497.667 353.569L497.687 353.759Z" fill="black"/>
<path d="M461.543 290.89C465.715 299.119 469.938 307.32 474.438 315.376L474.573 315.618L474.295 315.62C464.869 315.673 455.443 315.449 446.021 315.278L445.741 315.273L445.883 315.031C450.687 306.788 455.612 298.565 461.263 290.867L461.422 290.651L461.543 290.89Z" fill="black"/>
<path d="M440.482 254.069C440.943 255.621 441.39 257.187 441.824 258.752L441.854 258.859L441.766 258.926C436.088 263.258 430.588 267.883 424.445 271.596L424.289 271.69L424.211 271.527C423.685 270.437 422.633 268.281 422.106 267.203L422.043 267.076L422.16 266.995C425.208 264.888 428.098 262.55 431.045 260.276C433.989 258.004 436.988 255.799 440.243 253.972L440.423 253.871L440.482 254.069Z" fill="black"/>
<path d="M404.013 218.615C404.455 218.614 404.894 218.797 405.292 219.064C405.987 219.531 406.599 220.286 406.951 220.928L407.085 221.195L407.096 221.22L407.099 221.247C407.205 222.32 406.659 223.105 405.996 223.783C405.666 224.12 405.293 224.443 404.955 224.758C404.611 225.078 404.296 225.395 404.056 225.735L404.047 225.748L404.036 225.759C400.276 229.397 396.832 233.453 392.746 236.771L392.727 236.787L392.704 236.797C392.142 237.02 391.659 237.022 391.236 236.865C390.818 236.711 390.475 236.407 390.176 236.055C389.878 235.703 389.611 235.286 389.353 234.894C389.092 234.498 388.84 234.126 388.563 233.84L388.45 233.723L388.566 233.608C390.959 231.25 393.297 228.829 395.644 226.412C397.99 223.994 400.344 221.58 402.767 219.238C403.138 218.807 403.567 218.617 404.013 218.615Z" fill="black"/>
<path d="M371.227 190.088C371.557 190.108 372.058 190.14 372.558 190.175L373.89 190.272L373.976 190.279L374.02 190.355C374.237 190.736 374.559 191.308 374.881 191.88C375.204 192.452 375.526 193.023 375.743 193.404L375.801 193.506L375.724 193.594C373.465 196.171 371.43 198.933 369.348 201.67C367.269 204.405 365.144 207.113 362.715 209.573L362.614 209.675L362.5 209.591C362.046 209.256 361.366 208.759 360.685 208.263C360.004 207.767 359.322 207.271 358.867 206.935L358.738 206.84L358.83 206.709C360.799 203.899 362.861 201.153 364.931 198.414C367.001 195.674 369.079 192.94 371.084 190.155L371.137 190.082L371.227 190.088Z" fill="black"/>
<path d="M336.075 162.893C337.101 163.432 339.178 164.482 340.206 165.008L340.351 165.083L340.279 165.229C337.353 171.074 333.768 176.575 329.964 181.861C329.627 182.484 329.215 182.808 328.741 182.903C328.275 182.996 327.786 182.859 327.314 182.644C326.84 182.429 326.354 182.121 325.896 181.846C325.43 181.566 324.993 181.321 324.595 181.207L324.398 181.15L324.496 180.97C327.909 174.731 331.969 168.886 335.861 162.949L335.943 162.824L336.075 162.893Z" fill="black"/>
<path d="M286.001 124.918C293.927 129.534 301.466 134.759 309.209 139.657L309.424 139.793L309.211 139.934C301.193 145.22 293.017 150.297 284.656 155.031L284.407 155.173L284.411 154.886C284.483 149.906 284.747 144.934 285.028 139.965C285.31 134.994 285.609 130.028 285.753 125.055L285.761 124.778L286.001 124.918Z" fill="black"/>
<path d="M244.856 105.848C246.354 106.071 247.871 106.282 249.385 106.519L249.564 106.547L249.518 106.723C247.487 114.44 243.605 121.517 240.574 128.817L240.516 128.956L240.372 128.91C239.865 128.746 239.107 128.495 238.35 128.246C237.594 127.996 236.837 127.746 236.331 127.582L236.189 127.536L236.221 127.391C237.054 123.6 238.528 120.041 240.112 116.533C241.697 113.019 243.39 109.562 244.677 105.956L244.722 105.828L244.856 105.848Z" fill="black"/>
<path d="M200.692 92.4775C201.284 92.5301 202.172 92.6061 203.06 92.6817C203.949 92.7572 204.837 92.8322 205.43 92.8848L205.62 92.9022L205.575 93.087C203.876 100.193 201.957 107.229 200.707 114.413L200.682 114.558L200.536 114.549C199.447 114.484 197.254 114.338 196.18 114.273L196.004 114.262L196.027 114.088C196.488 110.444 197.273 106.868 198.111 103.308C198.949 99.7452 199.839 96.2011 200.516 92.6104L200.544 92.4641L200.692 92.4775Z" fill="black"/>
<path d="M158.526 82.1432C160.185 82.1827 161.858 82.236 163.529 82.2886L163.717 82.2944L163.686 82.4802C162.475 89.6499 161.108 96.8034 160.648 104.049L160.637 104.206L160.48 104.203C159.79 104.19 159.096 104.179 158.402 104.169C157.708 104.16 157.013 104.15 156.322 104.137L156.159 104.134L156.16 103.972C156.18 100.32 156.566 96.7032 157.028 93.0995C157.491 89.493 158.03 85.9044 158.359 82.2934L158.373 82.1403L158.526 82.1432Z" fill="black"/>
<path d="M116.223 75.1683C116.963 75.0154 117.724 74.9321 118.501 75.0508L118.836 75.1144L118.962 75.1433L118.963 75.2733C118.996 78.9727 118.571 82.6373 118.137 86.2922C117.703 89.9503 117.259 93.5986 117.252 97.2812V97.4439L117.089 97.4459C116.405 97.4525 115.72 97.4551 115.036 97.4584C114.352 97.4617 113.668 97.4653 112.984 97.4719L112.817 97.4738V97.3072C112.817 93.7399 112.992 90.1766 113.178 86.6176C113.364 83.0572 113.561 79.5011 113.607 75.9424L113.608 75.8125L113.737 75.7845C114.143 75.6968 114.552 75.587 114.967 75.4764C115.38 75.3662 115.8 75.2556 116.223 75.1683Z" fill="black"/>
<path d="M77.8192 66.2378C73.5069 74.8657 69.5659 83.7257 64.7857 92.1309L64.6546 92.361L64.5061 92.1415C59.0348 84.0689 55.237 75.0205 51.1478 66.234L51.0389 66H77.9377L77.8192 66.2378Z" fill="black"/>
</svg>
