<svg width="1009" height="798" viewBox="0 0 1009 798" fill="none" xmlns="http://www.w3.org/2000/svg">
<path d="M121.472 277C54.2727 277 0.0273438 331.245 0.0273438 398.445C0.0273438 425.972 8.93329 451.88 25.1259 472.121L126.33 339.342H105.279C93.9446 339.342 82.6098 340.151 75.3231 341.771C70.4653 342.58 66.4172 344.199 63.1786 346.628C59.1305 349.057 54.2727 355.534 51.0341 361.202C51.0341 362.011 50.2245 362.821 49.4149 364.44L42.1282 363.631L51.8438 325.578H178.146L77.752 459.167C84.2291 458.358 86.6579 458.358 92.3254 458.358C96.3735 458.358 102.851 458.358 110.947 459.167L128.759 459.977C135.236 459.977 140.903 460.786 144.951 460.786C153.857 460.786 160.334 459.977 166.002 458.358C170.86 456.738 174.908 455.119 178.956 451.88C186.243 447.023 192.72 438.926 196.768 431.64C196.768 430.83 197.578 430.02 198.387 428.401L204.055 430.02C202.435 436.497 201.626 438.926 198.387 445.403C192.72 457.548 187.052 465.644 178.146 472.121C169.24 478.598 160.334 481.837 149 481.837H147.38C139.284 481.837 132.807 481.027 112.566 477.789C92.3254 474.55 81.8002 473.741 71.2749 473.741C64.7979 473.741 58.3208 474.55 51.8438 475.36C42.9378 476.979 39.6993 477.789 31.603 481.027C53.463 505.316 85.8483 520.699 121.472 520.699C188.672 520.699 242.917 466.454 242.917 399.254C242.917 331.245 188.672 277 121.472 277Z" fill="black"/>
<path d="M652.599 391.156C648.551 393.585 643.693 395.204 638.026 396.014C635.597 396.014 633.168 396.823 631.549 396.823C630.739 396.823 630.739 396.823 629.929 396.823V353.103C631.549 353.103 632.358 353.103 633.168 353.103C638.835 353.103 644.503 353.913 649.36 354.722C652.599 355.532 655.028 357.151 657.457 358.771C661.505 362.009 663.934 366.867 663.934 373.344C663.934 379.011 662.315 383.06 659.076 386.298C656.647 388.727 654.218 390.346 652.599 391.156ZM697.129 449.449C693.081 445.401 689.032 441.353 683.365 435.686C680.126 431.637 676.888 428.399 674.459 425.97L655.838 404.11C658.266 403.3 659.076 403.3 660.695 402.491C666.363 400.062 671.221 397.633 675.269 394.394C680.126 390.346 682.555 386.298 684.984 380.631C685.794 377.392 686.604 374.963 686.604 371.725C686.604 364.438 684.175 357.961 678.507 352.294C673.649 347.436 667.172 343.388 659.076 341.768C653.409 340.149 648.551 340.149 638.835 339.339C635.597 339.339 631.549 339.339 627.5 339.339H596.734C599.163 340.959 599.163 341.768 600.783 344.197C601.592 345.816 602.402 347.436 603.211 348.245C604.021 350.674 604.021 354.722 604.021 361.199V438.924C604.021 444.592 604.021 447.83 602.402 450.259C601.592 451.878 601.592 452.688 600.783 454.307C599.973 455.926 599.163 456.736 596.734 458.355H633.977C632.358 456.736 631.549 455.926 630.739 454.307C629.929 453.498 629.12 451.878 629.12 451.069C628.31 448.64 627.5 445.401 627.5 439.734C627.5 438.115 627.5 435.686 627.5 434.066V407.349L649.36 433.257C650.17 434.876 651.789 436.495 654.218 438.924C656.647 442.163 659.076 443.782 659.886 445.401C663.934 449.449 667.982 452.688 672.03 455.117C675.269 456.736 678.507 457.546 683.365 457.546C684.984 457.546 687.413 457.546 689.842 457.546H704.415C702.796 455.926 701.987 455.117 700.367 454.307C701.177 452.688 699.558 451.069 697.129 449.449ZM747.326 361.199C747.326 353.103 747.326 351.484 748.945 348.245C748.945 346.626 748.945 345.816 749.755 344.197C751.374 342.578 752.184 340.959 753.803 339.339H716.56C718.989 341.768 719.798 342.578 720.608 344.197C721.418 345.816 722.227 346.626 722.227 348.245C723.037 351.484 723.037 353.913 723.847 361.199C723.847 364.438 723.847 366.867 723.847 368.486V438.924C723.847 442.972 723.037 447.83 722.227 450.259C721.418 451.069 721.418 452.688 720.608 453.498C719.798 455.117 718.989 455.117 717.37 457.546H754.613C752.993 455.926 752.184 455.117 751.374 453.498C750.564 452.688 749.755 451.069 749.755 450.259C748.945 447.83 748.136 443.782 748.136 439.734V368.486L747.326 361.199ZM860.674 440.543C853.388 443.782 846.911 444.592 839.624 444.592C827.479 444.592 816.954 440.543 808.858 431.637C801.571 423.541 796.713 412.206 796.713 399.252C796.713 387.108 800.762 374.963 807.239 367.677C810.477 364.438 813.716 361.199 817.764 358.771C824.241 354.722 832.337 353.103 840.434 353.103C847.72 353.103 855.007 354.722 861.484 357.151C865.532 358.771 867.151 359.58 871.2 362.819V340.149C867.961 339.339 867.151 338.53 863.913 338.53C857.436 336.911 850.149 336.101 842.862 336.101C829.908 336.101 819.383 338.53 808.858 342.578C803.19 345.007 797.523 348.245 792.665 352.294C778.092 363.628 769.996 380.631 769.996 400.871C769.996 419.493 777.282 436.495 791.856 447.02C803.19 455.926 818.574 460.784 836.385 460.784C847.72 460.784 858.245 459.165 869.58 455.117C870.39 455.117 870.39 455.117 871.2 454.307V433.257C867.961 434.876 867.151 435.686 865.532 436.495C865.532 438.115 863.103 439.734 860.674 440.543ZM999.931 361.199C999.931 356.342 1000.74 352.294 1001.55 349.055C1002.36 347.436 1002.36 345.816 1003.17 345.007C1004.79 343.388 1005.6 341.768 1008.03 340.149H969.165C971.594 341.768 972.404 342.578 973.213 345.007C974.023 346.626 974.832 347.436 974.832 349.055C975.642 351.484 976.452 355.532 976.452 361.199V389.537H923.016V367.677C923.016 361.199 923.016 357.151 923.016 353.913C923.016 352.294 923.826 350.674 923.826 349.055C924.635 346.626 927.064 342.578 928.683 340.959C928.683 340.959 929.493 340.149 930.303 339.339H892.25C894.679 341.768 895.489 342.578 896.298 344.197C897.108 345.007 897.917 346.626 898.727 348.245C899.537 351.484 899.537 353.103 900.346 360.39V432.447C900.346 438.924 900.346 442.163 899.537 444.592C899.537 446.211 898.727 447.83 898.727 449.449C897.917 451.878 896.298 454.307 893.869 455.926C893.869 455.926 893.06 456.736 892.25 456.736H929.493C927.874 455.117 927.064 454.307 926.255 452.688C925.445 451.878 924.635 450.259 924.635 448.64C923.826 445.401 923.016 442.972 923.016 438.115C923.016 435.686 923.016 433.257 923.016 430.828V402.491H976.452V431.637C976.452 438.115 976.452 440.543 975.642 443.782C975.642 445.401 974.833 447.02 974.023 448.64C973.213 451.069 971.594 452.688 969.975 455.117C969.975 455.117 969.165 455.926 968.355 456.736H1006.41C1004.79 455.117 1003.98 454.307 1003.17 452.688C1002.36 451.069 1001.55 450.259 1000.74 448.64C999.931 446.211 999.121 443.782 999.121 438.115C999.121 434.876 999.121 432.447 999.121 431.637V366.867L999.931 361.199ZM416.186 441.353C411.329 442.163 404.852 442.972 397.565 442.972C395.136 442.972 391.898 442.972 387.849 442.972H370.037L442.095 339.339H348.987L337.652 364.438C341.7 362.819 343.32 362.009 346.558 360.39C352.226 357.961 357.893 356.342 363.56 355.532C368.418 354.722 373.276 353.913 380.563 353.913C383.801 353.913 387.04 353.913 389.469 353.913H403.232L329.556 457.546H431.569L443.714 430.828C439.666 433.257 438.047 434.066 434.808 435.686C429.141 438.115 422.664 439.734 416.186 441.353ZM545.728 344.197C546.537 345.816 547.347 346.626 547.347 348.245C548.156 351.484 548.156 353.913 548.156 360.39V405.729C548.156 415.445 548.156 421.112 547.347 425.97C546.537 429.209 545.728 432.447 544.108 434.876C540.87 439.734 536.012 442.972 529.535 444.592C527.106 445.401 523.867 445.401 521.439 445.401C510.913 445.401 502.817 441.353 497.959 435.686C494.721 430.828 493.911 425.97 493.911 413.826V368.486C493.911 361.199 493.911 357.961 493.911 354.722C493.911 352.294 494.721 350.674 494.721 349.055C495.53 346.626 497.15 342.578 499.579 340.149L500.388 339.339H462.335C464.764 340.959 465.574 342.578 467.193 344.197C468.003 345.816 468.813 346.626 468.813 348.245C469.622 349.865 469.622 351.484 469.622 353.913C469.622 354.722 469.622 357.151 469.622 361.199V401.681C469.622 414.635 469.622 417.064 470.432 422.732C471.241 431.637 473.67 438.114 478.528 444.592C487.434 455.926 502.007 461.594 520.629 461.594C529.535 461.594 537.631 459.975 544.108 457.546C550.585 455.117 557.062 451.069 561.92 445.401C567.588 438.924 570.826 431.637 571.636 422.732C572.445 417.064 572.445 410.587 572.445 401.681V359.58C572.445 354.722 572.445 351.484 573.255 349.055C574.065 347.436 574.065 345.816 575.684 344.197C577.303 342.578 578.113 340.959 580.542 339.339H542.489C544.108 340.959 544.918 341.768 545.728 344.197Z" fill="black"/>
</svg>
