<svg width="351" height="341" viewBox="0 0 351 341" fill="none" xmlns="http://www.w3.org/2000/svg">
	<path fill="url(#paint0_radial_151_1165)" d="M350.088 199.965C328.864 235.873 286.78 249.415 256.853 252.089C226.949 254.763 198.383 248.078 171.105 234.609C143.828 221.14 112.077 209.762 66.3951 223.255C20.7378 236.724 0 269.788 0 269.788C8.48477 264.585 16.5562 260.063 24.3116 256.173L171.105 340.827L310.727 260.331C313.304 258.969 315.784 257.535 318.142 256.052C351.765 234.876 350.088 199.989 350.088 199.989V199.965ZM160.36 252.916V307.325L51.6136 244.625C90.7554 231.424 122.579 236.384 160.36 252.916ZM181.875 307.325V262.616C201.082 270.42 219.802 274.359 237.379 275.331L181.875 307.35V307.325Z" />
	<path fill="#8998AE" d="M262.591 137.243L294.513 125.378V225.445C302.535 222.042 310.728 217.471 318.168 211.369V82.5656L262.591 137.243Z" />
	<path fill="#8998AE" d="M47.7251 211.831V125.378L79.6463 137.243L24.0698 82.5656V224.108C25.3827 223.257 26.7198 222.431 28.0569 221.628C34.3293 217.884 40.9178 214.602 47.7251 211.831Z" />
	<path fill="#8998AE" d="M41.9379 72.1334L59.418 89.3218L137.629 43.7131L148.253 10.1387L41.9379 72.1334Z" />
	<path fill="#8998AE" d="M300.298 72.1334L193.983 10.1387L204.607 43.7131L282.818 89.3218L300.298 72.1334Z" />
	<path fill="white" d="M195.591 190.579L181.879 176.867V97.9031H182.949L210.445 124.257L171.133 0L131.821 124.257L159.318 97.9031H160.387V176.867L146.676 190.579L160.387 204.291V211.171C167.195 213.87 173.321 216.739 178.67 219.389C179.74 219.923 180.834 220.434 181.903 220.945V204.291L195.615 190.579H195.591Z" />
	
	<defs>
		<radialGradient id="paint0_radial_151_1165" cx="0" cy="0" r="1" gradientUnits="userSpaceOnUse" gradientTransform="translate(175.051 251.58) rotate(90) scale(111.415 111.415)">
			<stop stop-color="#84D6FF"/>
			<stop offset="1" stop-color="#176FFF"/>
		</radialGradient>
	</defs>
</svg>
