<svg viewBox="0 0 351 341" fill="none" xmlns="http://www.w3.org/2000/svg">
	<path fill="black" d="M350.088 199.965C328.864 235.873 286.78 249.415 256.853 252.089C226.949 254.763 198.383 248.078 171.106 234.609C143.828 221.14 112.077 209.762 66.3952 223.255C20.738 236.724 0.00012207 269.788 0.00012207 269.788C8.48489 264.585 16.5564 260.063 24.3118 256.173L171.106 340.827L310.727 260.331C313.304 258.969 315.784 257.535 318.142 256.052C351.765 234.876 350.088 199.989 350.088 199.989V199.965ZM160.36 252.916V307.325L51.6138 244.625C90.7555 231.424 122.579 236.384 160.36 252.916ZM181.876 307.325V262.616C201.082 270.42 219.802 274.359 237.379 275.331L181.876 307.35V307.325Z" />
	<path fill="black" d="M262.59 137.243L294.511 125.378V225.445C302.534 222.042 310.727 217.471 318.167 211.369V82.5656L262.59 137.243Z" />
	<path fill="black" d="M47.7237 211.831V125.378L79.6449 137.243L24.0685 82.5656V224.108C25.3813 223.257 26.7185 222.431 28.0556 221.628C34.328 217.884 40.9165 214.602 47.7237 211.831Z" />
	<path fill="black" d="M41.9366 72.1334L59.4167 89.3218L137.627 43.7131L148.251 10.1387L41.9366 72.1334Z" />
	<path fill="black" d="M300.297 72.1334L193.982 10.1387L204.606 43.7131L282.817 89.3218L300.297 72.1334Z" />
	<path fill="black" d="M195.589 190.579L181.878 176.867V97.9031H182.947L210.444 124.257L171.132 0L131.82 124.257L159.316 97.9031H160.386V176.867L146.674 190.579L160.386 204.291V211.171C167.193 213.87 173.32 216.739 178.669 219.389C179.738 219.923 180.832 220.434 181.902 220.945V204.291L195.614 190.579H195.589Z" />
</svg>
