<svg viewBox="0 0 351 341" xmlns="http://www.w3.org/2000/svg">
	<path fill="url(#paint0_radial_151_1099)" d="M350.088 199.965C328.864 235.873 286.78 249.415 256.853 252.089C226.949 254.763 198.383 248.078 171.105 234.609C143.828 221.14 112.077 209.762 66.3951 223.255C20.7378 236.724 0 269.788 0 269.788C8.48477 264.585 16.5562 260.063 24.3116 256.173L171.105 340.827L310.727 260.331C313.304 258.969 315.784 257.535 318.142 256.052C351.765 234.876 350.088 199.989 350.088 199.989V199.965ZM160.36 252.916V307.325L51.6136 244.625C90.7554 231.424 122.579 236.384 160.36 252.916ZM181.875 307.325V262.616C201.082 270.42 219.802 274.359 237.379 275.331L181.875 307.35V307.325Z" />
	<path fill="#A8B2B7" d="M262.593 137.243L294.514 125.378V225.445C302.537 222.042 310.73 217.471 318.169 211.369V82.5656L262.593 137.243Z" />
	<path fill="#A8B2B7" d="M47.7265 211.831V125.378L79.6477 137.243L24.0713 82.5656V224.108C25.3841 223.257 26.7213 222.431 28.0584 221.628C34.3308 217.884 40.9193 214.602 47.7265 211.831Z" />
	<path fill="#A8B2B7" d="M41.9394 72.1334L59.4195 89.3218L137.63 43.7131L148.254 10.1387L41.9394 72.1334Z" />
	<path fill="#A8B2B7" d="M300.299 72.1334L193.985 10.1387L204.609 43.7131L282.819 89.3218L300.299 72.1334Z" />
	<path fill="url(#paint1_linear_151_1099)" d="M195.592 190.579L181.88 176.867V97.9031H182.95L210.447 124.257L171.135 0L131.823 124.257L159.319 97.9031H160.389V176.867L146.677 190.579L160.389 204.291V211.171C167.196 213.87 173.323 216.739 178.671 219.389C179.741 219.923 180.835 220.434 181.905 220.945V204.291L195.617 190.579H195.592Z" />
	
	<defs>
		<radialGradient id="paint0_radial_151_1099" cx="0" cy="0" r="1" gradientUnits="userSpaceOnUse" gradientTransform="translate(175.051 270.396) rotate(90) scale(70.4309 175.051)">
			<stop stop-color="#2A90C7"/>
			<stop offset="1" stop-color="#225487"/>
		</radialGradient>
		<linearGradient id="paint1_linear_151_1099" x1="171.135" y1="0" x2="171.135" y2="220.945" gradientUnits="userSpaceOnUse">
			<stop offset="0.503096" stop-color="#A8B2B7"/>
			<stop offset="1" stop-color="#C8D3D9"/>
		</linearGradient>
	</defs>
</svg>
