<?xml version="1.0" encoding="UTF-8"?>
<svg id="Layer_1" xmlns="http://www.w3.org/2000/svg" version="1.1" xmlns:xlink="http://www.w3.org/1999/xlink" viewBox="0 0 180 180">
  <!-- Generator: Adobe Illustrator 29.7.1, SVG Export Plug-In . SVG Version: 2.1.1 Build 8)  -->
  <defs>
    <style>
      .st0 {
        fill: none;
      }

      .st1 {
        fill: url(#radial-gradient);
      }

      .st2 {
        fill: url(#radial-gradient5);
      }

      .st3 {
        fill: url(#radial-gradient1);
      }

      .st4 {
        fill: url(#radial-gradient2);
      }

      .st5 {
        fill: url(#radial-gradient4);
      }

      .st6 {
        fill: url(#radial-gradient3);
      }
    </style>
    <radialGradient id="radial-gradient" cx="88.72" cy="120.87" fx="88.72" fy="120.87" r="48.8" gradientUnits="userSpaceOnUse">
      <stop offset="0" stop-color="#1573a5"/>
      <stop offset="1" stop-color="#225487"/>
    </radialGradient>
    <radialGradient id="radial-gradient1" cx="87.99" cy="103.2" fx="87.99" fy="103.2" r="87.23" gradientUnits="userSpaceOnUse">
      <stop offset="0" stop-color="#cdcecb"/>
      <stop offset="1" stop-color="#989697"/>
    </radialGradient>
    <radialGradient id="radial-gradient2" cx="87.99" cy="103.2" fx="87.99" fy="103.2" r="87.23" gradientUnits="userSpaceOnUse">
      <stop offset="0" stop-color="#cdcecb"/>
      <stop offset="1" stop-color="#989697"/>
    </radialGradient>
    <radialGradient id="radial-gradient3" cx="87.99" cy="103.2" fx="87.99" fy="103.2" r="87.23" gradientUnits="userSpaceOnUse">
      <stop offset="0" stop-color="#cdcecb"/>
      <stop offset="1" stop-color="#989697"/>
    </radialGradient>
    <radialGradient id="radial-gradient4" cx="87.99" cy="103.2" fx="87.99" fy="103.2" r="87.23" gradientUnits="userSpaceOnUse">
      <stop offset="0" stop-color="#cdcecb"/>
      <stop offset="1" stop-color="#989697"/>
    </radialGradient>
    <radialGradient id="radial-gradient5" cx="87.99" cy="103.2" fx="87.99" fy="103.2" r="87.23" gradientUnits="userSpaceOnUse">
      <stop offset="0" stop-color="#cdcecb"/>
      <stop offset="1" stop-color="#989697"/>
    </radialGradient>
  </defs>
  <g>
    <path class="st1" d="M161.99,102.16c-8.73,14.77-26.04,20.34-38.35,21.44-12.3,1.1-24.05-1.65-35.27-7.19s-24.28-10.22-43.07-4.67c-18.78,5.54-27.31,19.14-27.31,19.14,3.49-2.14,6.81-4,10-5.6l60.38,34.82,57.43-33.11c1.06-.56,2.08-1.15,3.05-1.76,13.83-8.71,13.14-23.06,13.14-23.06h0ZM83.95,123.94v22.38l-44.73-25.79c16.1-5.43,29.19-3.39,44.73,3.41ZM92.8,146.32v-18.39c7.9,3.21,15.6,4.83,22.83,5.23l-22.83,13.17h0Z"/>
    <g>
      <g>
        <path class="st3" d="M126,76.36l13.13-4.88v41.16c3.3-1.4,6.67-3.28,9.73-5.79v-52.98l-22.86,22.49Z"/>
        <path class="st4" d="M37.62,107.04v-35.56l13.13,4.88-22.86-22.49v58.22c.54-.35,1.09-.69,1.64-1.02,2.58-1.54,5.29-2.89,8.09-4.03Z"/>
      </g>
      <g>
        <polygon class="st6" points="35.24 49.58 42.43 56.65 74.6 37.89 78.97 24.08 35.24 49.58"/>
        <polygon class="st5" points="141.51 49.58 97.78 24.08 102.15 37.89 134.32 56.65 141.51 49.58"/>
      </g>
      <path class="st2" d="M98.44,98.3l-5.64-5.64v-32.48h.44l11.31,10.84-16.17-51.11-16.17,51.11,11.31-10.84h.44v32.48l-5.64,5.64,5.64,5.64v2.83c2.8,1.11,5.32,2.29,7.52,3.38.44.22.89.43,1.33.64v-6.85l5.64-5.64h-.01Z"/>
    </g>
  </g>
  <rect class="st0" width="180" height="180"/>
</svg>