<svg xmlns="http://www.w3.org/2000/svg" id="Layer_1" version="1.1" viewBox="0 0 180 180">
  <defs>
    <style>
      .st0{fill:none}
    </style>
  </defs>
  <path d="M161.99 102.16c-8.73 14.77-26.04 20.34-38.35 21.44-12.3 1.1-24.05-1.65-35.27-7.19s-24.28-10.22-43.07-4.67c-18.78 5.54-27.31 19.14-27.31 19.14 3.49-2.14 6.81-4 10-5.6l60.38 34.82 57.43-33.11c1.06-.56 2.08-1.15 3.05-1.76 13.83-8.71 13.14-23.06 13.14-23.06Zm-78.04 21.78v22.38l-44.73-25.79c16.1-5.43 29.19-3.39 44.73 3.41Zm8.85 22.38v-18.39c7.9 3.21 15.6 4.83 22.83 5.23L92.8 146.33Z"/>
  <path d="m126 76.36 13.13-4.88v41.16c3.3-1.4 6.67-3.28 9.73-5.79V53.87L126 76.36Zm-88.38 30.68V71.48l13.13 4.88-22.86-22.49v58.22c.54-.35 1.09-.69 1.64-1.02 2.58-1.54 5.29-2.89 8.09-4.03Zm-2.38-57.46 7.19 7.07L74.6 37.89l4.37-13.81-43.73 25.5zm106.27 0-43.73-25.5 4.37 13.81 32.17 18.76 7.19-7.07zM98.44 98.3l-5.64-5.64V60.18h.44l11.31 10.84-16.17-51.11-16.17 51.11 11.31-10.84h.44v32.48l-5.64 5.64 5.64 5.64v2.83c2.8 1.11 5.32 2.29 7.52 3.38.44.22.89.43 1.33.64v-6.85l5.64-5.64h-.01Z"/>
</svg>