<svg width="351" height="341" viewBox="0 0 351 341" fill="none" xmlns="http://www.w3.org/2000/svg">
<path d="M350.088 199.965C328.864 235.873 286.78 249.415 256.853 252.089C226.949 254.763 198.383 248.078 171.105 234.609C143.828 221.14 112.077 209.762 66.3951 223.255C20.7378 236.724 0 269.788 0 269.788C8.48477 264.585 16.5562 260.063 24.3116 256.173L171.105 340.827L310.727 260.331C313.304 258.969 315.784 257.535 318.142 256.052C351.765 234.876 350.088 199.989 350.088 199.989V199.965ZM160.36 252.916V307.325L51.6136 244.625C90.7554 231.424 122.579 236.384 160.36 252.916ZM181.875 307.325V262.616C201.082 270.42 219.802 274.359 237.379 275.331L181.875 307.35V307.325Z" fill="white"/>
<path d="M262.59 137.243L294.511 125.378V225.445C302.534 222.042 310.727 217.471 318.166 211.369V82.5656L262.59 137.243Z" fill="white"/>
<path d="M47.7236 211.831V125.378L79.6448 137.243L24.0684 82.5656V224.108C25.3812 223.257 26.7183 222.431 28.0555 221.628C34.3279 217.884 40.9163 214.602 47.7236 211.831Z" fill="white"/>
<path d="M41.9365 72.1334L59.4165 89.3218L137.627 43.7131L148.251 10.1387L41.9365 72.1334Z" fill="white"/>
<path d="M300.296 72.1334L193.982 10.1387L204.606 43.7131L282.816 89.3218L300.296 72.1334Z" fill="white"/>
<path d="M195.589 190.579L181.878 176.867V97.9031H182.947L210.444 124.257L171.132 0L131.82 124.257L159.316 97.9031H160.386V176.867L146.674 190.579L160.386 204.291V211.171C167.193 213.87 173.32 216.739 178.668 219.389C179.738 219.923 180.832 220.434 181.902 220.945V204.291L195.614 190.579H195.589Z" fill="white"/>
</svg>
